VotoSerifGX-CondensedLightText.ufo
<glyph name="dollar" format="2">
  <advance width="336"/>
  <unicode hex="0024"/>
  <outline>
    <contour>
      <point x="153" y="-79" type="line"/>
      <point x="181" y="-79" type="line"/>
      <point x="181" y="45" type="line"/>
      <point x="245" y="58"/>
      <point x="285" y="102"/>
      <point x="285" y="190" type="curve" smooth="yes"/>
      <point x="285" y="241"/>
      <point x="284" y="308"/>
      <point x="181" y="378" type="curve"/>
      <point x="181" y="655" type="line"/>
      <point x="251" y="662"/>
      <point x="257" y="573"/>
      <point x="257" y="521" type="curve"/>
      <point x="269" y="521"/>
      <point x="278" y="538"/>
      <point x="278" y="567" type="curve" smooth="yes"/>
      <point x="278" y="638"/>
      <point x="245" y="682"/>
      <point x="181" y="680" type="curve"/>
      <point x="181" y="760" type="line"/>
      <point x="153" y="760" type="line"/>
      <point x="153" y="677" type="line"/>
      <point x="103" y="667"/>
      <point x="57" y="623"/>
      <point x="57" y="537" type="curve" smooth="yes"/>
      <point x="57" y="451"/>
      <point x="87" y="406"/>
      <point x="153" y="360" type="curve"/>
      <point x="153" y="72" type="line"/>
      <point x="124" y="72"/>
      <point x="59" y="94"/>
      <point x="62" y="215" type="curve"/>
      <point x="40" y="215"/>
      <point x="41" y="174"/>
      <point x="41" y="167" type="curve" smooth="yes"/>
      <point x="41" y="91"/>
      <point x="92" y="53"/>
      <point x="153" y="45" type="curve"/>
    </contour>
    <contour>
      <point x="181" y="68" type="curve"/>
      <point x="181" y="343" type="line"/>
      <point x="224" y="311"/>
      <point x="257" y="267"/>
      <point x="257" y="198" type="curve" smooth="yes"/>
      <point x="257" y="127"/>
      <point x="235" y="82"/>
    </contour>
    <contour>
      <point x="153" y="393" type="line"/>
      <point x="108" y="423"/>
      <point x="85" y="453"/>
      <point x="85" y="532" type="curve" smooth="yes"/>
      <point x="85" y="594"/>
      <point x="104" y="640"/>
      <point x="153" y="652" type="curve"/>
    </contour>
  </outline>
</glyph>
<glyph name="quotesingle" format="2">
  <advance width="102"/>
  <unicode hex="0027"/>
  <outline>
    <contour>
      <point x="42" y="542" type="line"/>
      <point x="59" y="542" type="line"/>
      <point x="74" y="714" type="line"/>
      <point x="29" y="714" type="line"/>
    </contour>
  </outline>
</glyph>
<glyph name="period" format="2">
  <advance width="132"/>
  <unicode hex="002E"/>
  <outline>
    <contour>
      <point x="69" y="-7" type="curve" smooth="yes"/>
      <point x="81" y="-7"/>
      <point x="94" y="4"/>
      <point x="94" y="32" type="curve" smooth="yes"/>
      <point x="94" y="62"/>
      <point x="81" y="73"/>
      <point x="69" y="73" type="curve" smooth="yes"/>
      <point x="50" y="73"/>
      <point x="38" y="62"/>
      <point x="38" y="32" type="curve" smooth="yes"/>
      <point x="38" y="4"/>
      <point x="50" y="-7"/>
    </contour>
  </outline>
</glyph>
<glyph name="one" format="2">
  <advance width="336"/>
  <unicode hex="0031"/>
  <outline>
    <contour>
      <point x="59" y="0" type="line"/>
      <point x="294" y="0" type="line"/>
      <point x="294" y="19" type="line"/>
      <point x="251" y="19" type="line" smooth="yes"/>
      <point x="205" y="19"/>
      <point x="195" y="29"/>
      <point x="195" y="103" type="curve" smooth="yes"/>
      <point x="195" y="718" type="line"/>
      <point x="179" y="718" type="line"/>
      <point x="126" y="655" type="line" smooth="yes"/>
      <point x="85" y="606"/>
      <point x="57" y="606"/>
      <point x="46" y="593" type="curve"/>
      <point x="46" y="584"/>
      <point x="63" y="580"/>
      <point x="67" y="580" type="curve" smooth="yes"/>
      <point x="109" y="580"/>
      <point x="135" y="628"/>
      <point x="167" y="663" type="curve"/>
      <point x="167" y="103" type="line" smooth="yes"/>
      <point x="167" y="29"/>
      <point x="158" y="19"/>
      <point x="111" y="19" type="curve" smooth="yes"/>
      <point x="59" y="19" type="line"/>
    </contour>
  </outline>
</glyph>
<glyph name="three" format="2">
  <advance width="336"/>
  <unicode hex="0033"/>
  <outline>
    <contour>
      <point x="157" y="-9" type="curve" smooth="yes"/>
      <point x="231" y="-9"/>
      <point x="292" y="66"/>
      <point x="292" y="191" type="curve" smooth="yes"/>
      <point x="292" y="324"/>
      <point x="239" y="373"/>
      <point x="159" y="376" type="curve"/>
      <point x="246" y="387"/>
      <point x="277" y="493"/>
      <point x="277" y="564" type="curve" smooth="yes"/>
      <point x="277" y="664"/>
      <point x="234" y="724"/>
      <point x="173" y="724" type="curve" smooth="yes"/>
      <point x="117" y="724"/>
      <point x="68" y="676"/>
      <point x="68" y="586" type="curve" smooth="yes"/>
      <point x="68" y="550"/>
      <point x="82" y="542"/>
      <point x="89" y="542" type="curve"/>
      <point x="88" y="631"/>
      <point x="96" y="699"/>
      <point x="174" y="699" type="curve" smooth="yes"/>
      <point x="230" y="699"/>
      <point x="249" y="650"/>
      <point x="249" y="562" type="curve" smooth="yes"/>
      <point x="249" y="453"/>
      <point x="191" y="387"/>
      <point x="136" y="387" type="curve" smooth="yes"/>
      <point x="116" y="387" type="line"/>
      <point x="116" y="362" type="line"/>
      <point x="134" y="362" type="line" smooth="yes"/>
      <point x="222" y="362"/>
      <point x="264" y="303"/>
      <point x="264" y="192" type="curve" smooth="yes"/>
      <point x="264" y="93"/>
      <point x="227" y="16"/>
      <point x="159" y="16" type="curve" smooth="yes"/>
      <point x="106" y="16"/>
      <point x="67" y="52"/>
      <point x="67" y="136" type="curve"/>
      <point x="50" y="136"/>
      <point x="48" y="113"/>
      <point x="48" y="95" type="curve" smooth="yes"/>
      <point x="48" y="38"/>
      <point x="94" y="-9"/>
    </contour>
  </outline>
</glyph>
<glyph name="six" format="2">
  <advance width="336"/>
  <unicode hex="0036"/>
  <outline>
    <contour>
      <point x="183" y="-10" type="curve" smooth="yes"/>
      <point x="210" y="-10"/>
      <point x="296" y="16"/>
      <point x="296" y="213" type="curve" smooth="yes"/>
      <point x="296" y="353"/>
      <point x="264" y="430"/>
      <point x="179" y="430" type="curve" smooth="yes"/>
      <point x="112" y="430"/>
      <point x="76" y="377"/>
      <point x="71" y="352" type="curve"/>
      <point x="69" y="616"/>
      <point x="96" y="699"/>
      <point x="184" y="699" type="curve" smooth="yes"/>
      <point x="248" y="699"/>
      <point x="265" y="658"/>
      <point x="265" y="586" type="curve"/>
      <point x="272" y="586"/>
      <point x="284" y="585"/>
      <point x="284" y="626" type="curve" smooth="yes"/>
      <point x="284" y="689"/>
      <point x="246" y="724"/>
      <point x="185" y="724" type="curve" smooth="yes"/>
      <point x="88" y="724"/>
      <point x="43" y="646"/>
      <point x="43" y="340" type="curve" smooth="yes"/>
      <point x="43" y="87"/>
      <point x="94" y="-10"/>
    </contour>
    <contour>
      <point x="183" y="15" type="curve" smooth="yes"/>
      <point x="114" y="15"/>
      <point x="71" y="100"/>
      <point x="71" y="312" type="curve"/>
      <point x="92" y="355"/>
      <point x="123" y="405"/>
      <point x="179" y="405" type="curve" smooth="yes"/>
      <point x="240" y="405"/>
      <point x="268" y="357"/>
      <point x="268" y="214" type="curve" smooth="yes"/>
      <point x="268" y="62"/>
      <point x="225" y="15"/>
    </contour>
  </outline>
</glyph>
<glyph name="nine" format="2">
  <advance width="336"/>
  <unicode hex="0039"/>
  <outline>
    <contour>
      <point x="145" y="-14" type="curve" smooth="yes"/>
      <point x="232" y="-14"/>
      <point x="291" y="66"/>
      <point x="291" y="388" type="curve" smooth="yes"/>
      <point x="291" y="651"/>
      <point x="220" y="724"/>
      <point x="156" y="724" type="curve" smooth="yes"/>
      <point x="82" y="724"/>
      <point x="38" y="647"/>
      <point x="38" y="477" type="curve" smooth="yes"/>
      <point x="38" y="336"/>
      <point x="100" y="284"/>
      <point x="162" y="284" type="curve" smooth="yes"/>
      <point x="229" y="284"/>
      <point x="273" y="349"/>
      <point x="263" y="356" type="curve"/>
      <point x="253" y="103"/>
      <point x="228" y="11"/>
      <point x="142" y="11" type="curve" smooth="yes"/>
      <point x="93" y="11"/>
      <point x="72" y="58"/>
      <point x="67" y="80" type="curve"/>
      <point x="61" y="77"/>
      <point x="58" y="70"/>
      <point x="58" y="52" type="curve" smooth="yes"/>
      <point x="58" y="17"/>
      <point x="96" y="-14"/>
    </contour>
    <contour>
      <point x="164" y="309" type="curve" smooth="yes"/>
      <point x="99" y="309"/>
      <point x="66" y="357"/>
      <point x="66" y="484" type="curve" smooth="yes"/>
      <point x="66" y="628"/>
      <point x="92" y="699"/>
      <point x="156" y="699" type="curve" smooth="yes"/>
      <point x="218" y="699"/>
      <point x="263" y="612"/>
      <point x="263" y="402" type="curve"/>
      <point x="252" y="356"/>
      <point x="220" y="309"/>
    </contour>
  </outline>
</glyph>
<glyph name="semicolon" format="2">
  <advance width="161"/>
  <unicode hex="003B"/>
  <outline>
    <contour>
      <point x="29" y="-154" type="line"/>
      <point x="93" y="-122"/>
      <point x="117" y="-52"/>
      <point x="117" y="0" type="curve" smooth="yes"/>
      <point x="117" y="59"/>
      <point x="93" y="73"/>
      <point x="75" y="73" type="curve" smooth="yes"/>
      <point x="59" y="73"/>
      <point x="43" y="63"/>
      <point x="43" y="50" type="curve" smooth="yes"/>
      <point x="43" y="15"/>
      <point x="85" y="16"/>
      <point x="85" y="-23" type="curve" smooth="yes"/>
      <point x="85" y="-61"/>
      <point x="68" y="-107"/>
      <point x="29" y="-125" type="curve"/>
    </contour>
    <contour>
      <point x="83" y="428" type="curve" smooth="yes"/>
      <point x="98" y="428"/>
      <point x="111" y="437"/>
      <point x="111" y="466" type="curve" smooth="yes"/>
      <point x="111" y="496"/>
      <point x="98" y="506"/>
      <point x="83" y="506" type="curve" smooth="yes"/>
      <point x="65" y="506"/>
      <point x="53" y="496"/>
      <point x="53" y="466" type="curve" smooth="yes"/>
      <point x="53" y="437"/>
      <point x="65" y="428"/>
    </contour>
  </outline>
</glyph>
<glyph name="less" format="2">
  <advance width="336"/>
  <unicode hex="003C"/>
  <outline>
    <contour>
      <point x="296" y="116" type="line"/>
      <point x="296" y="156" type="line"/>
      <point x="72" y="357" type="line"/>
      <point x="296" y="560" type="line"/>
      <point x="296" y="600" type="line"/>
      <point x="40" y="371" type="line"/>
      <point x="40" y="344" type="line"/>
    </contour>
  </outline>
</glyph>
<glyph name="A" format="2">
  <advance width="402"/>
  <unicode hex="0041"/>
  <anchor x="201" y="0" name="bottom"/>
  <anchor x="201" y="714" name="top"/>
  <anchor x="315" y="714" name="topright"/>
  <outline>
    <contour>
      <point x="-1" y="0" type="line"/>
      <point x="128" y="0" type="line"/>
      <point x="128" y="20" type="line"/>
      <point x="127" y="20" type="line" smooth="yes"/>
      <point x="89" y="20"/>
      <point x="74" y="27"/>
      <point x="74" y="45" type="curve" smooth="yes"/>
      <point x="74" y="54"/>
      <point x="79" y="82"/>
      <point x="88" y="115" type="curve" smooth="yes"/>
      <point x="123" y="251" type="line"/>
      <point x="287" y="251" type="line"/>
      <point x="329" y="87" type="line" smooth="yes"/>
      <point x="337" y="57"/>
      <point x="337" y="49"/>
      <point x="337" y="48" type="curve" smooth="yes"/>
      <point x="337" y="26"/>
      <point x="327" y="20"/>
      <point x="287" y="20" type="curve" smooth="yes"/>
      <point x="277" y="20" type="line"/>
      <point x="277" y="0" type="line"/>
      <point x="402" y="0" type="line"/>
      <point x="402" y="20" type="line"/>
      <point x="405" y="20" type="line" smooth="yes"/>
      <point x="379" y="20"/>
      <point x="368" y="26"/>
      <point x="365" y="46" type="curve" smooth="yes"/>
      <point x="208" y="714" type="line"/>
      <point x="203" y="714" type="line"/>
      <point x="68" y="128" type="line" smooth="yes"/>
      <point x="45" y="37"/>
      <point x="36" y="20"/>
      <point x="10" y="20" type="curve" smooth="yes"/>
      <point x="-1" y="20" type="line"/>
    </contour>
    <contour>
      <point x="131" y="276" type="line"/>
      <point x="179" y="505" type="line" smooth="yes"/>
      <point x="194" y="572"/>
      <point x="200" y="599"/>
      <point x="204" y="635" type="curve"/>
      <point x="208" y="608"/>
      <point x="213" y="577"/>
      <point x="236" y="485" type="curve" smooth="yes"/>
      <point x="283" y="276" type="line"/>
    </contour>
  </outline>
</glyph>
<glyph name="G" format="2">
  <advance width="404"/>
  <unicode hex="0047"/>
  <anchor x="219" y="0" name="bottom"/>
  <anchor x="212" y="714" name="top"/>
  <anchor x="384" y="714" name="topright"/>
  <outline>
    <contour>
      <point x="231" y="-10" type="curve" smooth="yes"/>
      <point x="281" y="-10"/>
      <point x="316" y="1"/>
      <point x="352" y="28" type="curve"/>
      <point x="352" y="232" type="line" smooth="yes"/>
      <point x="352" y="298"/>
      <point x="361" y="304"/>
      <point x="403" y="304" type="curve" smooth="yes"/>
      <point x="397" y="304" type="line"/>
      <point x="397" y="324" type="line"/>
      <point x="262" y="324" type="line"/>
      <point x="262" y="304" type="line"/>
      <point x="258" y="304" type="line" smooth="yes"/>
      <point x="315" y="304"/>
      <point x="324" y="298"/>
      <point x="324" y="234" type="curve" smooth="yes"/>
      <point x="324" y="39" type="line"/>
      <point x="306" y="22"/>
      <point x="272" y="15"/>
      <point x="225" y="15" type="curve" smooth="yes"/>
      <point x="105" y="15"/>
      <point x="62" y="128"/>
      <point x="62" y="358" type="curve" smooth="yes"/>
      <point x="62" y="588"/>
      <point x="116" y="699"/>
      <point x="238" y="699" type="curve" smooth="yes"/>
      <point x="307" y="699"/>
      <point x="333" y="629"/>
      <point x="333" y="564" type="curve"/>
      <point x="346" y="564"/>
      <point x="354" y="577"/>
      <point x="354" y="613" type="curve" smooth="yes"/>
      <point x="354" y="657"/>
      <point x="310" y="724"/>
      <point x="236" y="724" type="curve" smooth="yes"/>
      <point x="106" y="724"/>
      <point x="34" y="621"/>
      <point x="34" y="358" type="curve" smooth="yes"/>
      <point x="34" y="110"/>
      <point x="93" y="-10"/>
    </contour>
  </outline>
</glyph>
<glyph name="H" format="2">
  <advance width="464"/>
  <unicode hex="0048"/>
  <anchor x="233" y="0" name="bottom"/>
  <anchor x="233" y="357" name="center"/>
  <anchor x="233" y="714" name="top"/>
  <anchor x="444" y="714" name="topright"/>
  <outline>
    <contour>
      <point x="28" y="0" type="line"/>
      <point x="180" y="0" type="line"/>
      <point x="180" y="20" type="line"/>
      <point x="168" y="20" type="line" smooth="yes"/>
      <point x="118" y="20"/>
      <point x="112" y="31"/>
      <point x="112" y="108" type="curve" smooth="yes"/>
      <point x="112" y="361" type="line"/>
      <point x="351" y="361" type="line"/>
      <point x="351" y="108" type="line" smooth="yes"/>
      <point x="351" y="31"/>
      <point x="345" y="20"/>
      <point x="295" y="20" type="curve" smooth="yes"/>
      <point x="283" y="20" type="line"/>
      <point x="283" y="0" type="line"/>
      <point x="438" y="0" type="line"/>
      <point x="438" y="20" type="line"/>
      <point x="435" y="20" type="line" smooth="yes"/>
      <point x="385" y="20"/>
      <point x="379" y="31"/>
      <point x="379" y="108" type="curve" smooth="yes"/>
      <point x="379" y="606" type="line" smooth="yes"/>
      <point x="379" y="683"/>
      <point x="385" y="694"/>
      <point x="435" y="694" type="curve" smooth="yes"/>
      <point x="438" y="694" type="line"/>
      <point x="438" y="714" type="line"/>
      <point x="283" y="714" type="line"/>
      <point x="283" y="694" type="line"/>
      <point x="295" y="694" type="line" smooth="yes"/>
      <point x="345" y="694"/>
      <point x="351" y="683"/>
      <point x="351" y="606" type="curve" smooth="yes"/>
      <point x="351" y="386" type="line"/>
      <point x="112" y="386" type="line"/>
      <point x="112" y="606" type="line" smooth="yes"/>
      <point x="112" y="683"/>
      <point x="118" y="694"/>
      <point x="168" y="694" type="curve" smooth="yes"/>
      <point x="180" y="694" type="line"/>
      <point x="180" y="714" type="line"/>
      <point x="28" y="714" type="line"/>
      <point x="28" y="694" type="line"/>
      <point x="28" y="694" type="line" smooth="yes"/>
      <point x="78" y="694"/>
      <point x="84" y="683"/>
      <point x="84" y="606" type="curve" smooth="yes"/>
      <point x="84" y="108" type="line" smooth="yes"/>
      <point x="84" y="31"/>
      <point x="78" y="20"/>
      <point x="28" y="20" type="curve" smooth="yes"/>
      <point x="28" y="20" type="line"/>
    </contour>
  </outline>
</glyph>
<glyph name="K" format="2">
  <advance width="400"/>
  <unicode hex="004B"/>
  <anchor x="201" y="0" name="bottom"/>
  <anchor x="201" y="714" name="top"/>
  <anchor x="380" y="714" name="topright"/>
  <outline>
    <contour>
      <point x="27" y="0" type="line"/>
      <point x="180" y="0" type="line"/>
      <point x="180" y="20" type="line"/>
      <point x="168" y="20" type="line" smooth="yes"/>
      <point x="116" y="20"/>
      <point x="112" y="31"/>
      <point x="112" y="115" type="curve" smooth="yes"/>
      <point x="112" y="243" type="line"/>
      <point x="189" y="384" type="line"/>
      <point x="320" y="79" type="line" smooth="yes"/>
      <point x="348" y="8"/>
      <point x="360" y="0"/>
      <point x="403" y="0" type="curve" smooth="yes"/>
      <point x="409" y="0" type="line"/>
      <point x="409" y="17" type="line"/>
      <point x="402" y="17" type="line" smooth="yes"/>
      <point x="371" y="17"/>
      <point x="366" y="36"/>
      <point x="335" y="106" type="curve" smooth="yes"/>
      <point x="204" y="413" type="line"/>
      <point x="293" y="580" type="line" smooth="yes"/>
      <point x="356" y="683"/>
      <point x="350" y="695"/>
      <point x="387" y="694" type="curve"/>
      <point x="387" y="714" type="line"/>
      <point x="275" y="714" type="line"/>
      <point x="275" y="694" type="line"/>
      <point x="312" y="694"/>
      <point x="321" y="687"/>
      <point x="321" y="680" type="curve" smooth="yes"/>
      <point x="321" y="668"/>
      <point x="307" y="648"/>
      <point x="270" y="583" type="curve" smooth="yes"/>
      <point x="112" y="291" type="line"/>
      <point x="112" y="608" type="line" smooth="yes"/>
      <point x="112" y="683"/>
      <point x="118" y="694"/>
      <point x="168" y="694" type="curve" smooth="yes"/>
      <point x="181" y="694" type="line"/>
      <point x="181" y="714" type="line"/>
      <point x="27" y="714" type="line"/>
      <point x="27" y="694" type="line"/>
      <point x="28" y="694" type="line" smooth="yes"/>
      <point x="78" y="694"/>
      <point x="84" y="683"/>
      <point x="84" y="608" type="curve" smooth="yes"/>
      <point x="84" y="108" type="line" smooth="yes"/>
      <point x="84" y="31"/>
      <point x="78" y="20"/>
      <point x="28" y="20" type="curve" smooth="yes"/>
      <point x="27" y="20" type="line"/>
    </contour>
  </outline>
</glyph>
<glyph name="Y" format="2">
  <advance width="344"/>
  <unicode hex="0059"/>
  <anchor x="172" y="0" name="bottom"/>
  <anchor x="172" y="714" name="top"/>
  <anchor x="324" y="714" name="topright"/>
  <outline>
    <contour>
      <point x="91" y="0" type="line"/>
      <point x="253" y="0" type="line"/>
      <point x="253" y="20" type="line"/>
      <point x="242" y="20" type="line" smooth="yes"/>
      <point x="192" y="20"/>
      <point x="186" y="31"/>
      <point x="186" y="108" type="curve" smooth="yes"/>
      <point x="186" y="356" type="line"/>
      <point x="306" y="652" type="line" smooth="yes"/>
      <point x="324" y="693"/>
      <point x="335" y="694"/>
      <point x="350" y="694" type="curve" smooth="yes"/>
      <point x="348" y="694" type="line"/>
      <point x="348" y="714" type="line"/>
      <point x="204" y="714" type="line"/>
      <point x="204" y="694" type="line"/>
      <point x="243" y="694" type="line" smooth="yes"/>
      <point x="280" y="694"/>
      <point x="286" y="689"/>
      <point x="286" y="677" type="curve" smooth="yes"/>
      <point x="286" y="668"/>
      <point x="290" y="667"/>
      <point x="276" y="632" type="curve" smooth="yes"/>
      <point x="210" y="474" type="line" smooth="yes"/>
      <point x="192" y="430"/>
      <point x="181" y="402"/>
      <point x="171" y="382" type="curve"/>
      <point x="152" y="428"/>
      <point x="138" y="469"/>
      <point x="120" y="515" type="curve" smooth="yes"/>
      <point x="83" y="622" type="line" smooth="yes"/>
      <point x="70" y="653"/>
      <point x="60" y="670"/>
      <point x="60" y="679" type="curve" smooth="yes"/>
      <point x="60" y="690"/>
      <point x="64" y="694"/>
      <point x="103" y="694" type="curve" smooth="yes"/>
      <point x="133" y="694" type="line"/>
      <point x="133" y="714" type="line"/>
      <point x="-6" y="714" type="line"/>
      <point x="-6" y="694" type="line"/>
      <point x="-9" y="694" type="line" smooth="yes"/>
      <point x="11" y="694"/>
      <point x="24" y="693"/>
      <point x="41" y="651" type="curve" smooth="yes"/>
      <point x="158" y="354" type="line"/>
      <point x="158" y="108" type="line" smooth="yes"/>
      <point x="158" y="31"/>
      <point x="152" y="20"/>
      <point x="102" y="20" type="curve" smooth="yes"/>
      <point x="91" y="20" type="line"/>
    </contour>
  </outline>
</glyph>
<glyph name="bracketright" format="2">
  <advance width="194"/>
  <unicode hex="005D"/>
  <outline>
    <contour>
      <point x="20" y="-128" type="line"/>
      <point x="132" y="-128" type="line"/>
      <point x="132" y="760" type="line"/>
      <point x="20" y="760" type="line"/>
      <point x="20" y="740" type="line"/>
      <point x="48" y="740" type="line" smooth="yes"/>
      <point x="98" y="740"/>
      <point x="104" y="729"/>
      <point x="104" y="652" type="curve" smooth="yes"/>
      <point x="104" y="-20" type="line" smooth="yes"/>
      <point x="104" y="-97"/>
      <point x="98" y="-108"/>
      <point x="48" y="-108" type="curve" smooth="yes"/>
      <point x="20" y="-108" type="line"/>
    </contour>
  </outline>
</glyph>
<glyph name="s" format="2">
  <advance width="255"/>
  <unicode hex="0073"/>
  <anchor x="128" y="0" name="bottom"/>
  <anchor x="128" y="536" name="top"/>
  <anchor x="245" y="536" name="topright"/>
  <outline>
    <contour>
      <point x="114" y="-10" type="curve" smooth="yes"/>
      <point x="187" y="-10"/>
      <point x="225" y="37"/>
      <point x="225" y="123" type="curve" smooth="yes"/>
      <point x="225" y="181"/>
      <point x="205" y="237"/>
      <point x="143" y="283" type="curve" smooth="yes"/>
      <point x="90" y="327"/>
      <point x="71" y="370"/>
      <point x="71" y="419" type="curve" smooth="yes"/>
      <point x="71" y="471"/>
      <point x="86" y="515"/>
      <point x="133" y="515" type="curve" smooth="yes"/>
      <point x="183" y="515"/>
      <point x="200" y="469"/>
      <point x="200" y="405" type="curve"/>
      <point x="216" y="405"/>
      <point x="221" y="422"/>
      <point x="221" y="453" type="curve" smooth="yes"/>
      <point x="221" y="514"/>
      <point x="174" y="540"/>
      <point x="131" y="540" type="curve" smooth="yes"/>
      <point x="76" y="540"/>
      <point x="43" y="493"/>
      <point x="43" y="420" type="curve" smooth="yes"/>
      <point x="43" y="359"/>
      <point x="63" y="318"/>
      <point x="121" y="264" type="curve" smooth="yes"/>
      <point x="183" y="215"/>
      <point x="197" y="170"/>
      <point x="197" y="127" type="curve" smooth="yes"/>
      <point x="197" y="41"/>
      <point x="166" y="15"/>
      <point x="116" y="15" type="curve" smooth="yes"/>
      <point x="73" y="15"/>
      <point x="41" y="59"/>
      <point x="41" y="140" type="curve"/>
      <point x="29" y="140"/>
      <point x="20" y="126"/>
      <point x="20" y="92" type="curve" smooth="yes"/>
      <point x="20" y="50"/>
      <point x="54" y="-10"/>
    </contour>
  </outline>
</glyph>
<glyph name="x" format="2">
  <advance width="315"/>
  <unicode hex="0078"/>
  <anchor x="158" y="0" name="bottom"/>
  <anchor x="158" y="536" name="top"/>
  <anchor x="295" y="536" name="topright"/>
  <outline>
    <contour>
      <point x="0" y="0" type="line"/>
      <point x="138" y="0" type="line"/>
      <point x="138" y="20" type="line"/>
      <point x="108" y="20" type="line" smooth="yes"/>
      <point x="84" y="20"/>
      <point x="78" y="22"/>
      <point x="78" y="34" type="curve" smooth="yes"/>
      <point x="78" y="44"/>
      <point x="84" y="56"/>
      <point x="96" y="89" type="curve" smooth="yes"/>
      <point x="153" y="251" type="line"/>
      <point x="219" y="97" type="line" smooth="yes"/>
      <point x="235" y="63"/>
      <point x="245" y="44"/>
      <point x="245" y="34" type="curve" smooth="yes"/>
      <point x="245" y="25"/>
      <point x="241" y="20"/>
      <point x="203" y="20" type="curve" smooth="yes"/>
      <point x="185" y="20" type="line"/>
      <point x="185" y="0" type="line"/>
      <point x="309" y="0" type="line"/>
      <point x="309" y="20" type="line"/>
      <point x="316" y="20" type="line" smooth="yes"/>
      <point x="294" y="20"/>
      <point x="283" y="23"/>
      <point x="262" y="68" type="curve" smooth="yes"/>
      <point x="165" y="287" type="line"/>
      <point x="231" y="468" type="line" smooth="yes"/>
      <point x="248" y="516"/>
      <point x="263" y="516"/>
      <point x="304" y="516" type="curve" smooth="yes"/>
      <point x="295" y="516" type="line"/>
      <point x="295" y="536" type="line"/>
      <point x="162" y="536" type="line"/>
      <point x="162" y="516" type="line"/>
      <point x="175" y="516" type="line" smooth="yes"/>
      <point x="213" y="516"/>
      <point x="216" y="511"/>
      <point x="216" y="500" type="curve" smooth="yes"/>
      <point x="216" y="490"/>
      <point x="208" y="470"/>
      <point x="196" y="437" type="curve" smooth="yes"/>
      <point x="153" y="316" type="line"/>
      <point x="98" y="441" type="line" smooth="yes"/>
      <point x="83" y="471"/>
      <point x="74" y="492"/>
      <point x="74" y="502" type="curve" smooth="yes"/>
      <point x="74" y="511"/>
      <point x="76" y="516"/>
      <point x="114" y="516" type="curve" smooth="yes"/>
      <point x="135" y="516" type="line"/>
      <point x="135" y="536" type="line"/>
      <point x="7" y="536" type="line"/>
      <point x="7" y="516" type="line"/>
      <point x="-6" y="516" type="line" smooth="yes"/>
      <point x="23" y="516"/>
      <point x="35" y="513"/>
      <point x="55" y="468" type="curve" smooth="yes"/>
      <point x="140" y="281" type="line"/>
      <point x="66" y="73" type="line" smooth="yes"/>
      <point x="47" y="23"/>
      <point x="32" y="20"/>
      <point x="-10" y="20" type="curve" smooth="yes"/>
      <point x="0" y="20" type="line"/>
    </contour>
  </outline>
</glyph>
<glyph name="asciitilde" format="2">
  <advance width="336"/>
  <unicode hex="007E"/>
  <outline>
    <contour>
      <point x="36" y="277" type="curve"/>
      <point x="62" y="277" type="line"/>
      <point x="68" y="348"/>
      <point x="76" y="410"/>
      <point x="108" y="410" type="curve" smooth="yes"/>
      <point x="112" y="410"/>
      <point x="113" y="412"/>
      <point x="154" y="349" type="curve" smooth="yes"/>
      <point x="187" y="294"/>
      <point x="198" y="279"/>
      <point x="226" y="279" type="curve" smooth="yes"/>
      <point x="284" y="279"/>
      <point x="295" y="359"/>
      <point x="301" y="434" type="curve"/>
      <point x="275" y="434" type="line"/>
      <point x="269" y="350"/>
      <point x="257" y="305"/>
      <point x="226" y="305" type="curve" smooth="yes"/>
      <point x="213" y="305"/>
      <point x="210" y="308"/>
      <point x="176" y="367" type="curve" smooth="yes"/>
      <point x="143" y="424"/>
      <point x="130" y="436"/>
      <point x="108" y="436" type="curve" smooth="yes"/>
      <point x="52" y="436"/>
      <point x="39" y="346"/>
    </contour>
  </outline>
</glyph>
<glyph name="exclamdown" format="2">
  <advance width="179"/>
  <unicode hex="00A1"/>
  <outline>
    <contour>
      <point x="97" y="372" type="line"/>
      <point x="74" y="372" type="line"/>
      <point x="71" y="-175" type="line"/>
      <point x="99" y="-175" type="line"/>
    </contour>
    <contour>
      <point x="88" y="544" type="curve" smooth="yes"/>
      <point x="75" y="544"/>
      <point x="60" y="533"/>
      <point x="60" y="505" type="curve" smooth="yes"/>
      <point x="60" y="475"/>
      <point x="75" y="464"/>
      <point x="88" y="464" type="curve" smooth="yes"/>
      <point x="106" y="464"/>
      <point x="118" y="475"/>
      <point x="118" y="505" type="curve" smooth="yes"/>
      <point x="118" y="533"/>
      <point x="106" y="544"/>
    </contour>
  </outline>
</glyph>
<glyph name="twosuperior" format="2">
  <advance width="238"/>
  <unicode hex="00B2"/>
  <outline>
    <contour>
      <point x="29" y="385" type="line"/>
      <point x="200" y="385" type="line"/>
      <point x="200" y="485" type="line"/>
      <point x="179" y="485" type="line"/>
      <point x="178" y="472" type="line" smooth="yes"/>
      <point x="178" y="435"/>
      <point x="169" y="416"/>
      <point x="163" y="416" type="curve" smooth="yes"/>
      <point x="72" y="416" type="line"/>
      <point x="117" y="530" type="line" smooth="yes"/>
      <point x="145" y="584"/>
      <point x="184" y="643"/>
      <point x="184" y="714" type="curve" smooth="yes"/>
      <point x="184" y="797"/>
      <point x="143" y="822"/>
      <point x="108" y="822" type="curve" smooth="yes"/>
      <point x="81" y="822"/>
      <point x="34" y="792"/>
      <point x="34" y="741" type="curve" smooth="yes"/>
      <point x="34" y="718"/>
      <point x="49" y="705"/>
      <point x="62" y="705" type="curve"/>
      <point x="62" y="771"/>
      <point x="83" y="797"/>
      <point x="109" y="797" type="curve" smooth="yes"/>
      <point x="135" y="797"/>
      <point x="156" y="774"/>
      <point x="156" y="714" type="curve" smooth="yes"/>
      <point x="156" y="657"/>
      <point x="119" y="584"/>
      <point x="99" y="541" type="curve" smooth="yes"/>
      <point x="29" y="398" type="line"/>
    </contour>
  </outline>
</glyph>
<glyph name="threesuperior" format="2">
  <advance width="238"/>
  <unicode hex="00B3"/>
  <outline>
    <contour>
      <point x="110" y="377" type="curve" smooth="yes"/>
      <point x="154" y="377"/>
      <point x="203" y="399"/>
      <point x="203" y="501" type="curve" smooth="yes"/>
      <point x="203" y="589"/>
      <point x="146" y="601"/>
      <point x="125" y="608" type="curve"/>
      <point x="125" y="608" type="line"/>
      <point x="157" y="614"/>
      <point x="192" y="663"/>
      <point x="192" y="726" type="curve" smooth="yes"/>
      <point x="192" y="797"/>
      <point x="155" y="819"/>
      <point x="109" y="819" type="curve" smooth="yes"/>
      <point x="66" y="819"/>
      <point x="32" y="789"/>
      <point x="32" y="746" type="curve" smooth="yes"/>
      <point x="32" y="715"/>
      <point x="45" y="701"/>
      <point x="60" y="701" type="curve"/>
      <point x="60" y="753"/>
      <point x="51" y="794"/>
      <point x="114" y="794" type="curve" smooth="yes"/>
      <point x="145" y="794"/>
      <point x="164" y="775"/>
      <point x="164" y="719" type="curve" smooth="yes"/>
      <point x="164" y="665"/>
      <point x="130" y="618"/>
      <point x="96" y="618" type="curve" smooth="yes"/>
      <point x="77" y="618" type="line"/>
      <point x="77" y="593" type="line"/>
      <point x="94" y="593" type="line" smooth="yes"/>
      <point x="143" y="593"/>
      <point x="175" y="559"/>
      <point x="175" y="499" type="curve" smooth="yes"/>
      <point x="175" y="427"/>
      <point x="145" y="402"/>
      <point x="112" y="402" type="curve" smooth="yes"/>
      <point x="58" y="402"/>
      <point x="51" y="447"/>
      <point x="51" y="488" type="curve"/>
      <point x="39" y="488"/>
      <point x="26" y="479"/>
      <point x="26" y="450" type="curve" smooth="yes"/>
      <point x="26" y="424"/>
      <point x="50" y="377"/>
    </contour>
  </outline>
</glyph>
<glyph name="acute" format="2">
  <advance width="173"/>
  <unicode hex="00B4"/>
  <outline>
    <contour>
      <point x="40" y="606" type="line"/>
      <point x="47" y="606" type="line"/>
      <point x="83" y="660"/>
      <point x="118" y="721"/>
      <point x="133" y="756" type="curve"/>
      <point x="133" y="766" type="line"/>
      <point x="87" y="766" type="line"/>
      <point x="77" y="721"/>
      <point x="71" y="692"/>
      <point x="40" y="619" type="curve"/>
    </contour>
  </outline>
</glyph>
<glyph name="cedilla" format="2">
  <advance width="198"/>
  <unicode hex="00B8"/>
  <outline>
    <contour>
      <point x="78" y="-223" type="curve" smooth="yes"/>
      <point x="132" y="-223"/>
      <point x="155" y="-184"/>
      <point x="155" y="-130" type="curve" smooth="yes"/>
      <point x="155" y="-77"/>
      <point x="128" y="-47"/>
      <point x="100" y="-39" type="curve"/>
      <point x="108" y="9" type="line"/>
      <point x="83" y="9" type="line"/>
      <point x="73" y="-58" type="line"/>
      <point x="105" y="-64"/>
      <point x="124" y="-89"/>
      <point x="124" y="-128" type="curve" smooth="yes"/>
      <point x="124" y="-173"/>
      <point x="106" y="-196"/>
      <point x="75" y="-196" type="curve" smooth="yes"/>
      <point x="70" y="-196"/>
      <point x="53" y="-193"/>
      <point x="40" y="-189" type="curve"/>
      <point x="40" y="-213" type="line"/>
      <point x="53" y="-220"/>
      <point x="64" y="-223"/>
    </contour>
  </outline>
</glyph>
<glyph name="AE" format="2">
  <advance width="550"/>
  <unicode hex="00C6"/>
  <anchor x="275" y="0" name="bottom"/>
  <anchor x="275" y="714" name="top"/>
  <outline>
    <contour>
      <point x="-1" y="0" type="line"/>
      <point x="147" y="0" type="line"/>
      <point x="147" y="20" type="line"/>
      <point x="120" y="20" type="line" smooth="yes"/>
      <point x="83" y="20"/>
      <point x="72" y="31"/>
      <point x="72" y="46" type="curve" smooth="yes"/>
      <point x="72" y="67"/>
      <point x="80" y="88"/>
      <point x="96" y="138" type="curve" smooth="yes"/>
      <point x="128" y="242" type="line"/>
      <point x="274" y="242" type="line"/>
      <point x="274" y="96" type="line" smooth="yes"/>
      <point x="274" y="31"/>
      <point x="266" y="20"/>
      <point x="220" y="20" type="curve" smooth="yes"/>
      <point x="218" y="20" type="line"/>
      <point x="218" y="0" type="line"/>
      <point x="519" y="0" type="line"/>
      <point x="521" y="165" type="line"/>
      <point x="501" y="165" type="line"/>
      <point x="498" y="104" type="line" smooth="yes"/>
      <point x="493" y="45"/>
      <point x="497" y="25"/>
      <point x="443" y="25" type="curve" smooth="yes"/>
      <point x="299" y="25" type="line"/>
      <point x="302" y="362" type="line"/>
      <point x="456" y="362" type="line"/>
      <point x="456" y="387" type="line"/>
      <point x="302" y="387" type="line"/>
      <point x="302" y="689" type="line"/>
      <point x="390" y="689" type="line" smooth="yes"/>
      <point x="478" y="689"/>
      <point x="479" y="683"/>
      <point x="482" y="575" type="curve" smooth="yes"/>
      <point x="482" y="549" type="line"/>
      <point x="502" y="549" type="line"/>
      <point x="498" y="714" type="line"/>
      <point x="202" y="714" type="line"/>
      <point x="202" y="697" type="line"/>
      <point x="252" y="694" type="line"/>
      <point x="76" y="140" type="line" smooth="yes"/>
      <point x="36" y="27"/>
      <point x="41" y="20"/>
      <point x="-5" y="20" type="curve" smooth="yes"/>
      <point x="-1" y="20" type="line"/>
    </contour>
    <contour>
      <point x="137" y="267" type="line"/>
      <point x="280" y="689" type="line"/>
      <point x="274" y="689" type="line"/>
      <point x="274" y="267" type="line"/>
    </contour>
  </outline>
</glyph>
<glyph name="multiply" format="2">
  <advance width="336"/>
  <unicode hex="00D7"/>
  <outline>
    <contour>
      <point x="72" y="155" type="line"/>
      <point x="179" y="342" type="line"/>
      <point x="286" y="155" type="line"/>
      <point x="311" y="172" type="line"/>
      <point x="196" y="367" type="line"/>
      <point x="311" y="565" type="line"/>
      <point x="287" y="580" type="line"/>
      <point x="179" y="394" type="line"/>
      <point x="71" y="580" type="line"/>
      <point x="47" y="565" type="line"/>
      <point x="162" y="367" type="line"/>
      <point x="46" y="171" type="line"/>
    </contour>
  </outline>
</glyph>
<glyph name="germandbls" format="2">
  <advance width="361"/>
  <unicode hex="00DF"/>
  <anchor x="181" y="0" name="bottom"/>
  <anchor x="181" y="755" name="top"/>
  <outline>
    <contour>
      <point x="243" y="-10" type="curve" smooth="yes"/>
      <point x="304" y="-10"/>
      <point x="333" y="42"/>
      <point x="333" y="135" type="curve" smooth="yes"/>
      <point x="333" y="189"/>
      <point x="329" y="241"/>
      <point x="265" y="290" type="curve" smooth="yes"/>
      <point x="212" y="334"/>
      <point x="197" y="381"/>
      <point x="197" y="403" type="curve" smooth="yes"/>
      <point x="197" y="453"/>
      <point x="211" y="505"/>
      <point x="256" y="505" type="curve" smooth="yes"/>
      <point x="302" y="505" type="line"/>
      <point x="301" y="665"/>
      <point x="275" y="755"/>
      <point x="189" y="755" type="curve" smooth="yes"/>
      <point x="120" y="755"/>
      <point x="82" y="696"/>
      <point x="82" y="589" type="curve" smooth="yes"/>
      <point x="82" y="536" type="line"/>
      <point x="28" y="536" type="line"/>
      <point x="28" y="511" type="line"/>
      <point x="82" y="511" type="line"/>
      <point x="82" y="109" type="line" smooth="yes"/>
      <point x="82" y="32"/>
      <point x="76" y="20"/>
      <point x="36" y="20" type="curve" smooth="yes"/>
      <point x="26" y="20" type="line"/>
      <point x="26" y="0" type="line"/>
      <point x="110" y="0" type="line"/>
      <point x="110" y="583" type="line" smooth="yes"/>
      <point x="110" y="655"/>
      <point x="122" y="730"/>
      <point x="184" y="730" type="curve" smooth="yes"/>
      <point x="256" y="730"/>
      <point x="274" y="652"/>
      <point x="274" y="530" type="curve"/>
      <point x="193" y="535"/>
      <point x="169" y="467"/>
      <point x="169" y="404" type="curve" smooth="yes"/>
      <point x="169" y="353"/>
      <point x="195" y="300"/>
      <point x="251" y="265" type="curve" smooth="yes"/>
      <point x="301" y="223"/>
      <point x="305" y="191"/>
      <point x="305" y="134" type="curve" smooth="yes"/>
      <point x="305" y="57"/>
      <point x="284" y="15"/>
      <point x="242" y="15" type="curve" smooth="yes"/>
      <point x="181" y="15"/>
      <point x="176" y="73"/>
      <point x="179" y="161" type="curve"/>
      <point x="177" y="161"/>
      <point x="162" y="161"/>
      <point x="162" y="96" type="curve" smooth="yes"/>
      <point x="162" y="46"/>
      <point x="169" y="-10"/>
    </contour>
  </outline>
</glyph>
<glyph name="oslash" format="2">
  <advance width="329"/>
  <unicode hex="00F8"/>
  <anchor x="164" y="0" name="bottom"/>
  <anchor x="164" y="536" name="top"/>
  <outline>
    <contour>
      <point x="35" y="-40" type="line"/>
      <point x="58" y="-40" type="line"/>
      <point x="86" y="30" type="line"/>
      <point x="106" y="3"/>
      <point x="132" y="-10"/>
      <point x="165" y="-10" type="curve" smooth="yes"/>
      <point x="249" y="-10"/>
      <point x="293" y="69"/>
      <point x="293" y="267" type="curve" smooth="yes"/>
      <point x="293" y="358"/>
      <point x="284" y="428"/>
      <point x="263" y="474" type="curve"/>
      <point x="303" y="576" type="line"/>
      <point x="279" y="576" type="line"/>
      <point x="249" y="498" type="line"/>
      <point x="229" y="528"/>
      <point x="202" y="542"/>
      <point x="165" y="542" type="curve" smooth="yes"/>
      <point x="72" y="542"/>
      <point x="37" y="449"/>
      <point x="37" y="267" type="curve" smooth="yes"/>
      <point x="37" y="168"/>
      <point x="48" y="98"/>
      <point x="71" y="52" type="curve"/>
    </contour>
    <contour>
      <point x="167" y="13" type="curve" smooth="yes"/>
      <point x="135" y="13"/>
      <point x="112" y="27"/>
      <point x="96" y="55" type="curve"/>
      <point x="249" y="444" type="line"/>
      <point x="262" y="401"/>
      <point x="265" y="343"/>
      <point x="265" y="267" type="curve" smooth="yes"/>
      <point x="265" y="93"/>
      <point x="240" y="13"/>
    </contour>
    <contour>
      <point x="83" y="82" type="line"/>
      <point x="69" y="124"/>
      <point x="65" y="186"/>
      <point x="65" y="267" type="curve" smooth="yes"/>
      <point x="65" y="434"/>
      <point x="87" y="517"/>
      <point x="162" y="517" type="curve" smooth="yes"/>
      <point x="197" y="517"/>
      <point x="221" y="502"/>
      <point x="237" y="472" type="curve"/>
    </contour>
  </outline>
</glyph>
<glyph name="thorn" format="2">
  <advance width="354"/>
  <unicode hex="00FE"/>
  <anchor x="177" y="-240" name="bottom"/>
  <anchor x="177" y="760" name="top"/>
  <outline>
    <contour>
      <point x="14" y="-240" type="line"/>
      <point x="152" y="-240" type="line"/>
      <point x="152" y="-220" type="line"/>
      <point x="160" y="-220" type="line" smooth="yes"/>
      <point x="103" y="-220"/>
      <point x="97" y="-213"/>
      <point x="97" y="-145" type="curve" smooth="yes"/>
      <point x="97" y="-15" type="line" smooth="yes"/>
      <point x="97" y="17"/>
      <point x="101" y="65"/>
      <point x="99" y="96" type="curve"/>
      <point x="99" y="96" type="line"/>
      <point x="115" y="37"/>
      <point x="144" y="-10"/>
      <point x="205" y="-10" type="curve" smooth="yes"/>
      <point x="273" y="-10"/>
      <point x="319" y="80"/>
      <point x="319" y="281" type="curve" smooth="yes"/>
      <point x="319" y="475"/>
      <point x="274" y="546"/>
      <point x="199" y="546" type="curve" smooth="yes"/>
      <point x="145" y="546"/>
      <point x="121" y="500"/>
      <point x="97" y="438" type="curve"/>
      <point x="95" y="438" type="line"/>
      <point x="95" y="483"/>
      <point x="97" y="529"/>
      <point x="97" y="574" type="curve" smooth="yes"/>
      <point x="97" y="760" type="line"/>
      <point x="17" y="760" type="line"/>
      <point x="17" y="740" type="line"/>
      <point x="-8" y="740" type="line" smooth="yes"/>
      <point x="69" y="740"/>
      <point x="69" y="733"/>
      <point x="69" y="666" type="curve" smooth="yes"/>
      <point x="69" y="-145" type="line" smooth="yes"/>
      <point x="69" y="-213"/>
      <point x="64" y="-220"/>
      <point x="1" y="-220" type="curve" smooth="yes"/>
      <point x="14" y="-220" type="line"/>
    </contour>
    <contour>
      <point x="202" y="15" type="curve" smooth="yes"/>
      <point x="118" y="15"/>
      <point x="97" y="121"/>
      <point x="97" y="274" type="curve" smooth="yes"/>
      <point x="97" y="440"/>
      <point x="143" y="521"/>
      <point x="199" y="521" type="curve" smooth="yes"/>
      <point x="255" y="521"/>
      <point x="291" y="449"/>
      <point x="291" y="285" type="curve" smooth="yes"/>
      <point x="291" y="127"/>
      <point x="275" y="15"/>
    </contour>
  </outline>
</glyph>
<glyph name="dcroat" format="2">
  <advance width="352"/>
  <unicode hex="0111"/>
  <anchor x="177" y="0" name="bottom"/>
  <anchor x="177" y="760" name="top"/>
  <outline>
    <contour>
      <point x="157" y="-10" type="curve" smooth="yes"/>
      <point x="201" y="-10"/>
      <point x="231" y="23"/>
      <point x="250" y="77" type="curve"/>
      <point x="252" y="77" type="line"/>
      <point x="256" y="0" type="line"/>
      <point x="340" y="0" type="line"/>
      <point x="340" y="20" type="line"/>
      <point x="337" y="20" type="line" smooth="yes"/>
      <point x="291" y="20"/>
      <point x="280" y="29"/>
      <point x="280" y="81" type="curve" smooth="yes"/>
      <point x="280" y="618" type="line"/>
      <point x="339" y="618" type="line"/>
      <point x="339" y="643" type="line"/>
      <point x="280" y="643" type="line"/>
      <point x="280" y="760" type="line"/>
      <point x="202" y="760" type="line"/>
      <point x="202" y="740" type="line"/>
      <point x="192" y="740" type="line" smooth="yes"/>
      <point x="247" y="740"/>
      <point x="252" y="734"/>
      <point x="252" y="652" type="curve" smooth="yes"/>
      <point x="252" y="643" type="line"/>
      <point x="146" y="643" type="line"/>
      <point x="146" y="618" type="line"/>
      <point x="252" y="618" type="line"/>
      <point x="252" y="550" type="line" smooth="yes"/>
      <point x="252" y="510"/>
      <point x="253" y="480"/>
      <point x="259" y="453" type="curve"/>
      <point x="255" y="453" type="line"/>
      <point x="235" y="509"/>
      <point x="213" y="550"/>
      <point x="166" y="550" type="curve" smooth="yes"/>
      <point x="103" y="550"/>
      <point x="38" y="503"/>
      <point x="38" y="272" type="curve" smooth="yes"/>
      <point x="38" y="47"/>
      <point x="86" y="-10"/>
    </contour>
    <contour>
      <point x="160" y="16" type="curve" smooth="yes"/>
      <point x="93" y="17"/>
      <point x="66" y="82"/>
      <point x="66" y="271" type="curve" smooth="yes"/>
      <point x="66" y="475"/>
      <point x="116" y="525"/>
      <point x="167" y="525" type="curve" smooth="yes"/>
      <point x="229" y="525"/>
      <point x="253" y="431"/>
      <point x="253" y="269" type="curve" smooth="yes"/>
      <point x="253" y="90"/>
      <point x="218" y="14"/>
    </contour>
  </outline>
</glyph>
<glyph name="idotless" format="2">
  <advance width="178"/>
  <unicode hex="0131"/>
  <anchor x="90" y="0" name="bottom"/>
  <anchor x="90" y="536" name="top"/>
  <outline>
    <contour>
      <point x="16" y="0" type="line"/>
      <point x="171" y="0" type="line"/>
      <point x="171" y="20" type="line"/>
      <point x="168" y="20" type="line" smooth="yes"/>
      <point x="118" y="20"/>
      <point x="111" y="27"/>
      <point x="111" y="97" type="curve" smooth="yes"/>
      <point x="111" y="536" type="line"/>
      <point x="26" y="536" type="line"/>
      <point x="26" y="516" type="line"/>
      <point x="24" y="516" type="line" smooth="yes"/>
      <point x="82" y="516"/>
      <point x="83" y="506"/>
      <point x="83" y="434" type="curve" smooth="yes"/>
      <point x="83" y="97" type="line" smooth="yes"/>
      <point x="83" y="27"/>
      <point x="76" y="20"/>
      <point x="23" y="20" type="curve" smooth="yes"/>
      <point x="16" y="20" type="line"/>
    </contour>
  </outline>
</glyph>
<glyph name="kgreenlandic" format="2">
  <advance width="328"/>
  <unicode hex="0138"/>
  <anchor x="164" y="0" name="bottom"/>
  <anchor x="164" y="536" name="top"/>
  <outline>
    <contour>
      <point x="10" y="0" type="line"/>
      <point x="146" y="0" type="line"/>
      <point x="146" y="20" type="line"/>
      <point x="151" y="20" type="line" smooth="yes"/>
      <point x="103" y="20"/>
      <point x="96" y="27"/>
      <point x="96" y="97" type="curve" smooth="yes"/>
      <point x="96" y="193" type="line"/>
      <point x="150" y="293" type="line"/>
      <point x="231" y="95" type="line" smooth="yes"/>
      <point x="262" y="11"/>
      <point x="283" y="0"/>
      <point x="330" y="0" type="curve" smooth="yes"/>
      <point x="331" y="0" type="line"/>
      <point x="331" y="20" type="line"/>
      <point x="322" y="20" type="line" smooth="yes"/>
      <point x="280" y="20"/>
      <point x="273" y="45"/>
      <point x="252" y="113" type="curve" smooth="yes"/>
      <point x="167" y="325" type="line"/>
      <point x="194" y="385" type="line" smooth="yes"/>
      <point x="266" y="502"/>
      <point x="277" y="516"/>
      <point x="302" y="516" type="curve"/>
      <point x="302" y="536" type="line"/>
      <point x="188" y="536" type="line"/>
      <point x="188" y="516" type="line"/>
      <point x="218" y="516"/>
      <point x="228" y="511"/>
      <point x="228" y="495" type="curve" smooth="yes"/>
      <point x="228" y="486"/>
      <point x="231" y="472"/>
      <point x="170" y="370" type="curve" smooth="yes"/>
      <point x="91" y="227" type="line"/>
      <point x="98" y="262"/>
      <point x="96" y="345"/>
      <point x="96" y="372" type="curve" smooth="yes"/>
      <point x="96" y="536" type="line"/>
      <point x="10" y="536" type="line"/>
      <point x="10" y="516" type="line"/>
      <point x="0" y="516" type="line" smooth="yes"/>
      <point x="63" y="516"/>
      <point x="68" y="509"/>
      <point x="68" y="439" type="curve" smooth="yes"/>
      <point x="68" y="97" type="line" smooth="yes"/>
      <point x="68" y="27"/>
      <point x="61" y="20"/>
      <point x="7" y="20" type="curve" smooth="yes"/>
      <point x="10" y="20" type="line"/>
    </contour>
  </outline>
</glyph>
<glyph name="uni0180" format="2">
  <advance width="352"/>
  <unicode hex="0180"/>
  <anchor x="177" y="0" name="bottom"/>
  <anchor x="177" y="760" name="top"/>
  <outline>
    <contour>
      <point x="206" y="-10" type="curve" smooth="yes"/>
      <point x="267" y="-10"/>
      <point x="314" y="41"/>
      <point x="314" y="270" type="curve" smooth="yes"/>
      <point x="314" y="473"/>
      <point x="273" y="551"/>
      <point x="200" y="551" type="curve" smooth="yes"/>
      <point x="141" y="551"/>
      <point x="110" y="505"/>
      <point x="94" y="451" type="curve"/>
      <point x="94" y="451" type="line"/>
      <point x="95" y="492"/>
      <point x="96" y="535"/>
      <point x="96" y="568" type="curve" smooth="yes"/>
      <point x="96" y="617" type="line"/>
      <point x="208" y="617" type="line"/>
      <point x="208" y="642" type="line"/>
      <point x="96" y="642" type="line"/>
      <point x="96" y="760" type="line"/>
      <point x="10" y="760" type="line"/>
      <point x="10" y="740" type="line"/>
      <point x="4" y="740" type="line" smooth="yes"/>
      <point x="61" y="740"/>
      <point x="68" y="734"/>
      <point x="68" y="660" type="curve" smooth="yes"/>
      <point x="68" y="642" type="line"/>
      <point x="10" y="642" type="line"/>
      <point x="10" y="617" type="line"/>
      <point x="68" y="617" type="line"/>
      <point x="68" y="82" type="line" smooth="yes"/>
      <point x="68" y="31"/>
      <point x="59" y="20"/>
      <point x="13" y="20" type="curve" smooth="yes"/>
      <point x="10" y="20" type="line"/>
      <point x="10" y="0" type="line"/>
      <point x="94" y="0" type="line"/>
      <point x="95" y="86" type="line"/>
      <point x="100" y="86" type="line"/>
      <point x="119" y="33"/>
      <point x="139" y="-10"/>
    </contour>
    <contour>
      <point x="204" y="15" type="curve" smooth="yes"/>
      <point x="145" y="15"/>
      <point x="95" y="82"/>
      <point x="95" y="271" type="curve" smooth="yes"/>
      <point x="95" y="462"/>
      <point x="138" y="526"/>
      <point x="204" y="526" type="curve" smooth="yes"/>
      <point x="261" y="526"/>
      <point x="286" y="443"/>
      <point x="286" y="272" type="curve" smooth="yes"/>
      <point x="286" y="72"/>
      <point x="254" y="15"/>
    </contour>
  </outline>
</glyph>
<glyph name="uni0181" format="2">
  <advance width="399"/>
  <unicode hex="0181"/>
  <anchor x="204" y="0" name="bottom"/>
  <anchor x="204" y="714" name="top"/>
  <outline>
    <contour>
      <point x="50" y="0" type="line"/>
      <point x="213" y="0" type="line" smooth="yes"/>
      <point x="312" y="0"/>
      <point x="354" y="63"/>
      <point x="354" y="182" type="curve" smooth="yes"/>
      <point x="354" y="324"/>
      <point x="303" y="361"/>
      <point x="265" y="380" type="curve"/>
      <point x="265" y="384" type="line"/>
      <point x="295" y="396"/>
      <point x="337" y="442"/>
      <point x="337" y="544" type="curve" smooth="yes"/>
      <point x="337" y="652"/>
      <point x="291" y="714"/>
      <point x="197" y="714" type="curve" smooth="yes"/>
      <point x="63" y="714" type="line" smooth="yes"/>
      <point x="27" y="714"/>
      <point x="2" y="680"/>
      <point x="2" y="641" type="curve" smooth="yes"/>
      <point x="2" y="611"/>
      <point x="17" y="597"/>
      <point x="34" y="597" type="curve" smooth="yes"/>
      <point x="40" y="597"/>
      <point x="47" y="598"/>
      <point x="49" y="602" type="curve"/>
      <point x="41" y="608"/>
      <point x="27" y="618"/>
      <point x="27" y="641" type="curve" smooth="yes"/>
      <point x="25" y="666"/>
      <point x="39" y="697"/>
      <point x="62" y="697" type="curve" smooth="yes"/>
      <point x="96" y="697"/>
      <point x="106" y="676"/>
      <point x="106" y="576" type="curve" smooth="yes"/>
      <point x="106" y="111" type="line" smooth="yes"/>
      <point x="106" y="31"/>
      <point x="100" y="20"/>
      <point x="48" y="20" type="curve" smooth="yes"/>
      <point x="50" y="20" type="line"/>
    </contour>
    <contour>
      <point x="134" y="25" type="line"/>
      <point x="134" y="361" type="line"/>
      <point x="214" y="361" type="line" smooth="yes"/>
      <point x="303" y="361"/>
      <point x="328" y="301"/>
      <point x="328" y="189" type="curve" smooth="yes"/>
      <point x="328" y="76"/>
      <point x="302" y="25"/>
      <point x="213" y="25" type="curve" smooth="yes"/>
    </contour>
    <contour>
      <point x="134" y="386" type="line"/>
      <point x="134" y="689" type="line"/>
      <point x="207" y="689" type="line" smooth="yes"/>
      <point x="285" y="689"/>
      <point x="311" y="627"/>
      <point x="311" y="541" type="curve" smooth="yes"/>
      <point x="311" y="456"/>
      <point x="285" y="386"/>
      <point x="197" y="386" type="curve" smooth="yes"/>
    </contour>
  </outline>
</glyph>
<glyph name="uni0183" format="2">
  <advance width="352"/>
  <unicode hex="0183"/>
  <anchor x="177" y="0" name="bottom"/>
  <anchor x="177" y="760" name="top"/>
  <outline>
    <contour>
      <point x="206" y="-10" type="curve" smooth="yes"/>
      <point x="267" y="-10"/>
      <point x="314" y="38"/>
      <point x="314" y="267" type="curve" smooth="yes"/>
      <point x="314" y="457"/>
      <point x="273" y="531"/>
      <point x="200" y="531" type="curve" smooth="yes"/>
      <point x="141" y="531"/>
      <point x="110" y="485"/>
      <point x="94" y="431" type="curve"/>
      <point x="94" y="431" type="line"/>
      <point x="95" y="472"/>
      <point x="96" y="515"/>
      <point x="96" y="548" type="curve" smooth="yes"/>
      <point x="96" y="735" type="line"/>
      <point x="245" y="735" type="line" smooth="yes"/>
      <point x="266" y="735"/>
      <point x="268" y="736"/>
      <point x="265" y="648" type="curve" smooth="yes"/>
      <point x="264" y="615" type="line"/>
      <point x="284" y="615" type="line"/>
      <point x="288" y="760" type="line"/>
      <point x="10" y="760" type="line"/>
      <point x="10" y="740" type="line"/>
      <point x="4" y="740" type="line" smooth="yes"/>
      <point x="61" y="740"/>
      <point x="68" y="734"/>
      <point x="68" y="660" type="curve" smooth="yes"/>
      <point x="68" y="82" type="line" smooth="yes"/>
      <point x="68" y="31"/>
      <point x="59" y="20"/>
      <point x="13" y="20" type="curve" smooth="yes"/>
      <point x="10" y="20" type="line"/>
      <point x="10" y="0" type="line"/>
      <point x="94" y="0" type="line"/>
      <point x="95" y="86" type="line"/>
      <point x="100" y="86" type="line"/>
      <point x="119" y="33"/>
      <point x="139" y="-10"/>
    </contour>
    <contour>
      <point x="204" y="15" type="curve" smooth="yes"/>
      <point x="145" y="15"/>
      <point x="95" y="78"/>
      <point x="95" y="267" type="curve" smooth="yes"/>
      <point x="95" y="446"/>
      <point x="138" y="506"/>
      <point x="204" y="506" type="curve" smooth="yes"/>
      <point x="261" y="506"/>
      <point x="286" y="426"/>
      <point x="286" y="268" type="curve" smooth="yes"/>
      <point x="286" y="84"/>
      <point x="254" y="15"/>
    </contour>
  </outline>
</glyph>
<glyph name="uni0193" format="2">
  <advance width="402"/>
  <unicode hex="0193"/>
  <anchor x="202" y="0" name="bottom"/>
  <anchor x="202" y="714" name="top"/>
  <outline>
    <contour>
      <point x="231" y="-10" type="curve" smooth="yes"/>
      <point x="281" y="-10"/>
      <point x="316" y="1"/>
      <point x="352" y="28" type="curve"/>
      <point x="352" y="218" type="line" smooth="yes"/>
      <point x="352" y="291"/>
      <point x="360" y="304"/>
      <point x="417" y="304" type="curve" smooth="yes"/>
      <point x="397" y="304" type="line"/>
      <point x="397" y="324" type="line"/>
      <point x="262" y="324" type="line"/>
      <point x="262" y="304" type="line"/>
      <point x="251" y="304" type="line" smooth="yes"/>
      <point x="317" y="304"/>
      <point x="324" y="292"/>
      <point x="324" y="217" type="curve" smooth="yes"/>
      <point x="324" y="39" type="line"/>
      <point x="306" y="22"/>
      <point x="272" y="15"/>
      <point x="225" y="15" type="curve" smooth="yes"/>
      <point x="105" y="15"/>
      <point x="62" y="128"/>
      <point x="62" y="358" type="curve" smooth="yes"/>
      <point x="62" y="569"/>
      <point x="119" y="699"/>
      <point x="238" y="699" type="curve" smooth="yes"/>
      <point x="307" y="699"/>
      <point x="334" y="629"/>
      <point x="334" y="564" type="curve"/>
      <point x="348" y="564"/>
      <point x="354" y="577"/>
      <point x="354" y="613" type="curve" smooth="yes"/>
      <point x="354" y="702" type="line" smooth="yes"/>
      <point x="354" y="782"/>
      <point x="373" y="809"/>
      <point x="389" y="809" type="curve" smooth="yes"/>
      <point x="408" y="809"/>
      <point x="422" y="787"/>
      <point x="412" y="753" type="curve"/>
      <point x="420" y="760"/>
      <point x="427" y="770"/>
      <point x="427" y="786" type="curve" smooth="yes"/>
      <point x="427" y="818"/>
      <point x="411" y="837"/>
      <point x="384" y="837" type="curve" smooth="yes"/>
      <point x="353" y="837"/>
      <point x="326" y="793"/>
      <point x="326" y="699" type="curve" smooth="yes"/>
      <point x="326" y="682" type="line"/>
      <point x="306" y="706"/>
      <point x="274" y="724"/>
      <point x="236" y="724" type="curve" smooth="yes"/>
      <point x="100" y="724"/>
      <point x="34" y="592"/>
      <point x="34" y="358" type="curve" smooth="yes"/>
      <point x="34" y="110"/>
      <point x="93" y="-10"/>
    </contour>
  </outline>
</glyph>
<glyph name="uni0195" format="2">
  <advance width="526"/>
  <unicode hex="0195"/>
  <anchor x="263" y="0" name="bottom"/>
  <anchor x="263" y="536" name="top"/>
  <outline>
    <contour>
      <point x="355" y="-10" type="curve" smooth="yes"/>
      <point x="454" y="-10"/>
      <point x="464" y="67"/>
      <point x="464" y="188" type="curve" smooth="yes"/>
      <point x="464" y="536" type="line"/>
      <point x="383" y="536" type="line"/>
      <point x="383" y="516" type="line"/>
      <point x="360" y="516" type="line" smooth="yes"/>
      <point x="445" y="516"/>
      <point x="436" y="509"/>
      <point x="436" y="415" type="curve" smooth="yes"/>
      <point x="436" y="172" type="line" smooth="yes"/>
      <point x="436" y="55"/>
      <point x="418" y="15"/>
      <point x="355" y="15" type="curve" smooth="yes"/>
      <point x="317" y="15"/>
      <point x="278" y="25"/>
      <point x="278" y="167" type="curve" smooth="yes"/>
      <point x="278" y="365" type="line" smooth="yes"/>
      <point x="278" y="477"/>
      <point x="240" y="542"/>
      <point x="182" y="542" type="curve" smooth="yes"/>
      <point x="142" y="542"/>
      <point x="111" y="505"/>
      <point x="95" y="462" type="curve"/>
      <point x="93" y="462" type="line"/>
      <point x="95" y="484"/>
      <point x="96" y="495"/>
      <point x="96" y="504" type="curve" smooth="yes"/>
      <point x="96" y="760" type="line"/>
      <point x="12" y="760" type="line"/>
      <point x="12" y="740" type="line"/>
      <point x="16" y="740" type="line" smooth="yes"/>
      <point x="62" y="740"/>
      <point x="68" y="728"/>
      <point x="68" y="665" type="curve" smooth="yes"/>
      <point x="68" y="97" type="line" smooth="yes"/>
      <point x="68" y="27"/>
      <point x="61" y="20"/>
      <point x="5" y="20" type="curve" smooth="yes"/>
      <point x="9" y="20" type="line"/>
      <point x="9" y="0" type="line"/>
      <point x="150" y="0" type="line"/>
      <point x="150" y="20" type="line"/>
      <point x="157" y="20" type="line" smooth="yes"/>
      <point x="103" y="20"/>
      <point x="96" y="27"/>
      <point x="96" y="97" type="curve" smooth="yes"/>
      <point x="96" y="332" type="line" smooth="yes"/>
      <point x="96" y="458"/>
      <point x="118" y="517"/>
      <point x="172" y="517" type="curve" smooth="yes"/>
      <point x="234" y="517"/>
      <point x="250" y="458"/>
      <point x="250" y="367" type="curve" smooth="yes"/>
      <point x="250" y="184" type="line" smooth="yes"/>
      <point x="250" y="33"/>
      <point x="286" y="-10"/>
    </contour>
  </outline>
</glyph>
<glyph name="uni0198" format="2">
  <advance width="405"/>
  <unicode hex="0198"/>
  <anchor x="202" y="0" name="bottom"/>
  <anchor x="202" y="714" name="top"/>
  <outline>
    <contour>
      <point x="27" y="0" type="line"/>
      <point x="180" y="0" type="line"/>
      <point x="180" y="20" type="line"/>
      <point x="167" y="20" type="line" smooth="yes"/>
      <point x="117" y="20"/>
      <point x="112" y="31"/>
      <point x="112" y="115" type="curve" smooth="yes"/>
      <point x="112" y="267" type="line"/>
      <point x="181" y="400" type="line"/>
      <point x="320" y="79" type="line" smooth="yes"/>
      <point x="348" y="8"/>
      <point x="360" y="0"/>
      <point x="403" y="0" type="curve" smooth="yes"/>
      <point x="409" y="0" type="line"/>
      <point x="409" y="17" type="line"/>
      <point x="402" y="17" type="line" smooth="yes"/>
      <point x="371" y="17"/>
      <point x="366" y="36"/>
      <point x="335" y="106" type="curve" smooth="yes"/>
      <point x="199" y="426" type="line"/>
      <point x="299" y="605" type="line" smooth="yes"/>
      <point x="331" y="664"/>
      <point x="357" y="698"/>
      <point x="382" y="698" type="curve" smooth="yes"/>
      <point x="402" y="698"/>
      <point x="406" y="683"/>
      <point x="402" y="638" type="curve"/>
      <point x="408" y="643"/>
      <point x="418" y="651"/>
      <point x="418" y="675" type="curve" smooth="yes"/>
      <point x="418" y="704"/>
      <point x="403" y="719"/>
      <point x="383" y="719" type="curve" smooth="yes"/>
      <point x="330" y="719"/>
      <point x="302" y="658"/>
      <point x="251" y="575" type="curve" smooth="yes"/>
      <point x="112" y="315" type="line"/>
      <point x="112" y="608" type="line" smooth="yes"/>
      <point x="112" y="683"/>
      <point x="119" y="694"/>
      <point x="166" y="694" type="curve" smooth="yes"/>
      <point x="181" y="694" type="line"/>
      <point x="181" y="714" type="line"/>
      <point x="27" y="714" type="line"/>
      <point x="27" y="694" type="line"/>
      <point x="29" y="694" type="line" smooth="yes"/>
      <point x="77" y="694"/>
      <point x="84" y="683"/>
      <point x="84" y="608" type="curve" smooth="yes"/>
      <point x="84" y="108" type="line" smooth="yes"/>
      <point x="84" y="31"/>
      <point x="78" y="20"/>
      <point x="29" y="20" type="curve" smooth="yes"/>
      <point x="27" y="20" type="line"/>
    </contour>
  </outline>
</glyph>
<glyph name="uni019B" format="2">
  <advance width="304"/>
  <unicode hex="019B"/>
  <anchor x="153" y="0" name="bottom"/>
  <anchor x="153" y="770" name="top"/>
  <outline>
    <contour>
      <point x="9" y="0" type="line"/>
      <point x="37" y="0" type="line"/>
      <point x="138" y="297" type="line" smooth="yes"/>
      <point x="148" y="330"/>
      <point x="163" y="376"/>
      <point x="173" y="422" type="curve"/>
      <point x="176" y="422" type="line"/>
      <point x="173" y="388"/>
      <point x="222" y="83"/>
      <point x="229" y="64" type="curve"/>
      <point x="245" y="33"/>
      <point x="255" y="0"/>
      <point x="310" y="0" type="curve" smooth="yes"/>
      <point x="305" y="0" type="line"/>
      <point x="305" y="17" type="line"/>
      <point x="301" y="17" type="line" smooth="yes"/>
      <point x="263" y="17"/>
      <point x="244" y="50"/>
      <point x="224" y="195" type="curve" smooth="yes"/>
      <point x="175" y="566" type="line" smooth="yes"/>
      <point x="173" y="591"/>
      <point x="168" y="613"/>
      <point x="165" y="634" type="curve"/>
      <point x="225" y="687" type="line"/>
      <point x="225" y="718" type="line"/>
      <point x="157" y="658" type="line"/>
      <point x="137" y="743"/>
      <point x="105" y="770"/>
      <point x="75" y="770" type="curve" smooth="yes"/>
      <point x="28" y="770"/>
      <point x="22" y="734"/>
      <point x="22" y="705" type="curve" smooth="yes"/>
      <point x="22" y="698"/>
      <point x="21" y="680"/>
      <point x="28" y="674" type="curve"/>
      <point x="25" y="703"/>
      <point x="31" y="744"/>
      <point x="67" y="745" type="curve" smooth="yes"/>
      <point x="89" y="746"/>
      <point x="117" y="740"/>
      <point x="141" y="644" type="curve"/>
      <point x="75" y="587" type="line"/>
      <point x="75" y="556" type="line"/>
      <point x="147" y="617" type="line"/>
      <point x="153" y="582"/>
      <point x="160" y="536"/>
      <point x="165" y="478" type="curve"/>
    </contour>
  </outline>
</glyph>
<glyph name="uni019E" format="2">
  <advance width="375"/>
  <unicode hex="019E"/>
  <anchor x="187" y="-240" name="bottom"/>
  <anchor x="187" y="536" name="top"/>
  <outline>
    <contour>
      <point x="216" y="-240" type="line"/>
      <point x="360" y="-240" type="line"/>
      <point x="360" y="-220" type="line"/>
      <point x="371" y="-220" type="line" smooth="yes"/>
      <point x="310" y="-220"/>
      <point x="303" y="-213"/>
      <point x="303" y="-145" type="curve" smooth="yes"/>
      <point x="303" y="367" type="line" smooth="yes"/>
      <point x="303" y="489"/>
      <point x="274" y="542"/>
      <point x="198" y="542" type="curve" smooth="yes"/>
      <point x="146" y="542"/>
      <point x="123" y="503"/>
      <point x="107" y="466" type="curve"/>
      <point x="107" y="466" type="line"/>
      <point x="104" y="536" type="line"/>
      <point x="23" y="536" type="line"/>
      <point x="23" y="516" type="line"/>
      <point x="13" y="516" type="line" smooth="yes"/>
      <point x="78" y="516"/>
      <point x="80" y="510"/>
      <point x="80" y="435" type="curve" smooth="yes"/>
      <point x="80" y="97" type="line" smooth="yes"/>
      <point x="80" y="27"/>
      <point x="74" y="20"/>
      <point x="16" y="20" type="curve" smooth="yes"/>
      <point x="21" y="20" type="line"/>
      <point x="21" y="0" type="line"/>
      <point x="166" y="0" type="line"/>
      <point x="166" y="20" type="line"/>
      <point x="169" y="20" type="line" smooth="yes"/>
      <point x="114" y="20"/>
      <point x="108" y="27"/>
      <point x="108" y="97" type="curve" smooth="yes"/>
      <point x="108" y="332" type="line" smooth="yes"/>
      <point x="108" y="496"/>
      <point x="175" y="517"/>
      <point x="201" y="517" type="curve" smooth="yes"/>
      <point x="254" y="517"/>
      <point x="275" y="459"/>
      <point x="275" y="363" type="curve" smooth="yes"/>
      <point x="275" y="-145" type="line" smooth="yes"/>
      <point x="275" y="-213"/>
      <point x="268" y="-220"/>
      <point x="206" y="-220" type="curve" smooth="yes"/>
      <point x="216" y="-220" type="line"/>
    </contour>
  </outline>
</glyph>
<glyph name="Ohorn" format="2">
  <advance width="438"/>
  <unicode hex="01A0"/>
  <anchor x="220" y="0" name="bottom"/>
  <anchor x="220" y="714" name="top"/>
  <outline>
    <contour>
      <point x="211" y="-10" type="curve" smooth="yes"/>
      <point x="310" y="-10"/>
      <point x="390" y="118"/>
      <point x="390" y="358" type="curve" smooth="yes"/>
      <point x="390" y="453"/>
      <point x="382" y="528"/>
      <point x="366" y="584" type="curve"/>
      <point x="410" y="608"/>
      <point x="433" y="646"/>
      <point x="433" y="726" type="curve" smooth="yes"/>
      <point x="433" y="752"/>
      <point x="420" y="770"/>
      <point x="403" y="770" type="curve" smooth="yes"/>
      <point x="383" y="770"/>
      <point x="373" y="755"/>
      <point x="373" y="730" type="curve" smooth="yes"/>
      <point x="373" y="707"/>
      <point x="389" y="691"/>
      <point x="389" y="672" type="curve" smooth="yes"/>
      <point x="389" y="646"/>
      <point x="391" y="634"/>
      <point x="357" y="612" type="curve"/>
      <point x="325" y="692"/>
      <point x="277" y="725"/>
      <point x="212" y="725" type="curve" smooth="yes"/>
      <point x="92" y="725"/>
      <point x="35" y="599"/>
      <point x="35" y="359" type="curve" smooth="yes"/>
      <point x="35" y="145"/>
      <point x="91" y="-10"/>
    </contour>
    <contour>
      <point x="211" y="15" type="curve" smooth="yes"/>
      <point x="114" y="15"/>
      <point x="63" y="160"/>
      <point x="63" y="358" type="curve" smooth="yes"/>
      <point x="63" y="575"/>
      <point x="104" y="700"/>
      <point x="212" y="700" type="curve" smooth="yes"/>
      <point x="323" y="700"/>
      <point x="362" y="575"/>
      <point x="362" y="358" type="curve" smooth="yes"/>
      <point x="362" y="147"/>
      <point x="304" y="15"/>
    </contour>
  </outline>
</glyph>
<glyph name="ohorn" format="2">
  <advance width="318"/>
  <unicode hex="01A1"/>
  <anchor x="159" y="0" name="bottom"/>
  <anchor x="159" y="536" name="top"/>
  <outline>
    <contour>
      <point x="165" y="-10" type="curve" smooth="yes"/>
      <point x="249" y="-10"/>
      <point x="293" y="69"/>
      <point x="293" y="267" type="curve" smooth="yes"/>
      <point x="293" y="339"/>
      <point x="286" y="398"/>
      <point x="273" y="444" type="curve"/>
      <point x="323" y="473"/>
      <point x="343" y="511"/>
      <point x="343" y="585" type="curve" smooth="yes"/>
      <point x="343" y="611"/>
      <point x="328" y="629"/>
      <point x="308" y="629" type="curve" smooth="yes"/>
      <point x="294" y="629"/>
      <point x="283" y="614"/>
      <point x="283" y="588" type="curve" smooth="yes"/>
      <point x="283" y="566"/>
      <point x="300" y="550"/>
      <point x="300" y="531" type="curve" smooth="yes"/>
      <point x="300" y="507"/>
      <point x="301" y="497"/>
      <point x="263" y="471" type="curve"/>
      <point x="243" y="518"/>
      <point x="211" y="542"/>
      <point x="165" y="542" type="curve" smooth="yes"/>
      <point x="72" y="542"/>
      <point x="37" y="449"/>
      <point x="37" y="267" type="curve" smooth="yes"/>
      <point x="37" y="74"/>
      <point x="81" y="-10"/>
    </contour>
    <contour>
      <point x="167" y="15" type="curve" smooth="yes"/>
      <point x="98" y="15"/>
      <point x="64" y="98"/>
      <point x="65" y="267" type="curve" smooth="yes"/>
      <point x="65" y="434"/>
      <point x="87" y="517"/>
      <point x="162" y="517" type="curve" smooth="yes"/>
      <point x="244" y="517"/>
      <point x="265" y="431"/>
      <point x="265" y="267" type="curve" smooth="yes"/>
      <point x="265" y="95"/>
      <point x="240" y="15"/>
    </contour>
  </outline>
</glyph>
<glyph name="uni01AA" format="2">
  <advance width="163"/>
  <unicode hex="01AA"/>
  <anchor x="81" y="-240" name="bottom"/>
  <anchor x="81" y="762" name="top"/>
  <outline>
    <contour>
      <point x="138" y="-240" type="curve" smooth="yes"/>
      <point x="159" y="-240"/>
      <point x="171" y="-236"/>
      <point x="184" y="-229" type="curve"/>
      <point x="184" y="-204" type="line"/>
      <point x="170" y="-211"/>
      <point x="161" y="-215"/>
      <point x="142" y="-215" type="curve" smooth="yes"/>
      <point x="111" y="-215"/>
      <point x="95" y="-188"/>
      <point x="95" y="-112" type="curve" smooth="yes"/>
      <point x="95" y="659" type="line" smooth="yes"/>
      <point x="95" y="734"/>
      <point x="68" y="762"/>
      <point x="29" y="762" type="curve" smooth="yes"/>
      <point x="-5" y="762"/>
      <point x="-34" y="724"/>
      <point x="-34" y="652" type="curve" smooth="yes"/>
      <point x="-34" y="591"/>
      <point x="-17" y="540"/>
      <point x="27" y="540" type="curve" smooth="yes"/>
      <point x="49" y="540"/>
      <point x="64" y="554"/>
      <point x="67" y="567" type="curve"/>
      <point x="67" y="-110" type="line" smooth="yes"/>
      <point x="67" y="-198"/>
      <point x="86" y="-240"/>
    </contour>
    <contour>
      <point x="27" y="565" type="curve" smooth="yes"/>
      <point x="-5" y="565"/>
      <point x="-6" y="607"/>
      <point x="-6" y="652" type="curve" smooth="yes"/>
      <point x="-6" y="707"/>
      <point x="3" y="737"/>
      <point x="29" y="737" type="curve" smooth="yes"/>
      <point x="48" y="737"/>
      <point x="67" y="721"/>
      <point x="67" y="659" type="curve" smooth="yes"/>
      <point x="67" y="595"/>
      <point x="54" y="565"/>
    </contour>
  </outline>
</glyph>
<glyph name="uhorn" format="2">
  <advance width="350"/>
  <unicode hex="01B0"/>
  <anchor x="176" y="0" name="bottom"/>
  <anchor x="176" y="536" name="top"/>
  <outline>
    <contour>
      <point x="171" y="-10" type="curve" smooth="yes"/>
      <point x="212" y="-10"/>
      <point x="240" y="15"/>
      <point x="264" y="68" type="curve"/>
      <point x="268" y="68" type="line"/>
      <point x="270" y="0" type="line"/>
      <point x="349" y="0" type="line"/>
      <point x="349" y="20" type="line"/>
      <point x="367" y="20" type="line" smooth="yes"/>
      <point x="297" y="20"/>
      <point x="294" y="24"/>
      <point x="294" y="106" type="curve" smooth="yes"/>
      <point x="294" y="433" type="line"/>
      <point x="360" y="463"/>
      <point x="381" y="510"/>
      <point x="381" y="584" type="curve" smooth="yes"/>
      <point x="381" y="610"/>
      <point x="368" y="628"/>
      <point x="348" y="628" type="curve" smooth="yes"/>
      <point x="332" y="628"/>
      <point x="323" y="613"/>
      <point x="323" y="588" type="curve" smooth="yes"/>
      <point x="323" y="565"/>
      <point x="338" y="549"/>
      <point x="338" y="530" type="curve" smooth="yes"/>
      <point x="338" y="506"/>
      <point x="341" y="483"/>
      <point x="294" y="459" type="curve"/>
      <point x="294" y="536" type="line"/>
      <point x="207" y="536" type="line"/>
      <point x="207" y="516" type="line"/>
      <point x="197" y="516" type="line" smooth="yes"/>
      <point x="269" y="516"/>
      <point x="266" y="509"/>
      <point x="266" y="415" type="curve" smooth="yes"/>
      <point x="266" y="204" type="line" smooth="yes"/>
      <point x="266" y="104"/>
      <point x="240" y="15"/>
      <point x="174" y="15" type="curve" smooth="yes"/>
      <point x="130" y="15"/>
      <point x="94" y="59"/>
      <point x="94" y="184" type="curve" smooth="yes"/>
      <point x="94" y="536" type="line"/>
      <point x="10" y="536" type="line"/>
      <point x="10" y="516" type="line"/>
      <point x="-4" y="516" type="line" smooth="yes"/>
      <point x="60" y="516"/>
      <point x="66" y="511"/>
      <point x="66" y="444" type="curve" smooth="yes"/>
      <point x="66" y="184" type="line" smooth="yes"/>
      <point x="66" y="39"/>
      <point x="113" y="-10"/>
    </contour>
  </outline>
</glyph>
<glyph name="uni01B6" format="2">
  <advance width="299"/>
  <unicode hex="01B6"/>
  <anchor x="150" y="0" name="bottom"/>
  <anchor x="150" y="536" name="top"/>
  <outline>
    <contour>
      <point x="37" y="0" type="line"/>
      <point x="238" y="0" type="line"/>
      <point x="243" y="138" type="line"/>
      <point x="223" y="138" type="line"/>
      <point x="221" y="94" type="line" smooth="yes"/>
      <point x="218" y="48"/>
      <point x="218" y="25"/>
      <point x="168" y="25" type="curve" smooth="yes"/>
      <point x="68" y="25" type="line"/>
      <point x="152" y="260" type="line"/>
      <point x="234" y="260" type="line"/>
      <point x="234" y="285" type="line"/>
      <point x="160" y="285" type="line"/>
      <point x="243" y="514" type="line"/>
      <point x="243" y="536" type="line"/>
      <point x="46" y="536" type="line"/>
      <point x="38" y="420" type="line"/>
      <point x="58" y="420" type="line"/>
      <point x="60" y="437" type="line" smooth="yes"/>
      <point x="65" y="494"/>
      <point x="68" y="511"/>
      <point x="121" y="511" type="curve" smooth="yes"/>
      <point x="213" y="511" type="line"/>
      <point x="132" y="285" type="line"/>
      <point x="52" y="285" type="line"/>
      <point x="52" y="260" type="line"/>
      <point x="123" y="260" type="line"/>
      <point x="37" y="22" type="line"/>
    </contour>
  </outline>
</glyph>
<glyph name="uni01BA" format="2">
  <advance width="278"/>
  <unicode hex="01BA"/>
  <anchor x="139" y="-240" name="bottom"/>
  <anchor x="139" y="536" name="top"/>
  <outline>
    <contour>
      <point x="136" y="-240" type="curve" smooth="yes"/>
      <point x="232" y="-240"/>
      <point x="235" y="-173"/>
      <point x="235" y="-146" type="curve" smooth="yes"/>
      <point x="235" y="-136"/>
      <point x="234" y="-124"/>
      <point x="230" y="-116" type="curve"/>
      <point x="204" y="-194"/>
      <point x="179" y="-215"/>
      <point x="135" y="-215" type="curve" smooth="yes"/>
      <point x="100" y="-215"/>
      <point x="57" y="-187"/>
      <point x="57" y="-144" type="curve" smooth="yes"/>
      <point x="57" y="-103"/>
      <point x="52" y="-59"/>
      <point x="137" y="-40" type="curve" smooth="yes"/>
      <point x="278" y="-8"/>
      <point x="255" y="89"/>
      <point x="255" y="134" type="curve" smooth="yes"/>
      <point x="255" y="225"/>
      <point x="203" y="287"/>
      <point x="135" y="297" type="curve"/>
      <point x="249" y="512" type="line"/>
      <point x="249" y="536" type="line"/>
      <point x="46" y="536" type="line"/>
      <point x="45" y="430" type="line"/>
      <point x="65" y="430" type="line"/>
      <point x="64" y="443" type="line" smooth="yes"/>
      <point x="66" y="500"/>
      <point x="70" y="511"/>
      <point x="129" y="511" type="curve" smooth="yes"/>
      <point x="225" y="511" type="line"/>
      <point x="108" y="299" type="line"/>
      <point x="108" y="269" type="line"/>
      <point x="107" y="269" type="line" smooth="yes"/>
      <point x="198" y="269"/>
      <point x="227" y="207"/>
      <point x="227" y="135" type="curve" smooth="yes"/>
      <point x="227" y="100"/>
      <point x="255" y="7"/>
      <point x="144" y="-16" type="curve" smooth="yes"/>
      <point x="74" y="-30"/>
      <point x="29" y="-70"/>
      <point x="29" y="-142" type="curve" smooth="yes"/>
      <point x="29" y="-227"/>
      <point x="113" y="-240"/>
    </contour>
  </outline>
</glyph>
<glyph name="uni01BB" format="2">
  <advance width="327"/>
  <unicode hex="01BB"/>
  <anchor x="164" y="0" name="bottom"/>
  <anchor x="164" y="761" name="top"/>
  <outline>
    <contour>
      <point x="42" y="0" type="line"/>
      <point x="286" y="0" type="line"/>
      <point x="286" y="134" type="line"/>
      <point x="266" y="134" type="line"/>
      <point x="266" y="98" type="line" smooth="yes"/>
      <point x="266" y="54"/>
      <point x="258" y="30"/>
      <point x="223" y="30" type="curve" smooth="yes"/>
      <point x="73" y="30" type="line"/>
      <point x="168" y="288" type="line" smooth="yes"/>
      <point x="186" y="327"/>
      <point x="203" y="362"/>
      <point x="215" y="396" type="curve"/>
      <point x="275" y="396" type="line"/>
      <point x="275" y="421" type="line"/>
      <point x="223" y="421" type="line"/>
      <point x="244" y="479"/>
      <point x="254" y="531"/>
      <point x="254" y="592" type="curve" smooth="yes"/>
      <point x="254" y="691"/>
      <point x="217" y="761"/>
      <point x="151" y="761" type="curve" smooth="yes"/>
      <point x="86" y="761"/>
      <point x="55" y="679"/>
      <point x="55" y="624" type="curve" smooth="yes"/>
      <point x="55" y="593"/>
      <point x="55" y="583"/>
      <point x="70" y="583" type="curve"/>
      <point x="70" y="676"/>
      <point x="102" y="736"/>
      <point x="151" y="736" type="curve" smooth="yes"/>
      <point x="210" y="736"/>
      <point x="226" y="673"/>
      <point x="226" y="584" type="curve" smooth="yes"/>
      <point x="226" y="530"/>
      <point x="217" y="484"/>
      <point x="196" y="421" type="curve"/>
      <point x="47" y="421" type="line"/>
      <point x="47" y="396" type="line"/>
      <point x="187" y="396" type="line"/>
      <point x="174" y="365"/>
      <point x="159" y="331"/>
      <point x="141" y="290" type="curve" smooth="yes"/>
      <point x="42" y="22" type="line"/>
    </contour>
  </outline>
</glyph>
<glyph name="uni01BD" format="2">
  <advance width="274"/>
  <unicode hex="01BD"/>
  <anchor x="137" y="0" name="bottom"/>
  <anchor x="137" y="536" name="top"/>
  <outline>
    <contour>
      <point x="131" y="-10" type="curve" smooth="yes"/>
      <point x="201" y="-10"/>
      <point x="238" y="62"/>
      <point x="238" y="152" type="curve" smooth="yes"/>
      <point x="238" y="253"/>
      <point x="192" y="324"/>
      <point x="113" y="324" type="curve" smooth="yes"/>
      <point x="93" y="324" type="line"/>
      <point x="93" y="511" type="line"/>
      <point x="149" y="511" type="line" smooth="yes"/>
      <point x="198" y="511"/>
      <point x="207" y="502"/>
      <point x="213" y="391" type="curve" smooth="yes"/>
      <point x="212" y="401" type="line"/>
      <point x="232" y="401" type="line"/>
      <point x="224" y="536" type="line"/>
      <point x="22" y="536" type="line"/>
      <point x="22" y="516" type="line"/>
      <point x="62" y="516"/>
      <point x="65" y="508"/>
      <point x="65" y="415" type="curve" smooth="yes"/>
      <point x="65" y="299" type="line"/>
      <point x="105" y="299" type="line" smooth="yes"/>
      <point x="182" y="299"/>
      <point x="210" y="243"/>
      <point x="210" y="153" type="curve" smooth="yes"/>
      <point x="210" y="70"/>
      <point x="183" y="15"/>
      <point x="132" y="15" type="curve" smooth="yes"/>
      <point x="73" y="15"/>
      <point x="44" y="62"/>
      <point x="44" y="145" type="curve"/>
      <point x="21" y="145"/>
      <point x="20" y="124"/>
      <point x="20" y="103" type="curve" smooth="yes"/>
      <point x="20" y="61"/>
      <point x="50" y="-10"/>
    </contour>
  </outline>
</glyph>
<glyph name="uni01BE" format="2">
  <advance width="234"/>
  <unicode hex="01BE"/>
  <anchor x="118" y="0" name="bottom"/>
  <anchor x="118" y="657" name="top"/>
  <outline>
    <contour>
      <point x="107" y="-10" type="curve" smooth="yes"/>
      <point x="157" y="-10"/>
      <point x="201" y="17"/>
      <point x="201" y="115" type="curve" smooth="yes"/>
      <point x="201" y="154"/>
      <point x="202" y="197"/>
      <point x="142" y="252" type="curve" smooth="yes"/>
      <point x="97" y="292"/>
      <point x="104" y="328"/>
      <point x="105" y="406" type="curve" smooth="yes"/>
      <point x="105" y="511" type="line"/>
      <point x="187" y="511" type="line"/>
      <point x="187" y="536" type="line"/>
      <point x="105" y="536" type="line"/>
      <point x="105" y="657" type="line"/>
      <point x="85" y="657" type="line"/>
      <point x="83" y="622"/>
      <point x="91" y="583"/>
      <point x="71" y="554" type="curve" smooth="yes"/>
      <point x="65" y="541"/>
      <point x="52" y="533"/>
      <point x="29" y="529" type="curve"/>
      <point x="29" y="511" type="line"/>
      <point x="77" y="511" type="line"/>
      <point x="77" y="412" type="line" smooth="yes"/>
      <point x="75" y="322"/>
      <point x="68" y="275"/>
      <point x="132" y="221" type="curve" smooth="yes"/>
      <point x="167" y="186"/>
      <point x="173" y="153"/>
      <point x="173" y="114" type="curve" smooth="yes"/>
      <point x="173" y="34"/>
      <point x="146" y="15"/>
      <point x="109" y="15" type="curve" smooth="yes"/>
      <point x="50" y="15"/>
      <point x="33" y="65"/>
      <point x="33" y="138" type="curve"/>
      <point x="13" y="138"/>
      <point x="9" y="119"/>
      <point x="9" y="103" type="curve" smooth="yes"/>
      <point x="9" y="50"/>
      <point x="42" y="-10"/>
    </contour>
  </outline>
</glyph>
<glyph name="uni01C1" format="2">
  <advance width="335"/>
  <unicode hex="01C1"/>
  <anchor x="167" y="0" name="bottom"/>
  <anchor x="167" y="760" name="top"/>
  <outline>
    <contour>
      <point x="181" y="0" type="line"/>
      <point x="209" y="0" type="line"/>
      <point x="209" y="760" type="line"/>
      <point x="181" y="760" type="line"/>
    </contour>
    <contour>
      <point x="125" y="0" type="line"/>
      <point x="153" y="0" type="line"/>
      <point x="153" y="760" type="line"/>
      <point x="125" y="760" type="line"/>
    </contour>
  </outline>
</glyph>
<glyph name="uni01C2" format="2">
  <advance width="330"/>
  <unicode hex="01C2"/>
  <anchor x="165" y="0" name="bottom"/>
  <anchor x="165" y="760" name="top"/>
  <outline>
    <contour>
      <point x="151" y="0" type="line"/>
      <point x="179" y="0" type="line"/>
      <point x="179" y="301" type="line"/>
      <point x="298" y="301" type="line"/>
      <point x="298" y="326" type="line"/>
      <point x="179" y="326" type="line"/>
      <point x="179" y="432" type="line"/>
      <point x="298" y="432" type="line"/>
      <point x="298" y="457" type="line"/>
      <point x="179" y="457" type="line"/>
      <point x="179" y="760" type="line"/>
      <point x="151" y="760" type="line"/>
      <point x="151" y="457" type="line"/>
      <point x="30" y="457" type="line"/>
      <point x="30" y="432" type="line"/>
      <point x="151" y="432" type="line"/>
      <point x="151" y="326" type="line"/>
      <point x="30" y="326" type="line"/>
      <point x="30" y="301" type="line"/>
      <point x="151" y="301" type="line"/>
    </contour>
  </outline>
</glyph>
<glyph name="Aringacute" format="2">
  <advance width="402"/>
  <unicode hex="01FA"/>
  <anchor x="201" y="0" name="bottom"/>
  <anchor x="201" y="958" name="top"/>
  <outline>
    <contour>
      <point x="-1" y="0" type="line"/>
      <point x="128" y="0" type="line"/>
      <point x="128" y="20" type="line"/>
      <point x="122" y="20" type="line" smooth="yes"/>
      <point x="84" y="20"/>
      <point x="78" y="31"/>
      <point x="78" y="45" type="curve" smooth="yes"/>
      <point x="78" y="55"/>
      <point x="90" y="93"/>
      <point x="99" y="124" type="curve" smooth="yes"/>
      <point x="117" y="204" type="line"/>
      <point x="292" y="204" type="line"/>
      <point x="318" y="96" type="line" smooth="yes"/>
      <point x="325" y="72"/>
      <point x="331" y="52"/>
      <point x="331" y="46" type="curve" smooth="yes"/>
      <point x="331" y="25"/>
      <point x="321" y="20"/>
      <point x="283" y="20" type="curve" smooth="yes"/>
      <point x="277" y="20" type="line"/>
      <point x="277" y="0" type="line"/>
      <point x="402" y="0" type="line"/>
      <point x="402" y="20" type="line"/>
      <point x="411" y="20" type="line" smooth="yes"/>
      <point x="374" y="20"/>
      <point x="368" y="18"/>
      <point x="362" y="44" type="curve" smooth="yes"/>
      <point x="221" y="599" type="line"/>
      <point x="252" y="609"/>
      <point x="274" y="645"/>
      <point x="274" y="705" type="curve" smooth="yes"/>
      <point x="274" y="776"/>
      <point x="243" y="814"/>
      <point x="203" y="814" type="curve" smooth="yes"/>
      <point x="162" y="814"/>
      <point x="131" y="776"/>
      <point x="131" y="705" type="curve" smooth="yes"/>
      <point x="131" y="642"/>
      <point x="156" y="605"/>
      <point x="189" y="597" type="curve"/>
      <point x="64" y="110" type="line" smooth="yes"/>
      <point x="46" y="36"/>
      <point x="30" y="20"/>
      <point x="6" y="20" type="curve" smooth="yes"/>
      <point x="-1" y="20" type="line"/>
    </contour>
    <contour>
      <point x="125" y="229" type="line"/>
      <point x="170" y="413" type="line" smooth="yes"/>
      <point x="191" y="487"/>
      <point x="200" y="525"/>
      <point x="204" y="564" type="curve"/>
      <point x="212" y="532"/>
      <point x="216" y="494"/>
      <point x="244" y="398" type="curve" smooth="yes"/>
      <point x="286" y="229" type="line"/>
    </contour>
    <contour>
      <point x="204" y="623" type="curve" smooth="yes"/>
      <point x="182" y="623"/>
      <point x="161" y="641"/>
      <point x="161" y="705" type="curve" smooth="yes"/>
      <point x="161" y="772"/>
      <point x="182" y="791"/>
      <point x="204" y="791" type="curve" smooth="yes"/>
      <point x="222" y="791"/>
      <point x="244" y="772"/>
      <point x="244" y="705" type="curve" smooth="yes"/>
      <point x="244" y="641"/>
      <point x="222" y="623"/>
    </contour>
    <contour>
      <point x="191" y="829" type="line"/>
      <point x="198" y="829" type="line"/>
      <point x="227" y="871"/>
      <point x="269" y="925"/>
      <point x="277" y="948" type="curve"/>
      <point x="277" y="958" type="line"/>
      <point x="231" y="958" type="line"/>
      <point x="225" y="928"/>
      <point x="213" y="895"/>
      <point x="191" y="842" type="curve"/>
    </contour>
  </outline>
</glyph>
<glyph name="aringacute" format="2">
  <advance width="322"/>
  <unicode hex="01FB"/>
  <anchor x="161" y="0" name="bottom"/>
  <anchor x="161" y="961" name="top"/>
  <outline>
    <contour>
      <point x="124" y="-10" type="curve" smooth="yes"/>
      <point x="177" y="-10"/>
      <point x="196" y="14"/>
      <point x="220" y="82" type="curve"/>
      <point x="222" y="82" type="line"/>
      <point x="227" y="0" type="line"/>
      <point x="289" y="0" type="line"/>
      <point x="289" y="20" type="line"/>
      <point x="291" y="20" type="line" smooth="yes"/>
      <point x="263" y="20"/>
      <point x="248" y="25"/>
      <point x="248" y="98" type="curve" smooth="yes"/>
      <point x="248" y="353" type="line" smooth="yes"/>
      <point x="248" y="504"/>
      <point x="209" y="542"/>
      <point x="157" y="542" type="curve" smooth="yes"/>
      <point x="110" y="542"/>
      <point x="56" y="505"/>
      <point x="56" y="436" type="curve" smooth="yes"/>
      <point x="56" y="412"/>
      <point x="65" y="395"/>
      <point x="77" y="395" type="curve"/>
      <point x="77" y="489"/>
      <point x="116" y="517"/>
      <point x="155" y="517" type="curve" smooth="yes"/>
      <point x="187" y="517"/>
      <point x="220" y="491"/>
      <point x="220" y="371" type="curve" smooth="yes"/>
      <point x="220" y="306" type="line"/>
      <point x="170" y="303" type="line" smooth="yes"/>
      <point x="79" y="299"/>
      <point x="33" y="249"/>
      <point x="33" y="146" type="curve" smooth="yes"/>
      <point x="33" y="42"/>
      <point x="65" y="-10"/>
    </contour>
    <contour>
      <point x="124" y="15" type="curve" smooth="yes"/>
      <point x="82" y="15"/>
      <point x="61" y="64"/>
      <point x="61" y="147" type="curve" smooth="yes"/>
      <point x="61" y="230"/>
      <point x="99" y="277"/>
      <point x="174" y="280" type="curve" smooth="yes"/>
      <point x="220" y="283" type="line"/>
      <point x="220" y="205" type="line" smooth="yes"/>
      <point x="220" y="84"/>
      <point x="185" y="15"/>
    </contour>
    <contour>
      <point x="158" y="583" type="curve" smooth="yes"/>
      <point x="200" y="583"/>
      <point x="233" y="622"/>
      <point x="233" y="695" type="curve" smooth="yes"/>
      <point x="233" y="768"/>
      <point x="200" y="807"/>
      <point x="158" y="807" type="curve" smooth="yes"/>
      <point x="116" y="807"/>
      <point x="83" y="768"/>
      <point x="83" y="695" type="curve" smooth="yes"/>
      <point x="83" y="622"/>
      <point x="116" y="583"/>
    </contour>
    <contour>
      <point x="160" y="611" type="curve" smooth="yes"/>
      <point x="136" y="611"/>
      <point x="115" y="629"/>
      <point x="115" y="695" type="curve" smooth="yes"/>
      <point x="115" y="763"/>
      <point x="136" y="782"/>
      <point x="160" y="782" type="curve" smooth="yes"/>
      <point x="179" y="782"/>
      <point x="201" y="763"/>
      <point x="201" y="695" type="curve" smooth="yes"/>
      <point x="201" y="629"/>
      <point x="179" y="611"/>
    </contour>
    <contour>
      <point x="146" y="836" type="line"/>
      <point x="153" y="836" type="line"/>
      <point x="183" y="876"/>
      <point x="224" y="929"/>
      <point x="233" y="951" type="curve"/>
      <point x="233" y="961" type="line"/>
      <point x="186" y="961" type="line"/>
      <point x="180" y="933"/>
      <point x="169" y="900"/>
      <point x="146" y="849" type="curve"/>
    </contour>
  </outline>
</glyph>
<glyph name="uni0223" format="2">
  <advance width="321"/>
  <unicode hex="0223"/>
  <anchor x="161" y="0" name="bottom"/>
  <anchor x="161" y="765" name="top"/>
  <outline>
    <contour>
      <point x="156" y="-10" type="curve" smooth="yes"/>
      <point x="250" y="-10"/>
      <point x="283" y="79"/>
      <point x="283" y="237" type="curve" smooth="yes"/>
      <point x="283" y="401"/>
      <point x="236" y="436"/>
      <point x="208" y="451" type="curve"/>
      <point x="231" y="475"/>
      <point x="263" y="509"/>
      <point x="263" y="604" type="curve" smooth="yes"/>
      <point x="263" y="683"/>
      <point x="256" y="745"/>
      <point x="217" y="765" type="curve"/>
      <point x="229" y="735"/>
      <point x="235" y="677"/>
      <point x="235" y="616" type="curve" smooth="yes"/>
      <point x="235" y="512"/>
      <point x="212" y="463"/>
      <point x="159" y="463" type="curve" smooth="yes"/>
      <point x="105" y="463"/>
      <point x="85" y="514"/>
      <point x="85" y="616" type="curve" smooth="yes"/>
      <point x="85" y="677"/>
      <point x="90" y="735"/>
      <point x="100" y="765" type="curve"/>
      <point x="60" y="742"/>
      <point x="57" y="678"/>
      <point x="57" y="599" type="curve" smooth="yes"/>
      <point x="57" y="527"/>
      <point x="83" y="475"/>
      <point x="113" y="451" type="curve"/>
      <point x="64" y="426"/>
      <point x="37" y="363"/>
      <point x="37" y="237" type="curve" smooth="yes"/>
      <point x="37" y="80"/>
      <point x="64" y="-10"/>
    </contour>
    <contour>
      <point x="158" y="15" type="curve" smooth="yes"/>
      <point x="93" y="15"/>
      <point x="65" y="86"/>
      <point x="65" y="240" type="curve" smooth="yes"/>
      <point x="65" y="329"/>
      <point x="72" y="437"/>
      <point x="159" y="437" type="curve" smooth="yes"/>
      <point x="225" y="437"/>
      <point x="255" y="367"/>
      <point x="255" y="240" type="curve" smooth="yes"/>
      <point x="255" y="86"/>
      <point x="224" y="15"/>
    </contour>
  </outline>
</glyph>
<glyph name="uni0240" format="2">
  <advance width="290"/>
  <unicode hex="0240"/>
  <anchor x="146" y="-243" name="bottom"/>
  <anchor x="146" y="536" name="top"/>
  <outline>
    <contour>
      <point x="235" y="-243" type="curve" smooth="yes"/>
      <point x="279" y="-243"/>
      <point x="290" y="-199"/>
      <point x="290" y="-159" type="curve" smooth="yes"/>
      <point x="290" y="-135"/>
      <point x="281" y="-119"/>
      <point x="266" y="-117" type="curve"/>
      <point x="266" y="-196"/>
      <point x="258" y="-218"/>
      <point x="232" y="-218" type="curve" smooth="yes"/>
      <point x="196" y="-218"/>
      <point x="182" y="-155"/>
      <point x="165" y="-101" type="curve" smooth="yes"/>
      <point x="142" y="-34"/>
      <point x="135" y="7"/>
      <point x="68" y="25" type="curve"/>
      <point x="243" y="514" type="line"/>
      <point x="243" y="536" type="line"/>
      <point x="46" y="536" type="line"/>
      <point x="38" y="420" type="line"/>
      <point x="58" y="420" type="line"/>
      <point x="60" y="440" type="line" smooth="yes"/>
      <point x="64" y="497"/>
      <point x="67" y="511"/>
      <point x="98" y="511" type="curve" smooth="yes"/>
      <point x="213" y="511" type="line"/>
      <point x="37" y="22" type="line"/>
      <point x="37" y="0" type="line"/>
      <point x="45" y="0" type="line" smooth="yes"/>
      <point x="97" y="0"/>
      <point x="112" y="-33"/>
      <point x="151" y="-146" type="curve" smooth="yes"/>
      <point x="184" y="-246"/>
      <point x="211" y="-243"/>
    </contour>
  </outline>
</glyph>
<glyph name="uni0257" format="2">
  <advance width="352"/>
  <unicode hex="0257"/>
  <anchor x="177" y="0" name="bottom"/>
  <anchor x="177" y="763" name="top"/>
  <outline>
    <contour>
      <point x="156" y="-10" type="curve" smooth="yes"/>
      <point x="200" y="-10"/>
      <point x="234" y="28"/>
      <point x="250" y="84" type="curve"/>
      <point x="252" y="84" type="line"/>
      <point x="256" y="0" type="line"/>
      <point x="340" y="0" type="line"/>
      <point x="340" y="20" type="line"/>
      <point x="336" y="20" type="line" smooth="yes"/>
      <point x="291" y="20"/>
      <point x="280" y="29"/>
      <point x="280" y="81" type="curve" smooth="yes"/>
      <point x="280" y="550" type="line" smooth="yes"/>
      <point x="280" y="668"/>
      <point x="282" y="740"/>
      <point x="339" y="740" type="curve" smooth="yes"/>
      <point x="379" y="740"/>
      <point x="379" y="688"/>
      <point x="363" y="663" type="curve"/>
      <point x="383" y="662"/>
      <point x="392" y="683"/>
      <point x="392" y="704" type="curve" smooth="yes"/>
      <point x="392" y="726"/>
      <point x="381" y="763"/>
      <point x="338" y="763" type="curve" smooth="yes"/>
      <point x="276" y="763"/>
      <point x="252" y="698"/>
      <point x="252" y="547" type="curve" smooth="yes"/>
      <point x="252" y="545" type="line" smooth="yes"/>
      <point x="252" y="505"/>
      <point x="253" y="475"/>
      <point x="259" y="448" type="curve"/>
      <point x="255" y="448" type="line"/>
      <point x="235" y="503"/>
      <point x="213" y="545"/>
      <point x="166" y="545" type="curve" smooth="yes"/>
      <point x="103" y="545"/>
      <point x="38" y="498"/>
      <point x="38" y="267" type="curve" smooth="yes"/>
      <point x="38" y="41"/>
      <point x="85" y="-10"/>
    </contour>
    <contour>
      <point x="160" y="16" type="curve" smooth="yes"/>
      <point x="93" y="17"/>
      <point x="66" y="76"/>
      <point x="66" y="266" type="curve" smooth="yes"/>
      <point x="66" y="469"/>
      <point x="116" y="520"/>
      <point x="167" y="520" type="curve" smooth="yes"/>
      <point x="229" y="520"/>
      <point x="253" y="427"/>
      <point x="253" y="265" type="curve" smooth="yes"/>
      <point x="253" y="98"/>
      <point x="218" y="14"/>
    </contour>
  </outline>
</glyph>
<glyph name="uni0260" format="2">
  <advance width="352"/>
  <unicode hex="0260"/>
  <anchor x="177" y="-243" name="bottom"/>
  <anchor x="177" y="763" name="top"/>
  <outline>
    <contour>
      <point x="169" y="-243" type="curve" smooth="yes"/>
      <point x="227" y="-243"/>
      <point x="280" y="-217"/>
      <point x="280" y="12" type="curve" smooth="yes"/>
      <point x="280" y="550" type="line" smooth="yes"/>
      <point x="280" y="668"/>
      <point x="282" y="740"/>
      <point x="339" y="740" type="curve" smooth="yes"/>
      <point x="378" y="740"/>
      <point x="379" y="700"/>
      <point x="363" y="663" type="curve"/>
      <point x="383" y="662"/>
      <point x="392" y="681"/>
      <point x="392" y="703" type="curve" smooth="yes"/>
      <point x="392" y="738"/>
      <point x="373" y="763"/>
      <point x="338" y="763" type="curve" smooth="yes"/>
      <point x="276" y="763"/>
      <point x="252" y="698"/>
      <point x="252" y="547" type="curve" smooth="yes"/>
      <point x="252" y="584" type="line" smooth="yes"/>
      <point x="252" y="528"/>
      <point x="254" y="484"/>
      <point x="254" y="423" type="curve"/>
      <point x="250" y="423" type="line"/>
      <point x="247" y="483"/>
      <point x="214" y="546"/>
      <point x="154" y="546" type="curve" smooth="yes"/>
      <point x="71" y="546"/>
      <point x="38" y="440"/>
      <point x="38" y="275" type="curve" smooth="yes"/>
      <point x="38" y="88"/>
      <point x="76" y="3"/>
      <point x="156" y="3" type="curve" smooth="yes"/>
      <point x="214" y="3"/>
      <point x="243" y="71"/>
      <point x="254" y="108" type="curve"/>
      <point x="256" y="108" type="line"/>
      <point x="255" y="55"/>
      <point x="252" y="23"/>
      <point x="252" y="-22" type="curve" smooth="yes"/>
      <point x="252" y="6" type="line" smooth="yes"/>
      <point x="253" y="-248"/>
      <point x="167" y="-218"/>
      <point x="167" y="-218" type="curve" smooth="yes"/>
      <point x="117" y="-218"/>
      <point x="74" y="-179"/>
      <point x="74" y="-111" type="curve"/>
      <point x="66" y="-111"/>
      <point x="61" y="-136"/>
      <point x="61" y="-156" type="curve" smooth="yes"/>
      <point x="61" y="-197"/>
      <point x="101" y="-243"/>
    </contour>
    <contour>
      <point x="153" y="28" type="curve" smooth="yes"/>
      <point x="91" y="28"/>
      <point x="66" y="100"/>
      <point x="66" y="276" type="curve" smooth="yes"/>
      <point x="66" y="416"/>
      <point x="79" y="521"/>
      <point x="155" y="521" type="curve" smooth="yes"/>
      <point x="220" y="521"/>
      <point x="254" y="421"/>
      <point x="254" y="274" type="curve" smooth="yes"/>
      <point x="254" y="175"/>
      <point x="254" y="28"/>
    </contour>
  </outline>
</glyph>
<glyph name="uni0261" format="2">
  <advance width="350"/>
  <unicode hex="0261"/>
  <anchor x="175" y="-243" name="bottom"/>
  <anchor x="175" y="536" name="top"/>
  <outline>
    <contour>
      <point x="169" y="-243" type="curve" smooth="yes"/>
      <point x="257" y="-243"/>
      <point x="280" y="-178"/>
      <point x="280" y="5" type="curve" smooth="yes"/>
      <point x="280" y="439" type="line" smooth="yes"/>
      <point x="280" y="509"/>
      <point x="286" y="516"/>
      <point x="344" y="516" type="curve" smooth="yes"/>
      <point x="336" y="516" type="line"/>
      <point x="336" y="536" type="line"/>
      <point x="256" y="536" type="line"/>
      <point x="253" y="430" type="line"/>
      <point x="252" y="430" type="line"/>
      <point x="248" y="479"/>
      <point x="213" y="546"/>
      <point x="154" y="546" type="curve" smooth="yes"/>
      <point x="71" y="546"/>
      <point x="38" y="440"/>
      <point x="38" y="275" type="curve" smooth="yes"/>
      <point x="38" y="88"/>
      <point x="76" y="3"/>
      <point x="156" y="3" type="curve" smooth="yes"/>
      <point x="214" y="3"/>
      <point x="243" y="74"/>
      <point x="254" y="112" type="curve"/>
      <point x="256" y="112" type="line"/>
      <point x="255" y="58"/>
      <point x="252" y="23"/>
      <point x="252" y="-22" type="curve" smooth="yes"/>
      <point x="252" y="6" type="line" smooth="yes"/>
      <point x="253" y="-220"/>
      <point x="189" y="-218"/>
      <point x="167" y="-218" type="curve" smooth="yes"/>
      <point x="117" y="-218"/>
      <point x="74" y="-179"/>
      <point x="74" y="-111" type="curve"/>
      <point x="66" y="-111"/>
      <point x="61" y="-136"/>
      <point x="61" y="-156" type="curve" smooth="yes"/>
      <point x="61" y="-197"/>
      <point x="101" y="-243"/>
    </contour>
    <contour>
      <point x="153" y="28" type="curve" smooth="yes"/>
      <point x="91" y="28"/>
      <point x="66" y="100"/>
      <point x="66" y="276" type="curve" smooth="yes"/>
      <point x="66" y="416"/>
      <point x="79" y="521"/>
      <point x="155" y="521" type="curve" smooth="yes"/>
      <point x="220" y="521"/>
      <point x="254" y="421"/>
      <point x="254" y="274" type="curve" smooth="yes"/>
      <point x="254" y="175"/>
      <point x="254" y="28"/>
    </contour>
  </outline>
</glyph>
<glyph name="uni0262" format="2">
  <advance width="333"/>
  <unicode hex="0262"/>
  <anchor x="167" y="0" name="bottom"/>
  <anchor x="167" y="536" name="top"/>
  <outline>
    <contour>
      <point x="179" y="-12" type="curve" smooth="yes"/>
      <point x="200" y="-12"/>
      <point x="233" y="-9"/>
      <point x="263" y="21" type="curve"/>
      <point x="263" y="144" type="line" smooth="yes"/>
      <point x="263" y="236"/>
      <point x="263" y="240"/>
      <point x="333" y="240" type="curve" smooth="yes"/>
      <point x="315" y="240" type="line"/>
      <point x="315" y="260" type="line"/>
      <point x="178" y="260" type="line"/>
      <point x="178" y="240" type="line"/>
      <point x="160" y="240" type="line" smooth="yes"/>
      <point x="235" y="240"/>
      <point x="235" y="236"/>
      <point x="235" y="141" type="curve" smooth="yes"/>
      <point x="235" y="34" type="line"/>
      <point x="220" y="16"/>
      <point x="186" y="15"/>
      <point x="178" y="15" type="curve" smooth="yes"/>
      <point x="103" y="15"/>
      <point x="65" y="88"/>
      <point x="65" y="270" type="curve" smooth="yes"/>
      <point x="65" y="407"/>
      <point x="82" y="517"/>
      <point x="173" y="517" type="curve" smooth="yes"/>
      <point x="221" y="517"/>
      <point x="241" y="479"/>
      <point x="240" y="393" type="curve"/>
      <point x="253" y="393"/>
      <point x="264" y="410"/>
      <point x="264" y="439" type="curve" smooth="yes"/>
      <point x="264" y="496"/>
      <point x="240" y="542"/>
      <point x="172" y="542" type="curve" smooth="yes"/>
      <point x="70" y="542"/>
      <point x="37" y="439"/>
      <point x="37" y="270" type="curve" smooth="yes"/>
      <point x="37" y="55"/>
      <point x="97" y="-12"/>
    </contour>
  </outline>
</glyph>
<glyph name="uni0266" format="2">
  <advance width="365"/>
  <unicode hex="0266"/>
  <anchor x="183" y="0" name="bottom"/>
  <anchor x="183" y="763" name="top"/>
  <outline>
    <contour>
      <point x="9" y="0" type="line"/>
      <point x="150" y="0" type="line"/>
      <point x="150" y="20" type="line"/>
      <point x="157" y="20" type="line" smooth="yes"/>
      <point x="103" y="20"/>
      <point x="96" y="27"/>
      <point x="96" y="97" type="curve" smooth="yes"/>
      <point x="96" y="332" type="line" smooth="yes"/>
      <point x="96" y="458"/>
      <point x="120" y="517"/>
      <point x="179" y="517" type="curve" smooth="yes"/>
      <point x="247" y="517"/>
      <point x="265" y="458"/>
      <point x="265" y="367" type="curve" smooth="yes"/>
      <point x="265" y="0" type="line"/>
      <point x="346" y="0" type="line"/>
      <point x="346" y="20" type="line"/>
      <point x="345" y="20" type="line" smooth="yes"/>
      <point x="298" y="20"/>
      <point x="293" y="32"/>
      <point x="293" y="94" type="curve" smooth="yes"/>
      <point x="293" y="365" type="line" smooth="yes"/>
      <point x="293" y="477"/>
      <point x="251" y="542"/>
      <point x="189" y="542" type="curve" smooth="yes"/>
      <point x="146" y="542"/>
      <point x="113" y="505"/>
      <point x="95" y="462" type="curve"/>
      <point x="93" y="462" type="line"/>
      <point x="95" y="484"/>
      <point x="96" y="495"/>
      <point x="96" y="504" type="curve" smooth="yes"/>
      <point x="96" y="550" type="line" smooth="yes"/>
      <point x="96" y="668"/>
      <point x="98" y="740"/>
      <point x="153" y="740" type="curve" smooth="yes"/>
      <point x="195" y="740"/>
      <point x="195" y="688"/>
      <point x="179" y="663" type="curve"/>
      <point x="198" y="662"/>
      <point x="208" y="683"/>
      <point x="208" y="703" type="curve" smooth="yes"/>
      <point x="208" y="739"/>
      <point x="184" y="763"/>
      <point x="153" y="763" type="curve" smooth="yes"/>
      <point x="89" y="763"/>
      <point x="68" y="696"/>
      <point x="68" y="547" type="curve" smooth="yes"/>
      <point x="68" y="97" type="line" smooth="yes"/>
      <point x="68" y="27"/>
      <point x="61" y="20"/>
      <point x="5" y="20" type="curve" smooth="yes"/>
      <point x="9" y="20" type="line"/>
    </contour>
  </outline>
</glyph>
<glyph name="uni0273" format="2">
  <advance width="377"/>
  <unicode hex="0273"/>
  <anchor x="189" y="-240" name="bottom"/>
  <anchor x="189" y="536" name="top"/>
  <outline>
    <contour>
      <point x="362" y="-240" type="curve" smooth="yes"/>
      <point x="369" y="-240"/>
      <point x="385" y="-234"/>
      <point x="392" y="-226" type="curve"/>
      <point x="392" y="-202" type="line"/>
      <point x="380" y="-211"/>
      <point x="368" y="-215"/>
      <point x="359" y="-215" type="curve" smooth="yes"/>
      <point x="311" y="-215"/>
      <point x="303" y="-160"/>
      <point x="303" y="-86" type="curve" smooth="yes"/>
      <point x="303" y="367" type="line" smooth="yes"/>
      <point x="303" y="489"/>
      <point x="274" y="542"/>
      <point x="198" y="542" type="curve" smooth="yes"/>
      <point x="147" y="542"/>
      <point x="123" y="503"/>
      <point x="107" y="466" type="curve"/>
      <point x="107" y="466" type="line"/>
      <point x="104" y="536" type="line"/>
      <point x="23" y="536" type="line"/>
      <point x="23" y="516" type="line"/>
      <point x="12" y="516" type="line" smooth="yes"/>
      <point x="75" y="516"/>
      <point x="80" y="511"/>
      <point x="80" y="440" type="curve" smooth="yes"/>
      <point x="80" y="97" type="line" smooth="yes"/>
      <point x="80" y="27"/>
      <point x="73" y="20"/>
      <point x="17" y="20" type="curve" smooth="yes"/>
      <point x="21" y="20" type="line"/>
      <point x="21" y="0" type="line"/>
      <point x="166" y="0" type="line"/>
      <point x="166" y="20" type="line"/>
      <point x="168" y="20" type="line" smooth="yes"/>
      <point x="114" y="20"/>
      <point x="108" y="27"/>
      <point x="108" y="97" type="curve" smooth="yes"/>
      <point x="108" y="332" type="line" smooth="yes"/>
      <point x="108" y="496"/>
      <point x="175" y="517"/>
      <point x="201" y="517" type="curve" smooth="yes"/>
      <point x="254" y="517"/>
      <point x="275" y="459"/>
      <point x="275" y="363" type="curve" smooth="yes"/>
      <point x="275" y="-97" type="line" smooth="yes"/>
      <point x="275" y="-201"/>
      <point x="308" y="-240"/>
    </contour>
  </outline>
</glyph>
<glyph name="omegaclosed" format="2">
  <advance width="445"/>
  <unicode hex="0277"/>
  <anchor x="222" y="0" name="bottom"/>
  <anchor x="222" y="536" name="top"/>
  <outline>
    <contour>
      <point x="137" y="-10" type="curve" smooth="yes"/>
      <point x="188" y="-10"/>
      <point x="213" y="37"/>
      <point x="220" y="102" type="curve"/>
      <point x="221" y="102" type="line"/>
      <point x="228" y="37"/>
      <point x="262" y="-10"/>
      <point x="303" y="-10" type="curve" smooth="yes"/>
      <point x="364" y="-10"/>
      <point x="408" y="71"/>
      <point x="408" y="240" type="curve" smooth="yes"/>
      <point x="408" y="431"/>
      <point x="322" y="542"/>
      <point x="224" y="542" type="curve" smooth="yes"/>
      <point x="105" y="542"/>
      <point x="37" y="415"/>
      <point x="37" y="240" type="curve" smooth="yes"/>
      <point x="37" y="63"/>
      <point x="79" y="-10"/>
    </contour>
    <contour>
      <point x="136" y="15" type="curve" smooth="yes"/>
      <point x="94" y="15"/>
      <point x="65" y="82"/>
      <point x="65" y="239" type="curve" smooth="yes"/>
      <point x="65" y="380"/>
      <point x="101" y="517"/>
      <point x="221" y="517" type="curve" smooth="yes"/>
      <point x="338" y="517"/>
      <point x="380" y="382"/>
      <point x="380" y="239" type="curve" smooth="yes"/>
      <point x="380" y="82"/>
      <point x="345" y="15"/>
      <point x="304" y="15" type="curve" smooth="yes"/>
      <point x="262" y="15"/>
      <point x="245" y="73"/>
      <point x="235" y="144" type="curve"/>
      <point x="235" y="331" type="line"/>
      <point x="208" y="331" type="line"/>
      <point x="208" y="144" type="line"/>
      <point x="199" y="73"/>
      <point x="185" y="15"/>
    </contour>
  </outline>
</glyph>
<glyph name="rlongleg" format="2">
  <advance width="260"/>
  <unicode hex="027C"/>
  <anchor x="130" y="-240" name="bottom"/>
  <anchor x="130" y="536" name="top"/>
  <outline>
    <contour>
      <point x="27" y="-240" type="line"/>
      <point x="175" y="-240" type="line"/>
      <point x="175" y="-220" type="line"/>
      <point x="180" y="-220" type="line" smooth="yes"/>
      <point x="115" y="-220"/>
      <point x="109" y="-214"/>
      <point x="109" y="-145" type="curve" smooth="yes"/>
      <point x="109" y="267" type="line" smooth="yes"/>
      <point x="109" y="365"/>
      <point x="131" y="519"/>
      <point x="198" y="519" type="curve" smooth="yes"/>
      <point x="243" y="519"/>
      <point x="231" y="466"/>
      <point x="231" y="443" type="curve"/>
      <point x="248" y="443"/>
      <point x="252" y="461"/>
      <point x="252" y="488" type="curve" smooth="yes"/>
      <point x="252" y="519"/>
      <point x="242" y="544"/>
      <point x="201" y="544" type="curve" smooth="yes"/>
      <point x="143" y="544"/>
      <point x="125" y="484"/>
      <point x="110" y="442" type="curve"/>
      <point x="108" y="442" type="line"/>
      <point x="105" y="536" type="line"/>
      <point x="23" y="536" type="line"/>
      <point x="23" y="516" type="line"/>
      <point x="13" y="516" type="line" smooth="yes"/>
      <point x="75" y="516"/>
      <point x="81" y="511"/>
      <point x="81" y="439" type="curve" smooth="yes"/>
      <point x="81" y="-145" type="line" smooth="yes"/>
      <point x="81" y="-214"/>
      <point x="77" y="-220"/>
      <point x="12" y="-220" type="curve" smooth="yes"/>
      <point x="27" y="-220" type="line"/>
    </contour>
  </outline>
</glyph>
<glyph name="uni027E" format="2">
  <advance width="243"/>
  <unicode hex="027E"/>
  <anchor x="122" y="0" name="bottom"/>
  <anchor x="122" y="536" name="top"/>
  <outline>
    <contour>
      <point x="26" y="0" type="line"/>
      <point x="155" y="0" type="line"/>
      <point x="155" y="20" type="line"/>
      <point x="170" y="20" type="line" smooth="yes"/>
      <point x="107" y="20"/>
      <point x="101" y="26"/>
      <point x="101" y="97" type="curve" smooth="yes"/>
      <point x="101" y="376" type="line" smooth="yes"/>
      <point x="101" y="458"/>
      <point x="121" y="518"/>
      <point x="177" y="518" type="curve" smooth="yes"/>
      <point x="226" y="518"/>
      <point x="216" y="473"/>
      <point x="216" y="450" type="curve"/>
      <point x="232" y="450"/>
      <point x="235" y="468"/>
      <point x="235" y="486" type="curve" smooth="yes"/>
      <point x="235" y="519"/>
      <point x="221" y="543"/>
      <point x="174" y="543" type="curve" smooth="yes"/>
      <point x="108" y="543"/>
      <point x="73" y="483"/>
      <point x="73" y="378" type="curve" smooth="yes"/>
      <point x="73" y="97" type="line" smooth="yes"/>
      <point x="73" y="26"/>
      <point x="69" y="20"/>
      <point x="7" y="20" type="curve" smooth="yes"/>
      <point x="26" y="20" type="line"/>
    </contour>
  </outline>
</glyph>
<glyph name="uni0282" format="2">
  <advance width="253"/>
  <unicode hex="0282"/>
  <anchor x="126" y="-197" name="bottom"/>
  <anchor x="126" y="536" name="top"/>
  <outline>
    <contour>
      <point x="82" y="-197" type="curve" smooth="yes"/>
      <point x="107" y="-197"/>
      <point x="124" y="-180"/>
      <point x="124" y="-145" type="curve" smooth="yes"/>
      <point x="124" y="-128"/>
      <point x="119" y="-121"/>
      <point x="116" y="-111" type="curve"/>
      <point x="120" y="-152"/>
      <point x="104" y="-169"/>
      <point x="84" y="-169" type="curve" smooth="yes"/>
      <point x="58" y="-169"/>
      <point x="52" y="-141"/>
      <point x="52" y="-59" type="curve" smooth="yes"/>
      <point x="52" y="13" type="line"/>
      <point x="66" y="-1"/>
      <point x="88" y="-10"/>
      <point x="116" y="-10" type="curve" smooth="yes"/>
      <point x="187" y="-10"/>
      <point x="225" y="37"/>
      <point x="225" y="123" type="curve" smooth="yes"/>
      <point x="225" y="181"/>
      <point x="205" y="237"/>
      <point x="143" y="283" type="curve" smooth="yes"/>
      <point x="90" y="327"/>
      <point x="71" y="370"/>
      <point x="71" y="419" type="curve" smooth="yes"/>
      <point x="71" y="471"/>
      <point x="86" y="515"/>
      <point x="133" y="515" type="curve" smooth="yes"/>
      <point x="183" y="515"/>
      <point x="202" y="470"/>
      <point x="202" y="406" type="curve"/>
      <point x="221" y="406"/>
      <point x="221" y="420"/>
      <point x="221" y="451" type="curve" smooth="yes"/>
      <point x="221" y="516"/>
      <point x="174" y="540"/>
      <point x="131" y="540" type="curve" smooth="yes"/>
      <point x="76" y="540"/>
      <point x="43" y="493"/>
      <point x="43" y="420" type="curve" smooth="yes"/>
      <point x="43" y="359"/>
      <point x="64" y="319"/>
      <point x="121" y="264" type="curve" smooth="yes"/>
      <point x="183" y="216"/>
      <point x="197" y="170"/>
      <point x="197" y="127" type="curve" smooth="yes"/>
      <point x="197" y="41"/>
      <point x="166" y="15"/>
      <point x="117" y="15" type="curve" smooth="yes"/>
      <point x="60" y="15"/>
      <point x="41" y="63"/>
      <point x="41" y="143" type="curve"/>
      <point x="29" y="143"/>
      <point x="23" y="131"/>
      <point x="23" y="94" type="curve" smooth="yes"/>
      <point x="23" y="-55" type="line" smooth="yes"/>
      <point x="23" y="-169"/>
      <point x="47" y="-197"/>
    </contour>
  </outline>
</glyph>
<glyph name="eshsquatreversed" format="2">
  <advance width="151"/>
  <unicode hex="0285"/>
  <anchor x="75" y="-243" name="bottom"/>
  <anchor x="75" y="536" name="top"/>
  <outline>
    <contour>
      <point x="132" y="-243" type="curve" smooth="yes"/>
      <point x="159" y="-243"/>
      <point x="189" y="-220"/>
      <point x="189" y="-188" type="curve" smooth="yes"/>
      <point x="189" y="-177"/>
      <point x="184" y="-163"/>
      <point x="168" y="-163" type="curve"/>
      <point x="168" y="-184"/>
      <point x="167" y="-218"/>
      <point x="132" y="-218" type="curve" smooth="yes"/>
      <point x="103" y="-218"/>
      <point x="90" y="-178"/>
      <point x="90" y="-69" type="curve" smooth="yes"/>
      <point x="90" y="357" type="line" smooth="yes"/>
      <point x="90" y="468"/>
      <point x="84" y="544"/>
      <point x="19" y="544" type="curve" smooth="yes"/>
      <point x="-3" y="544"/>
      <point x="-37" y="530"/>
      <point x="-37" y="493" type="curve" smooth="yes"/>
      <point x="-37" y="482"/>
      <point x="-31" y="468"/>
      <point x="-16" y="468" type="curve"/>
      <point x="-16" y="480"/>
      <point x="-14" y="519"/>
      <point x="17" y="519" type="curve" smooth="yes"/>
      <point x="45" y="519"/>
      <point x="62" y="481"/>
      <point x="62" y="382" type="curve" smooth="yes"/>
      <point x="62" y="-52" type="line" smooth="yes"/>
      <point x="62" y="-177"/>
      <point x="74" y="-243"/>
    </contour>
  </outline>
</glyph>
<glyph name="eshcurl" format="2">
  <advance width="161"/>
  <unicode hex="0286"/>
  <anchor x="80" y="-240" name="bottom"/>
  <anchor x="80" y="763" name="top"/>
  <outline>
    <contour>
      <point x="38" y="-240" type="curve" smooth="yes"/>
      <point x="76" y="-240"/>
      <point x="104" y="-214"/>
      <point x="99" y="-77" type="curve"/>
      <point x="116" y="-108"/>
      <point x="125" y="-152"/>
      <point x="129" y="-175" type="curve"/>
      <point x="152" y="-170" type="line"/>
      <point x="140" y="-113"/>
      <point x="121" y="-63"/>
      <point x="99" y="-41" type="curve"/>
      <point x="99" y="-30"/>
      <point x="99" y="-24"/>
      <point x="99" y="-14" type="curve" smooth="yes"/>
      <point x="99" y="601" type="line" smooth="yes"/>
      <point x="99" y="700"/>
      <point x="116" y="738"/>
      <point x="147" y="738" type="curve" smooth="yes"/>
      <point x="175" y="738"/>
      <point x="176" y="699"/>
      <point x="176" y="687" type="curve"/>
      <point x="192" y="687"/>
      <point x="197" y="701"/>
      <point x="197" y="712" type="curve" smooth="yes"/>
      <point x="197" y="745"/>
      <point x="169" y="763"/>
      <point x="145" y="763" type="curve" smooth="yes"/>
      <point x="78" y="763"/>
      <point x="71" y="690"/>
      <point x="71" y="580" type="curve" smooth="yes"/>
      <point x="71" y="-18" type="line"/>
      <point x="61" y="-12"/>
      <point x="50" y="-10"/>
      <point x="37" y="-10" type="curve" smooth="yes"/>
      <point x="-28" y="-10"/>
      <point x="-41" y="-68"/>
      <point x="-41" y="-123" type="curve" smooth="yes"/>
      <point x="-41" y="-213"/>
      <point x="1" y="-240"/>
    </contour>
    <contour>
      <point x="33" y="-216" type="curve" smooth="yes"/>
      <point x="-5" y="-216"/>
      <point x="-13" y="-171"/>
      <point x="-13" y="-124" type="curve" smooth="yes"/>
      <point x="-13" y="-85"/>
      <point x="-12" y="-34"/>
      <point x="40" y="-35" type="curve" smooth="yes"/>
      <point x="52" y="-35"/>
      <point x="61" y="-37"/>
      <point x="71" y="-45" type="curve"/>
      <point x="71" y="-65" type="line" smooth="yes"/>
      <point x="68" y="-187"/>
      <point x="63" y="-216"/>
    </contour>
  </outline>
</glyph>
<glyph name="uni0294" format="2">
  <advance width="252"/>
  <unicode hex="0294"/>
  <anchor x="126" y="0" name="bottom"/>
  <anchor x="126" y="757" name="top"/>
  <outline>
    <contour>
      <point x="47" y="0" type="line"/>
      <point x="158" y="0" type="line"/>
      <point x="158" y="20" type="line"/>
      <point x="168" y="20" type="line" smooth="yes"/>
      <point x="120" y="20"/>
      <point x="115" y="24"/>
      <point x="115" y="93" type="curve" smooth="yes"/>
      <point x="115" y="338" type="line"/>
      <point x="157" y="405"/>
      <point x="214" y="491"/>
      <point x="214" y="595" type="curve" smooth="yes"/>
      <point x="214" y="728"/>
      <point x="160" y="757"/>
      <point x="101" y="757" type="curve" smooth="yes"/>
      <point x="37" y="757"/>
      <point x="12" y="705"/>
      <point x="12" y="663" type="curve" smooth="yes"/>
      <point x="12" y="640"/>
      <point x="23" y="614"/>
      <point x="35" y="614" type="curve"/>
      <point x="33" y="667"/>
      <point x="34" y="732"/>
      <point x="104" y="732" type="curve" smooth="yes"/>
      <point x="173" y="732"/>
      <point x="186" y="682"/>
      <point x="186" y="590" type="curve" smooth="yes"/>
      <point x="186" y="499"/>
      <point x="132" y="413"/>
      <point x="87" y="343" type="curve"/>
      <point x="87" y="93" type="line" smooth="yes"/>
      <point x="87" y="27"/>
      <point x="83" y="20"/>
      <point x="40" y="20" type="curve" smooth="yes"/>
      <point x="47" y="20" type="line"/>
    </contour>
  </outline>
</glyph>
<glyph name="eopenclosed" format="2">
  <advance width="314"/>
  <unicode hex="029A"/>
  <anchor x="158" y="0" name="bottom"/>
  <anchor x="158" y="536" name="top"/>
  <outline>
    <contour>
      <point x="137" y="-10" type="curve" smooth="yes"/>
      <point x="231" y="-10"/>
      <point x="278" y="79"/>
      <point x="278" y="267" type="curve" smooth="yes"/>
      <point x="278" y="454"/>
      <point x="228" y="542"/>
      <point x="149" y="542" type="curve" smooth="yes"/>
      <point x="81" y="542"/>
      <point x="50" y="486"/>
      <point x="50" y="398" type="curve" smooth="yes"/>
      <point x="50" y="346"/>
      <point x="73" y="296"/>
      <point x="105" y="283" type="curve"/>
      <point x="105" y="282" type="line"/>
      <point x="62" y="271"/>
      <point x="38" y="227"/>
      <point x="38" y="149" type="curve" smooth="yes"/>
      <point x="38" y="47"/>
      <point x="79" y="-10"/>
    </contour>
    <contour>
      <point x="135" y="15" type="curve" smooth="yes"/>
      <point x="86" y="15"/>
      <point x="66" y="78"/>
      <point x="66" y="149" type="curve" smooth="yes"/>
      <point x="66" y="225"/>
      <point x="90" y="270"/>
      <point x="145" y="270" type="curve" smooth="yes"/>
      <point x="199" y="270" type="line"/>
      <point x="199" y="295" type="line"/>
      <point x="146" y="295" type="line" smooth="yes"/>
      <point x="97" y="295"/>
      <point x="78" y="356"/>
      <point x="78" y="397" type="curve" smooth="yes"/>
      <point x="78" y="474"/>
      <point x="102" y="517"/>
      <point x="149" y="517" type="curve" smooth="yes"/>
      <point x="204" y="517"/>
      <point x="249" y="441"/>
      <point x="250" y="267" type="curve" smooth="yes"/>
      <point x="250" y="120"/>
      <point x="224" y="15"/>
    </contour>
  </outline>
</glyph>
<glyph name="uni02A1" format="2">
  <advance width="252"/>
  <unicode hex="02A1"/>
  <anchor x="126" y="0" name="bottom"/>
  <anchor x="126" y="757" name="top"/>
  <outline>
    <contour>
      <point x="34" y="204" type="line"/>
      <point x="158" y="204" type="line"/>
      <point x="158" y="229" type="line"/>
      <point x="34" y="229" type="line"/>
    </contour>
    <component base="uni0294"/>
  </outline>
</glyph>
<glyph name="uni02A4" format="2">
  <advance width="547"/>
  <unicode hex="02A4"/>
  <anchor x="273" y="-241" name="bottom"/>
  <anchor x="273" y="760" name="top"/>
  <outline>
    <contour>
      <point x="374" y="-241" type="curve" smooth="yes"/>
      <point x="453" y="-241"/>
      <point x="512" y="-185"/>
      <point x="512" y="-2" type="curve" smooth="yes"/>
      <point x="512" y="159"/>
      <point x="458" y="217"/>
      <point x="365" y="221" type="curve"/>
      <point x="496" y="511" type="line"/>
      <point x="496" y="536" type="line"/>
      <point x="280" y="536" type="line"/>
      <point x="280" y="760" type="line"/>
      <point x="202" y="760" type="line"/>
      <point x="202" y="740" type="line"/>
      <point x="191" y="740" type="line" smooth="yes"/>
      <point x="247" y="740"/>
      <point x="252" y="734"/>
      <point x="252" y="652" type="curve" smooth="yes"/>
      <point x="252" y="545" type="line" smooth="yes"/>
      <point x="252" y="505"/>
      <point x="253" y="475"/>
      <point x="259" y="448" type="curve"/>
      <point x="255" y="448" type="line"/>
      <point x="235" y="503"/>
      <point x="213" y="545"/>
      <point x="166" y="545" type="curve" smooth="yes"/>
      <point x="103" y="545"/>
      <point x="38" y="498"/>
      <point x="38" y="267" type="curve" smooth="yes"/>
      <point x="38" y="41"/>
      <point x="85" y="-10"/>
      <point x="156" y="-10" type="curve" smooth="yes"/>
      <point x="200" y="-10"/>
      <point x="234" y="28"/>
      <point x="250" y="85" type="curve"/>
      <point x="252" y="85" type="line"/>
      <point x="256" y="0" type="line"/>
      <point x="340" y="0" type="line"/>
      <point x="340" y="20" type="line"/>
      <point x="338" y="20" type="line" smooth="yes"/>
      <point x="291" y="20"/>
      <point x="280" y="29"/>
      <point x="280" y="81" type="curve" smooth="yes"/>
      <point x="280" y="506" type="line"/>
      <point x="466" y="506" type="line"/>
      <point x="334" y="215" type="line"/>
      <point x="334" y="197" type="line"/>
      <point x="358" y="197" type="line" smooth="yes"/>
      <point x="454" y="197"/>
      <point x="484" y="130"/>
      <point x="484" y="-5" type="curve" smooth="yes"/>
      <point x="484" y="-185"/>
      <point x="437" y="-216"/>
      <point x="374" y="-216" type="curve" smooth="yes"/>
      <point x="293" y="-216"/>
      <point x="276" y="-162"/>
      <point x="277" y="-104" type="curve"/>
      <point x="269" y="-104"/>
      <point x="264" y="-123"/>
      <point x="264" y="-149" type="curve" smooth="yes"/>
      <point x="264" y="-176"/>
      <point x="277" y="-241"/>
    </contour>
    <contour>
      <point x="160" y="16" type="curve" smooth="yes"/>
      <point x="93" y="17"/>
      <point x="66" y="76"/>
      <point x="66" y="266" type="curve" smooth="yes"/>
      <point x="66" y="469"/>
      <point x="116" y="520"/>
      <point x="167" y="520" type="curve" smooth="yes"/>
      <point x="229" y="520"/>
      <point x="253" y="427"/>
      <point x="253" y="265" type="curve" smooth="yes"/>
      <point x="253" y="97"/>
      <point x="218" y="14"/>
    </contour>
  </outline>
</glyph>
<glyph name="dzligcurl" format="2">
  <advance width="550"/>
  <unicode hex="02A5"/>
  <anchor x="279" y="0" name="bottom"/>
  <anchor x="279" y="760" name="top"/>
  <outline>
    <contour>
      <point x="397" y="-64" type="line"/>
      <point x="400" y="-40"/>
      <point x="401" y="-20"/>
      <point x="403" y="0" type="curve"/>
      <point x="433" y="0" type="line" smooth="yes"/>
      <point x="477" y="0"/>
      <point x="532" y="32"/>
      <point x="532" y="116" type="curve" smooth="yes"/>
      <point x="532" y="158"/>
      <point x="516" y="202"/>
      <point x="480" y="202" type="curve" smooth="yes"/>
      <point x="434" y="202"/>
      <point x="404" y="147"/>
      <point x="382" y="25" type="curve"/>
      <point x="316" y="25" type="line"/>
      <point x="499" y="514" type="line"/>
      <point x="499" y="536" type="line"/>
      <point x="280" y="536" type="line"/>
      <point x="280" y="760" type="line"/>
      <point x="202" y="760" type="line"/>
      <point x="202" y="740" type="line"/>
      <point x="191" y="740" type="line" smooth="yes"/>
      <point x="248" y="740"/>
      <point x="252" y="734"/>
      <point x="252" y="652" type="curve" smooth="yes"/>
      <point x="252" y="545" type="line" smooth="yes"/>
      <point x="252" y="505"/>
      <point x="253" y="475"/>
      <point x="259" y="448" type="curve"/>
      <point x="255" y="448" type="line"/>
      <point x="235" y="503"/>
      <point x="213" y="545"/>
      <point x="166" y="545" type="curve" smooth="yes"/>
      <point x="103" y="545"/>
      <point x="38" y="498"/>
      <point x="38" y="267" type="curve" smooth="yes"/>
      <point x="38" y="41"/>
      <point x="85" y="-10"/>
      <point x="156" y="-10" type="curve" smooth="yes"/>
      <point x="200" y="-10"/>
      <point x="228" y="19"/>
      <point x="250" y="77" type="curve"/>
      <point x="252" y="77" type="line"/>
      <point x="259" y="0" type="line"/>
      <point x="378" y="0" type="line"/>
      <point x="377" y="-16"/>
      <point x="375" y="-35"/>
      <point x="371" y="-55" type="curve"/>
    </contour>
    <contour>
      <point x="160" y="16" type="curve" smooth="yes"/>
      <point x="93" y="17"/>
      <point x="66" y="76"/>
      <point x="66" y="266" type="curve" smooth="yes"/>
      <point x="66" y="469"/>
      <point x="116" y="520"/>
      <point x="167" y="520" type="curve" smooth="yes"/>
      <point x="229" y="520"/>
      <point x="253" y="427"/>
      <point x="253" y="265" type="curve" smooth="yes"/>
      <point x="253" y="92"/>
      <point x="218" y="14"/>
    </contour>
    <contour>
      <point x="408" y="25" type="line"/>
      <point x="423" y="124"/>
      <point x="447" y="177"/>
      <point x="475" y="177" type="curve" smooth="yes"/>
      <point x="505" y="177"/>
      <point x="504" y="142"/>
      <point x="504" y="117" type="curve" smooth="yes"/>
      <point x="504" y="66"/>
      <point x="478" y="25"/>
      <point x="440" y="25" type="curve" smooth="yes"/>
    </contour>
    <contour>
      <point x="280" y="14" type="line"/>
      <point x="280" y="511" type="line"/>
      <point x="469" y="511" type="line"/>
    </contour>
  </outline>
</glyph>
<glyph name="tslig" format="2">
  <advance width="386"/>
  <unicode hex="02A6"/>
  <anchor x="194" y="0" name="bottom"/>
  <anchor x="194" y="657" name="top"/>
  <outline>
    <contour>
      <point x="136" y="-10" type="curve" smooth="yes"/>
      <point x="148" y="-10"/>
      <point x="172" y="-2"/>
      <point x="187" y="12" type="curve"/>
      <point x="201" y="-2"/>
      <point x="221" y="-10"/>
      <point x="249" y="-10" type="curve" smooth="yes"/>
      <point x="320" y="-10"/>
      <point x="358" y="37"/>
      <point x="358" y="123" type="curve" smooth="yes"/>
      <point x="358" y="181"/>
      <point x="338" y="237"/>
      <point x="276" y="283" type="curve" smooth="yes"/>
      <point x="223" y="327"/>
      <point x="204" y="370"/>
      <point x="204" y="419" type="curve" smooth="yes"/>
      <point x="204" y="471"/>
      <point x="219" y="516"/>
      <point x="266" y="516" type="curve" smooth="yes"/>
      <point x="316" y="516"/>
      <point x="335" y="470"/>
      <point x="335" y="406" type="curve"/>
      <point x="354" y="406"/>
      <point x="354" y="420"/>
      <point x="354" y="451" type="curve" smooth="yes"/>
      <point x="354" y="516"/>
      <point x="307" y="541"/>
      <point x="264" y="541" type="curve" smooth="yes"/>
      <point x="253" y="541"/>
      <point x="245" y="539"/>
      <point x="235" y="536" type="curve"/>
      <point x="86" y="536" type="line"/>
      <point x="86" y="657" type="line"/>
      <point x="66" y="657" type="line"/>
      <point x="65" y="622"/>
      <point x="72" y="583"/>
      <point x="52" y="554" type="curve" smooth="yes"/>
      <point x="46" y="541"/>
      <point x="33" y="533"/>
      <point x="10" y="529" type="curve"/>
      <point x="10" y="511" type="line"/>
      <point x="58" y="511" type="line"/>
      <point x="58" y="141" type="line" smooth="yes"/>
      <point x="58" y="23"/>
      <point x="82" y="-10"/>
    </contour>
    <contour>
      <point x="250" y="15" type="curve" smooth="yes"/>
      <point x="193" y="15"/>
      <point x="174" y="63"/>
      <point x="174" y="143" type="curve"/>
      <point x="162" y="143"/>
      <point x="156" y="129"/>
      <point x="156" y="91" type="curve" smooth="yes"/>
      <point x="156" y="72"/>
      <point x="161" y="49"/>
      <point x="174" y="28" type="curve"/>
      <point x="161" y="19"/>
      <point x="152" y="15"/>
      <point x="137" y="15" type="curve" smooth="yes"/>
      <point x="108" y="15"/>
      <point x="86" y="36"/>
      <point x="86" y="145" type="curve" smooth="yes"/>
      <point x="86" y="511" type="line"/>
      <point x="202" y="511" type="line"/>
      <point x="185" y="490"/>
      <point x="176" y="459"/>
      <point x="176" y="420" type="curve" smooth="yes"/>
      <point x="176" y="359"/>
      <point x="197" y="319"/>
      <point x="254" y="264" type="curve" smooth="yes"/>
      <point x="316" y="216"/>
      <point x="330" y="170"/>
      <point x="330" y="127" type="curve" smooth="yes"/>
      <point x="330" y="41"/>
      <point x="299" y="15"/>
    </contour>
  </outline>
</glyph>
<glyph name="uni02A7" format="2">
  <advance width="270"/>
  <unicode hex="02A7"/>
  <anchor x="136" y="-243" name="bottom"/>
  <anchor x="136" y="763" name="top"/>
  <outline>
    <contour>
      <point x="135" y="-243" type="curve" smooth="yes"/>
      <point x="192" y="-243"/>
      <point x="207" y="-180"/>
      <point x="207" y="-53" type="curve" smooth="yes"/>
      <point x="207" y="601" type="line" smooth="yes"/>
      <point x="207" y="700"/>
      <point x="224" y="738"/>
      <point x="255" y="738" type="curve" smooth="yes"/>
      <point x="283" y="738"/>
      <point x="284" y="699"/>
      <point x="284" y="687" type="curve"/>
      <point x="300" y="687"/>
      <point x="305" y="701"/>
      <point x="305" y="712" type="curve" smooth="yes"/>
      <point x="305" y="745"/>
      <point x="277" y="763"/>
      <point x="253" y="763" type="curve" smooth="yes"/>
      <point x="186" y="763"/>
      <point x="179" y="690"/>
      <point x="179" y="580" type="curve" smooth="yes"/>
      <point x="179" y="536" type="line"/>
      <point x="86" y="536" type="line"/>
      <point x="86" y="657" type="line"/>
      <point x="66" y="657" type="line"/>
      <point x="65" y="622"/>
      <point x="72" y="583"/>
      <point x="52" y="554" type="curve"/>
      <point x="46" y="541"/>
      <point x="33" y="533"/>
      <point x="10" y="529" type="curve"/>
      <point x="10" y="511" type="line"/>
      <point x="58" y="511" type="line"/>
      <point x="58" y="141" type="line" smooth="yes"/>
      <point x="58" y="23"/>
      <point x="82" y="-10"/>
      <point x="144" y="-10" type="curve" smooth="yes"/>
      <point x="154" y="-10"/>
      <point x="164" y="-7"/>
      <point x="179" y="-3" type="curve"/>
      <point x="179" y="-69" type="line" smooth="yes"/>
      <point x="179" y="-178"/>
      <point x="166" y="-218"/>
      <point x="137" y="-218" type="curve" smooth="yes"/>
      <point x="102" y="-218"/>
      <point x="100" y="-184"/>
      <point x="100" y="-163" type="curve"/>
      <point x="85" y="-163"/>
      <point x="79" y="-177"/>
      <point x="79" y="-188" type="curve" smooth="yes"/>
      <point x="79" y="-225"/>
      <point x="110" y="-243"/>
    </contour>
    <contour>
      <point x="141" y="15" type="curve" smooth="yes"/>
      <point x="108" y="15"/>
      <point x="86" y="36"/>
      <point x="86" y="145" type="curve" smooth="yes"/>
      <point x="86" y="511" type="line"/>
      <point x="179" y="511" type="line"/>
      <point x="179" y="23" type="line"/>
      <point x="160" y="18"/>
      <point x="157" y="15"/>
    </contour>
  </outline>
</glyph>
<glyph name="uni02AA" format="2">
  <advance width="365"/>
  <unicode hex="02AA"/>
  <anchor x="183" y="0" name="bottom"/>
  <anchor x="183" y="760" name="top"/>
  <outline>
    <contour>
      <point x="227" y="-10" type="curve" smooth="yes"/>
      <point x="299" y="-10"/>
      <point x="336" y="37"/>
      <point x="336" y="123" type="curve" smooth="yes"/>
      <point x="336" y="181"/>
      <point x="316" y="237"/>
      <point x="254" y="283" type="curve" smooth="yes"/>
      <point x="202" y="327"/>
      <point x="182" y="370"/>
      <point x="182" y="419" type="curve" smooth="yes"/>
      <point x="182" y="471"/>
      <point x="198" y="515"/>
      <point x="244" y="515" type="curve" smooth="yes"/>
      <point x="295" y="515"/>
      <point x="314" y="470"/>
      <point x="314" y="406" type="curve"/>
      <point x="332" y="406"/>
      <point x="333" y="420"/>
      <point x="333" y="451" type="curve" smooth="yes"/>
      <point x="333" y="516"/>
      <point x="286" y="540"/>
      <point x="242" y="540" type="curve" smooth="yes"/>
      <point x="187" y="540"/>
      <point x="154" y="493"/>
      <point x="154" y="420" type="curve" smooth="yes"/>
      <point x="154" y="359"/>
      <point x="175" y="318"/>
      <point x="232" y="264" type="curve"/>
      <point x="294" y="215"/>
      <point x="308" y="170"/>
      <point x="308" y="127" type="curve" smooth="yes"/>
      <point x="308" y="41"/>
      <point x="277" y="15"/>
      <point x="229" y="15" type="curve" smooth="yes"/>
      <point x="172" y="15"/>
      <point x="153" y="63"/>
      <point x="153" y="143" type="curve"/>
      <point x="141" y="143"/>
      <point x="134" y="129"/>
      <point x="134" y="91" type="curve" smooth="yes"/>
      <point x="134" y="71"/>
      <point x="141" y="41"/>
      <point x="157" y="20" type="curve"/>
      <point x="178" y="20" type="line" smooth="yes"/>
      <point x="100" y="20"/>
      <point x="97" y="24"/>
      <point x="97" y="94" type="curve" smooth="yes"/>
      <point x="97" y="760" type="line"/>
      <point x="7" y="760" type="line"/>
      <point x="7" y="740" type="line"/>
      <point x="3" y="740" type="line" smooth="yes"/>
      <point x="61" y="740"/>
      <point x="69" y="736"/>
      <point x="69" y="662" type="curve" smooth="yes"/>
      <point x="69" y="94" type="line" smooth="yes"/>
      <point x="69" y="24"/>
      <point x="66" y="20"/>
      <point x="-9" y="20" type="curve" smooth="yes"/>
      <point x="7" y="20" type="line"/>
      <point x="7" y="0" type="line"/>
      <point x="182" y="0" type="line"/>
      <point x="195" y="-6"/>
      <point x="209" y="-10"/>
    </contour>
  </outline>
</glyph>
<glyph name="uni02AE" format="2">
  <advance width="421"/>
  <unicode hex="02AE"/>
  <anchor x="210" y="-240" name="bottom"/>
  <anchor x="210" y="536" name="top"/>
  <outline>
    <contour>
      <point x="325" y="-240" type="line"/>
      <point x="410" y="-240" type="line"/>
      <point x="410" y="-220" type="line"/>
      <point x="402" y="-220" type="line" smooth="yes"/>
      <point x="361" y="-220"/>
      <point x="353" y="-208"/>
      <point x="353" y="-145" type="curve" smooth="yes"/>
      <point x="353" y="439" type="line" smooth="yes"/>
      <point x="353" y="509"/>
      <point x="360" y="516"/>
      <point x="416" y="516" type="curve" smooth="yes"/>
      <point x="412" y="516" type="line"/>
      <point x="412" y="536" type="line"/>
      <point x="271" y="536" type="line"/>
      <point x="271" y="516" type="line"/>
      <point x="264" y="516" type="line" smooth="yes"/>
      <point x="318" y="516"/>
      <point x="325" y="509"/>
      <point x="325" y="439" type="curve" smooth="yes"/>
      <point x="325" y="204" type="line" smooth="yes"/>
      <point x="325" y="78"/>
      <point x="302" y="19"/>
      <point x="242" y="19" type="curve" smooth="yes"/>
      <point x="174" y="19"/>
      <point x="156" y="78"/>
      <point x="156" y="169" type="curve" smooth="yes"/>
      <point x="156" y="383" type="line" smooth="yes"/>
      <point x="156" y="499"/>
      <point x="127" y="544"/>
      <point x="80" y="544" type="curve" smooth="yes"/>
      <point x="40" y="544"/>
      <point x="22" y="513"/>
      <point x="22" y="487" type="curve" smooth="yes"/>
      <point x="22" y="465"/>
      <point x="30" y="447"/>
      <point x="50" y="448" type="curve"/>
      <point x="39" y="488"/>
      <point x="42" y="521"/>
      <point x="81" y="521" type="curve" smooth="yes"/>
      <point x="123" y="521"/>
      <point x="128" y="470"/>
      <point x="128" y="386" type="curve" smooth="yes"/>
      <point x="128" y="171" type="line" smooth="yes"/>
      <point x="128" y="59"/>
      <point x="170" y="-6"/>
      <point x="232" y="-6" type="curve" smooth="yes"/>
      <point x="276" y="-6"/>
      <point x="308" y="31"/>
      <point x="326" y="74" type="curve"/>
      <point x="328" y="74" type="line"/>
      <point x="326" y="52"/>
      <point x="325" y="41"/>
      <point x="325" y="32" type="curve" smooth="yes"/>
    </contour>
  </outline>
</glyph>
<glyph name="uni02B9" format="2">
  <advance width="95"/>
  <unicode hex="02B9"/>
  <outline>
    <contour>
      <point x="18" y="498" type="curve"/>
      <point x="41" y="498" type="line"/>
      <point x="58" y="576"/>
      <point x="71" y="631"/>
      <point x="79" y="703" type="curve"/>
      <point x="73" y="714" type="line"/>
      <point x="33" y="714" type="line"/>
      <point x="36" y="644"/>
      <point x="27" y="585"/>
    </contour>
  </outline>
</glyph>
<glyph name="uni02C2" format="2">
  <advance width="162"/>
  <unicode hex="02C2"/>
  <outline>
    <contour>
      <point x="135" y="519" type="curve"/>
      <point x="142" y="519" type="line"/>
      <point x="142" y="553" type="line"/>
      <point x="100" y="606"/>
      <point x="105" y="627"/>
      <point x="55" y="655" type="curve"/>
      <point x="105" y="686"/>
      <point x="100" y="706"/>
      <point x="142" y="757" type="curve"/>
      <point x="142" y="791" type="line"/>
      <point x="135" y="791" type="line"/>
      <point x="102" y="732"/>
      <point x="45" y="699"/>
      <point x="17" y="677" type="curve"/>
      <point x="17" y="632" type="line"/>
      <point x="62" y="602"/>
      <point x="99" y="578"/>
    </contour>
  </outline>
</glyph>
<glyph name="circumflex" format="2">
  <advance width="231"/>
  <unicode hex="02C6"/>
  <outline>
    <contour>
      <point x="40" y="606" type="line"/>
      <point x="45" y="606" type="line"/>
      <point x="72" y="638"/>
      <point x="97" y="664"/>
      <point x="117" y="711" type="curve"/>
      <point x="134" y="664"/>
      <point x="157" y="638"/>
      <point x="185" y="606" type="curve"/>
      <point x="191" y="606" type="line"/>
      <point x="191" y="619" type="line"/>
      <point x="171" y="657"/>
      <point x="155" y="721"/>
      <point x="137" y="766" type="curve"/>
      <point x="92" y="766" type="line"/>
      <point x="78" y="721"/>
      <point x="58" y="657"/>
      <point x="40" y="619" type="curve"/>
    </contour>
  </outline>
</glyph>
<glyph name="caron" format="2">
  <advance width="231"/>
  <unicode hex="02C7"/>
  <outline>
    <contour>
      <point x="92" y="606" type="curve"/>
      <point x="137" y="606" type="line"/>
      <point x="155" y="651"/>
      <point x="171" y="715"/>
      <point x="191" y="753" type="curve"/>
      <point x="191" y="766" type="line"/>
      <point x="185" y="766" type="line"/>
      <point x="157" y="733"/>
      <point x="133" y="708"/>
      <point x="117" y="661" type="curve"/>
      <point x="97" y="708"/>
      <point x="72" y="733"/>
      <point x="45" y="766" type="curve"/>
      <point x="40" y="766" type="line"/>
      <point x="40" y="753" type="line"/>
      <point x="58" y="715"/>
      <point x="78" y="651"/>
    </contour>
  </outline>
</glyph>
<glyph name="uni02EF" format="2">
  <advance width="250"/>
  <unicode hex="02EF"/>
  <outline>
    <contour>
      <point x="103" y="-240" type="curve"/>
      <point x="147" y="-240" type="line"/>
      <point x="162" y="-168"/>
      <point x="173" y="-103"/>
      <point x="210" y="-38" type="curve"/>
      <point x="210" y="-28" type="line"/>
      <point x="186" y="-28" type="line"/>
      <point x="152" y="-86"/>
      <point x="146" y="-101"/>
      <point x="124" y="-170" type="curve"/>
      <point x="108" y="-101"/>
      <point x="98" y="-86"/>
      <point x="64" y="-28" type="curve"/>
      <point x="40" y="-28" type="line"/>
      <point x="40" y="-38" type="line"/>
      <point x="77" y="-107"/>
      <point x="85" y="-166"/>
    </contour>
  </outline>
</glyph>
<glyph name="uni02F1" format="2">
  <advance width="205"/>
  <unicode hex="02F1"/>
  <outline>
    <contour>
      <point x="159" y="-247" type="curve"/>
      <point x="165" y="-247" type="line"/>
      <point x="165" y="-203" type="line"/>
      <point x="125" y="-157"/>
      <point x="124" y="-139"/>
      <point x="71" y="-111" type="curve"/>
      <point x="124" y="-83"/>
      <point x="125" y="-65"/>
      <point x="165" y="-19" type="curve"/>
      <point x="165" y="25" type="line"/>
      <point x="159" y="25" type="line"/>
      <point x="118" y="-31"/>
      <point x="85" y="-51"/>
      <point x="40" y="-80" type="curve"/>
      <point x="40" y="-143" type="line"/>
      <point x="84" y="-171"/>
      <point x="122" y="-193"/>
    </contour>
  </outline>
</glyph>
<glyph name="uni02F2" format="2">
  <advance width="205"/>
  <unicode hex="02F2"/>
  <outline>
    <contour>
      <point x="40" y="-247" type="line"/>
      <point x="47" y="-247" type="line"/>
      <point x="87" y="-191"/>
      <point x="123" y="-171"/>
      <point x="165" y="-141" type="curve"/>
      <point x="165" y="-79" type="line"/>
      <point x="123" y="-51"/>
      <point x="89" y="-29"/>
      <point x="47" y="25" type="curve"/>
      <point x="40" y="25" type="line"/>
      <point x="40" y="-19" type="line"/>
      <point x="83" y="-65"/>
      <point x="87" y="-83"/>
      <point x="134" y="-111" type="curve"/>
      <point x="87" y="-139"/>
      <point x="83" y="-157"/>
      <point x="40" y="-203" type="curve"/>
    </contour>
  </outline>
</glyph>
<glyph name="uni02F4" format="2">
  <advance width="173"/>
  <unicode hex="02F4"/>
  <outline>
    <contour>
      <point x="125" y="291" type="curve"/>
      <point x="130" y="291" type="line"/>
      <point x="130" y="304" type="line"/>
      <point x="115" y="342"/>
      <point x="97" y="406"/>
      <point x="85" y="451" type="curve"/>
      <point x="40" y="451" type="line"/>
      <point x="40" y="443" type="line"/>
      <point x="53" y="406"/>
      <point x="97" y="324"/>
    </contour>
  </outline>
</glyph>
<glyph name="plusbelowcomb" format="2">
  <unicode hex="031F"/>
  <anchor x="0" y="0" name="_bottom"/>
  <anchor x="0" y="-230" name="bottom"/>
  <outline>
    <contour>
      <point x="-17" y="-230" type="line"/>
      <point x="14" y="-230" type="line"/>
      <point x="14" y="-160" type="line"/>
      <point x="56" y="-160" type="line"/>
      <point x="56" y="-107" type="line"/>
      <point x="15" y="-107" type="line"/>
      <point x="15" y="-37" type="line"/>
      <point x="-16" y="-37" type="line"/>
      <point x="-16" y="-107" type="line"/>
      <point x="-56" y="-107" type="line"/>
      <point x="-56" y="-160" type="line"/>
      <point x="-17" y="-160" type="line"/>
    </contour>
  </outline>
</glyph>
<glyph name="ringbelowcomb" format="2">
  <unicode hex="0325"/>
  <anchor x="2" y="0" name="_bottom"/>
  <anchor x="2" y="-288" name="bottom"/>
  <outline>
    <contour>
      <point x="2" y="-288" type="curve" smooth="yes"/>
      <point x="49" y="-288"/>
      <point x="87" y="-246"/>
      <point x="87" y="-165" type="curve" smooth="yes"/>
      <point x="87" y="-86"/>
      <point x="49" y="-44"/>
      <point x="2" y="-44" type="curve" smooth="yes"/>
      <point x="-46" y="-44"/>
      <point x="-83" y="-86"/>
      <point x="-83" y="-165" type="curve" smooth="yes"/>
      <point x="-83" y="-246"/>
      <point x="-46" y="-288"/>
    </contour>
    <contour>
      <point x="3" y="-262" type="curve" smooth="yes"/>
      <point x="-28" y="-262"/>
      <point x="-51" y="-241"/>
      <point x="-51" y="-165" type="curve" smooth="yes"/>
      <point x="-51" y="-90"/>
      <point x="-28" y="-67"/>
      <point x="3" y="-67" type="curve" smooth="yes"/>
      <point x="30" y="-67"/>
      <point x="56" y="-90"/>
      <point x="56" y="-165" type="curve" smooth="yes"/>
      <point x="56" y="-241"/>
      <point x="30" y="-262"/>
    </contour>
  </outline>
</glyph>
<glyph name="brevebelowcomb" format="2">
  <unicode hex="032E"/>
  <anchor x="-2" y="0" name="_bottom"/>
  <anchor x="-2" y="-191" name="bottom"/>
  <outline>
    <contour>
      <point x="1" y="-191" type="curve" smooth="yes"/>
      <point x="58" y="-191"/>
      <point x="73" y="-155"/>
      <point x="73" y="-77" type="curve"/>
      <point x="53" y="-77" type="line"/>
      <point x="43" y="-150"/>
      <point x="36" y="-165"/>
      <point x="1" y="-165" type="curve" smooth="yes"/>
      <point x="-38" y="-165"/>
      <point x="-47" y="-147"/>
      <point x="-55" y="-77" type="curve"/>
      <point x="-77" y="-77" type="line"/>
      <point x="-76" y="-157"/>
      <point x="-60" y="-191"/>
    </contour>
  </outline>
</glyph>
<glyph name="tildebelowcomb" format="2">
  <unicode hex="0330"/>
  <anchor x="-15" y="0" name="_bottom"/>
  <anchor x="-15" y="-160" name="bottom"/>
  <outline>
    <contour>
      <point x="29" y="-160" type="curve" smooth="yes"/>
      <point x="76" y="-160"/>
      <point x="81" y="-109"/>
      <point x="85" y="-72" type="curve"/>
      <point x="58" y="-72" type="line"/>
      <point x="55" y="-104"/>
      <point x="50" y="-130"/>
      <point x="28" y="-130" type="curve" smooth="yes"/>
      <point x="-9" y="-130"/>
      <point x="-25" y="-62"/>
      <point x="-64" y="-62" type="curve" smooth="yes"/>
      <point x="-109" y="-62"/>
      <point x="-109" y="-108"/>
      <point x="-113" y="-146" type="curve"/>
      <point x="-86" y="-146" type="line"/>
      <point x="-85" y="-113"/>
      <point x="-79" y="-92"/>
      <point x="-61" y="-92" type="curve" smooth="yes"/>
      <point x="-34" y="-92"/>
      <point x="-19" y="-160"/>
    </contour>
  </outline>
</glyph>
<glyph name="koroniscomb" format="2">
  <unicode hex="0343"/>
  <anchor x="-7" y="536" name="_top"/>
  <anchor x="-7" y="714" name="top"/>
  <outline>
    <contour>
      <point x="-30" y="554" type="line"/>
      <point x="-14" y="554" type="line"/>
      <point x="-1" y="595"/>
      <point x="13" y="662"/>
      <point x="17" y="704" type="curve"/>
      <point x="17" y="714" type="line"/>
      <point x="-18" y="714" type="line"/>
      <point x="-20" y="655"/>
      <point x="-25" y="615"/>
      <point x="-30" y="567" type="curve"/>
    </contour>
  </outline>
</glyph>
<glyph name="leftanglebelowcomb" format="2">
  <unicode hex="0349"/>
  <anchor x="1" y="0" name="_bottom"/>
  <anchor x="1" y="-217" name="bottom"/>
  <outline>
    <contour>
      <point x="14" y="-217" type="line"/>
      <point x="42" y="-217" type="line"/>
      <point x="42" y="-83" type="line"/>
      <point x="-41" y="-83" type="line"/>
      <point x="-41" y="-113" type="line"/>
      <point x="14" y="-113" type="line"/>
    </contour>
  </outline>
</glyph>
<glyph name="nottildeabovecomb" format="2">
  <unicode hex="034A"/>
  <anchor x="-2" y="536" name="_top"/>
  <anchor x="-2" y="733" name="top"/>
  <outline>
    <contour>
      <point x="-11" y="570" type="line"/>
      <point x="4" y="624" type="line"/>
      <point x="13" y="613"/>
      <point x="27" y="605"/>
      <point x="42" y="605" type="curve" smooth="yes"/>
      <point x="89" y="605"/>
      <point x="94" y="655"/>
      <point x="98" y="693" type="curve"/>
      <point x="71" y="693" type="line"/>
      <point x="68" y="661"/>
      <point x="63" y="635"/>
      <point x="41" y="635" type="curve" smooth="yes"/>
      <point x="29" y="635"/>
      <point x="22" y="641"/>
      <point x="14" y="650" type="curve"/>
      <point x="37" y="724" type="line"/>
      <point x="11" y="733" type="line"/>
      <point x="-9" y="674" type="line"/>
      <point x="-21" y="688"/>
      <point x="-34" y="700"/>
      <point x="-51" y="700" type="curve" smooth="yes"/>
      <point x="-96" y="700"/>
      <point x="-96" y="654"/>
      <point x="-100" y="616" type="curve"/>
      <point x="-73" y="616" type="line"/>
      <point x="-72" y="650"/>
      <point x="-66" y="671"/>
      <point x="-48" y="671" type="curve" smooth="yes"/>
      <point x="-37" y="671"/>
      <point x="-28" y="660"/>
      <point x="-18" y="648" type="curve"/>
      <point x="-40" y="580" type="line"/>
    </contour>
  </outline>
</glyph>
<glyph name="doubleringbelowcomb" format="2">
  <unicode hex="035A"/>
  <anchor x="2" y="0" name="_bottom"/>
  <anchor x="2" y="-257" name="bottom"/>
  <outline>
    <contour>
      <point x="-80" y="-257" type="curve" smooth="yes"/>
      <point x="-45" y="-257"/>
      <point x="-14" y="-238"/>
      <point x="2" y="-200" type="curve"/>
      <point x="15" y="-238"/>
      <point x="47" y="-257"/>
      <point x="82" y="-257" type="curve" smooth="yes"/>
      <point x="129" y="-257"/>
      <point x="166" y="-216"/>
      <point x="166" y="-142" type="curve" smooth="yes"/>
      <point x="166" y="-68"/>
      <point x="129" y="-27"/>
      <point x="82" y="-27" type="curve" smooth="yes"/>
      <point x="47" y="-27"/>
      <point x="15" y="-45"/>
      <point x="2" y="-84" type="curve"/>
      <point x="-13" y="-46"/>
      <point x="-43" y="-27"/>
      <point x="-80" y="-27" type="curve" smooth="yes"/>
      <point x="-127" y="-27"/>
      <point x="-165" y="-68"/>
      <point x="-165" y="-142" type="curve" smooth="yes"/>
      <point x="-165" y="-216"/>
      <point x="-127" y="-257"/>
    </contour>
    <contour>
      <point x="-78" y="-247" type="curve" smooth="yes"/>
      <point x="-121" y="-247"/>
      <point x="-153" y="-220"/>
      <point x="-153" y="-142" type="curve" smooth="yes"/>
      <point x="-153" y="-62"/>
      <point x="-121" y="-33"/>
      <point x="-78" y="-33" type="curve" smooth="yes"/>
      <point x="-40" y="-33"/>
      <point x="-7" y="-62"/>
      <point x="-7" y="-142" type="curve" smooth="yes"/>
      <point x="-7" y="-220"/>
      <point x="-40" y="-247"/>
    </contour>
    <contour>
      <point x="84" y="-247" type="curve" smooth="yes"/>
      <point x="40" y="-247"/>
      <point x="9" y="-220"/>
      <point x="9" y="-142" type="curve" smooth="yes"/>
      <point x="9" y="-62"/>
      <point x="40" y="-33"/>
      <point x="84" y="-33" type="curve" smooth="yes"/>
      <point x="121" y="-33"/>
      <point x="154" y="-62"/>
      <point x="154" y="-142" type="curve" smooth="yes"/>
      <point x="154" y="-220"/>
      <point x="121" y="-247"/>
    </contour>
  </outline>
</glyph>
<glyph name="pamphyliandigamma" format="2">
  <advance width="336"/>
  <unicode hex="0377"/>
  <anchor x="168" y="0" name="bottom"/>
  <anchor x="168" y="536" name="top"/>
  <outline>
    <contour>
      <point x="311" y="-11" type="curve" smooth="yes"/>
      <point x="324" y="-11"/>
      <point x="334" y="0"/>
      <point x="333" y="10" type="curve"/>
      <point x="270" y="12"/>
      <point x="267" y="52"/>
      <point x="267" y="214" type="curve" smooth="yes"/>
      <point x="267" y="303"/>
      <point x="294" y="450"/>
      <point x="312" y="536" type="curve"/>
      <point x="305" y="536" type="line"/>
      <point x="102" y="112" type="line"/>
      <point x="102" y="536" type="line"/>
      <point x="11" y="536" type="line"/>
      <point x="11" y="516" type="line"/>
      <point x="-8" y="516" type="line" smooth="yes"/>
      <point x="66" y="516"/>
      <point x="74" y="509"/>
      <point x="74" y="439" type="curve" smooth="yes"/>
      <point x="74" y="0" type="line"/>
      <point x="68" y="0" type="line"/>
      <point x="264" y="413" type="line"/>
      <point x="257" y="364"/>
      <point x="239" y="263"/>
      <point x="239" y="173" type="curve" smooth="yes"/>
      <point x="239" y="57"/>
      <point x="261" y="-11"/>
    </contour>
  </outline>
</glyph>
<glyph name="Delta" format="2">
  <advance width="327"/>
  <unicode hex="0394"/>
  <anchor x="164" y="0" name="bottom"/>
  <anchor x="164" y="714" name="top"/>
  <outline>
    <contour>
      <point x="9" y="0" type="line"/>
      <point x="313" y="0" type="line"/>
      <point x="313" y="28" type="line"/>
      <point x="175" y="714" type="line"/>
      <point x="151" y="714" type="line"/>
      <point x="9" y="21" type="line"/>
    </contour>
    <contour>
      <point x="33" y="31" type="line"/>
      <point x="141" y="546" type="line" smooth="yes"/>
      <point x="153" y="608"/>
      <point x="156" y="633"/>
      <point x="161" y="678" type="curve"/>
      <point x="169" y="636"/>
      <point x="180" y="571"/>
      <point x="191" y="512" type="curve" smooth="yes"/>
      <point x="286" y="30" type="line"/>
    </contour>
  </outline>
</glyph>
<glyph name="Pi" format="2">
  <advance width="438"/>
  <unicode hex="03A0"/>
  <anchor x="220" y="0" name="bottom"/>
  <anchor x="220" y="714" name="top"/>
  <outline>
    <contour>
      <point x="28" y="0" type="line"/>
      <point x="180" y="0" type="line"/>
      <point x="180" y="20" type="line"/>
      <point x="170" y="20" type="line" smooth="yes"/>
      <point x="117" y="20"/>
      <point x="112" y="31"/>
      <point x="112" y="108" type="curve" smooth="yes"/>
      <point x="112" y="689" type="line"/>
      <point x="323" y="689" type="line"/>
      <point x="323" y="108" type="line" smooth="yes"/>
      <point x="323" y="31"/>
      <point x="316" y="20"/>
      <point x="268" y="20" type="curve" smooth="yes"/>
      <point x="257" y="20" type="line"/>
      <point x="257" y="0" type="line"/>
      <point x="411" y="0" type="line"/>
      <point x="411" y="20" type="line"/>
      <point x="407" y="20" type="line" smooth="yes"/>
      <point x="357" y="20"/>
      <point x="351" y="31"/>
      <point x="351" y="108" type="curve" smooth="yes"/>
      <point x="351" y="607" type="line" smooth="yes"/>
      <point x="351" y="683"/>
      <point x="358" y="694"/>
      <point x="406" y="694" type="curve" smooth="yes"/>
      <point x="411" y="694" type="line"/>
      <point x="411" y="714" type="line"/>
      <point x="28" y="714" type="line"/>
      <point x="28" y="694" type="line"/>
      <point x="29" y="694" type="line" smooth="yes"/>
      <point x="77" y="694"/>
      <point x="84" y="683"/>
      <point x="84" y="607" type="curve" smooth="yes"/>
      <point x="84" y="108" type="line" smooth="yes"/>
      <point x="84" y="31"/>
      <point x="79" y="20"/>
      <point x="26" y="20" type="curve" smooth="yes"/>
      <point x="28" y="20" type="line"/>
    </contour>
  </outline>
</glyph>
<glyph name="rho" format="2">
  <advance width="347"/>
  <unicode hex="03C1"/>
  <anchor x="174" y="-240" name="bottom"/>
  <anchor x="174" y="536" name="top"/>
  <outline>
    <contour>
      <point x="56" y="-240" type="line"/>
      <point x="84" y="-240" type="line"/>
      <point x="84" y="-49" type="line" smooth="yes"/>
      <point x="84" y="-13"/>
      <point x="83" y="38"/>
      <point x="82" y="56" type="curve"/>
      <point x="100" y="27"/>
      <point x="126" y="-10"/>
      <point x="180" y="-10" type="curve" smooth="yes"/>
      <point x="256" y="-10"/>
      <point x="312" y="50"/>
      <point x="312" y="255" type="curve" smooth="yes"/>
      <point x="312" y="447"/>
      <point x="255" y="542"/>
      <point x="174" y="542" type="curve" smooth="yes"/>
      <point x="81" y="542"/>
      <point x="56" y="463"/>
      <point x="56" y="281" type="curve" smooth="yes"/>
    </contour>
    <contour>
      <point x="182" y="15" type="curve" smooth="yes"/>
      <point x="151" y="15"/>
      <point x="124" y="33"/>
      <point x="84" y="91" type="curve"/>
      <point x="84" y="293" type="line" smooth="yes"/>
      <point x="84" y="435"/>
      <point x="103" y="517"/>
      <point x="175" y="517" type="curve" smooth="yes"/>
      <point x="243" y="517"/>
      <point x="284" y="420"/>
      <point x="284" y="253" type="curve" smooth="yes"/>
      <point x="284" y="69"/>
      <point x="240" y="15"/>
    </contour>
  </outline>
</glyph>
<glyph name="sigma" format="2">
  <advance width="345"/>
  <unicode hex="03C3"/>
  <anchor x="173" y="0" name="bottom"/>
  <anchor x="173" y="536" name="top"/>
  <outline>
    <contour>
      <point x="174" y="-10" type="curve" smooth="yes"/>
      <point x="268" y="-10"/>
      <point x="299" y="88"/>
      <point x="299" y="258" type="curve" smooth="yes"/>
      <point x="299" y="348"/>
      <point x="272" y="452"/>
      <point x="245" y="506" type="curve"/>
      <point x="339" y="506" type="line"/>
      <point x="339" y="536" type="line"/>
      <point x="231" y="536" type="line" smooth="yes"/>
      <point x="92" y="536"/>
      <point x="37" y="415"/>
      <point x="37" y="258" type="curve" smooth="yes"/>
      <point x="37" y="72"/>
      <point x="83" y="-10"/>
    </contour>
    <contour>
      <point x="173" y="15" type="curve" smooth="yes"/>
      <point x="99" y="15"/>
      <point x="65" y="86"/>
      <point x="65" y="255" type="curve" smooth="yes"/>
      <point x="65" y="408"/>
      <point x="114" y="506"/>
      <point x="226" y="506" type="curve" smooth="yes"/>
      <point x="225" y="506" type="line"/>
      <point x="235" y="501"/>
      <point x="271" y="336"/>
      <point x="271" y="249" type="curve" smooth="yes"/>
      <point x="271" y="101"/>
      <point x="245" y="15"/>
    </contour>
  </outline>
</glyph>
<glyph name="upsilon" format="2">
  <advance width="339"/>
  <unicode hex="03C5"/>
  <anchor x="170" y="0" name="bottom"/>
  <anchor x="170" y="536" name="top"/>
  <outline>
    <contour>
      <point x="185" y="-10" type="curve" smooth="yes"/>
      <point x="288" y="-10"/>
      <point x="307" y="118"/>
      <point x="307" y="326" type="curve" smooth="yes"/>
      <point x="307" y="359"/>
      <point x="305" y="544"/>
      <point x="238" y="544" type="curve" smooth="yes"/>
      <point x="232" y="544"/>
      <point x="221" y="543"/>
      <point x="225" y="536" type="curve"/>
      <point x="274" y="510"/>
      <point x="279" y="413"/>
      <point x="279" y="310" type="curve" smooth="yes"/>
      <point x="279" y="119"/>
      <point x="264" y="15"/>
      <point x="185" y="15" type="curve" smooth="yes"/>
      <point x="148" y="15"/>
      <point x="98" y="53"/>
      <point x="98" y="168" type="curve" smooth="yes"/>
      <point x="98" y="536" type="line"/>
      <point x="2" y="536" type="line"/>
      <point x="2" y="516" type="line"/>
      <point x="-3" y="516" type="line" smooth="yes"/>
      <point x="64" y="516"/>
      <point x="70" y="518"/>
      <point x="70" y="440" type="curve" smooth="yes"/>
      <point x="70" y="182" type="line" smooth="yes"/>
      <point x="70" y="51"/>
      <point x="119" y="-10"/>
    </contour>
  </outline>
</glyph>
<glyph name="uni03D0" format="2">
  <advance width="330"/>
  <unicode hex="03D0"/>
  <anchor x="165" y="-10" name="bottom"/>
  <anchor x="165" y="760" name="top"/>
  <outline>
    <contour>
      <point x="172" y="-10" type="curve" smooth="yes"/>
      <point x="246" y="-10"/>
      <point x="293" y="68"/>
      <point x="293" y="226" type="curve" smooth="yes"/>
      <point x="293" y="384"/>
      <point x="257" y="477"/>
      <point x="171" y="477" type="curve" smooth="yes"/>
      <point x="111" y="477"/>
      <point x="80" y="439"/>
      <point x="67" y="401" type="curve"/>
      <point x="67" y="401" type="line"/>
      <point x="73" y="466"/>
      <point x="79" y="531"/>
      <point x="88" y="592" type="curve"/>
      <point x="91" y="584"/>
      <point x="120" y="541"/>
      <point x="177" y="541" type="curve" smooth="yes"/>
      <point x="244" y="541"/>
      <point x="260" y="594"/>
      <point x="260" y="643" type="curve" smooth="yes"/>
      <point x="260" y="728"/>
      <point x="224" y="760"/>
      <point x="179" y="760" type="curve" smooth="yes"/>
      <point x="66" y="760"/>
      <point x="37" y="508"/>
      <point x="37" y="280" type="curve" smooth="yes"/>
      <point x="37" y="106"/>
      <point x="84" y="-10"/>
    </contour>
    <contour>
      <point x="174" y="15" type="curve" smooth="yes"/>
      <point x="76" y="15"/>
      <point x="63" y="159"/>
      <point x="63" y="249" type="curve" smooth="yes"/>
      <point x="63" y="366"/>
      <point x="97" y="452"/>
      <point x="168" y="452" type="curve" smooth="yes"/>
      <point x="227" y="452"/>
      <point x="264" y="383"/>
      <point x="264" y="232" type="curve" smooth="yes"/>
      <point x="264" y="91"/>
      <point x="233" y="15"/>
    </contour>
    <contour>
      <point x="177" y="567" type="curve" smooth="yes"/>
      <point x="119" y="567"/>
      <point x="108" y="607"/>
      <point x="98" y="623" type="curve"/>
      <point x="112" y="691"/>
      <point x="136" y="735"/>
      <point x="177" y="735" type="curve" smooth="yes"/>
      <point x="222" y="735"/>
      <point x="232" y="692"/>
      <point x="232" y="648" type="curve" smooth="yes"/>
      <point x="232" y="595"/>
      <point x="220" y="567"/>
    </contour>
  </outline>
</glyph>
<glyph name="uni03D8" format="2">
  <advance width="426"/>
  <unicode hex="03D8"/>
  <anchor x="213" y="0" name="bottom"/>
  <anchor x="213" y="714" name="top"/>
  <outline>
    <contour>
      <point x="138" y="0" type="line"/>
      <point x="285" y="0" type="line"/>
      <point x="285" y="20" type="line"/>
      <point x="296" y="20" type="line" smooth="yes"/>
      <point x="236" y="20"/>
      <point x="227" y="31"/>
      <point x="227" y="110" type="curve" smooth="yes"/>
      <point x="227" y="120" type="line"/>
      <point x="324" y="129"/>
      <point x="390" y="208"/>
      <point x="390" y="424" type="curve" smooth="yes"/>
      <point x="390" y="626"/>
      <point x="328" y="725"/>
      <point x="214" y="725" type="curve" smooth="yes"/>
      <point x="91" y="725"/>
      <point x="35" y="628"/>
      <point x="35" y="425" type="curve" smooth="yes"/>
      <point x="35" y="217"/>
      <point x="85" y="128"/>
      <point x="199" y="120" type="curve"/>
      <point x="199" y="110" type="line" smooth="yes"/>
      <point x="199" y="31"/>
      <point x="191" y="20"/>
      <point x="130" y="20" type="curve" smooth="yes"/>
      <point x="138" y="20" type="line"/>
    </contour>
    <contour>
      <point x="211" y="145" type="curve" smooth="yes"/>
      <point x="84" y="145"/>
      <point x="62" y="255"/>
      <point x="62" y="422" type="curve" smooth="yes"/>
      <point x="62" y="597"/>
      <point x="99" y="700"/>
      <point x="211" y="700" type="curve" smooth="yes"/>
      <point x="322" y="700"/>
      <point x="362" y="597"/>
      <point x="362" y="423" type="curve" smooth="yes"/>
      <point x="362" y="252"/>
      <point x="324" y="145"/>
    </contour>
  </outline>
</glyph>
<glyph name="uni03DC" format="2">
  <advance width="340"/>
  <unicode hex="03DC"/>
  <anchor x="170" y="0" name="bottom"/>
  <anchor x="170" y="714" name="top"/>
  <outline>
    <contour>
      <point x="27" y="0" type="line"/>
      <point x="181" y="0" type="line"/>
      <point x="181" y="20" type="line"/>
      <point x="166" y="20" type="line" smooth="yes"/>
      <point x="117" y="20"/>
      <point x="110" y="31"/>
      <point x="110" y="108" type="curve" smooth="yes"/>
      <point x="110" y="334" type="line"/>
      <point x="178" y="334" type="line" smooth="yes"/>
      <point x="242" y="334"/>
      <point x="242" y="324"/>
      <point x="247" y="232" type="curve"/>
      <point x="267" y="232" type="line"/>
      <point x="263" y="359" type="line"/>
      <point x="110" y="359" type="line"/>
      <point x="110" y="689" type="line"/>
      <point x="227" y="689" type="line" smooth="yes"/>
      <point x="277" y="689"/>
      <point x="285" y="679"/>
      <point x="287" y="629" type="curve" smooth="yes"/>
      <point x="290" y="551" type="line"/>
      <point x="310" y="551" type="line"/>
      <point x="305" y="714" type="line"/>
      <point x="27" y="714" type="line"/>
      <point x="27" y="694" type="line"/>
      <point x="28" y="694" type="line" smooth="yes"/>
      <point x="75" y="694"/>
      <point x="82" y="683"/>
      <point x="82" y="607" type="curve" smooth="yes"/>
      <point x="82" y="108" type="line" smooth="yes"/>
      <point x="82" y="31"/>
      <point x="76" y="20"/>
      <point x="26" y="20" type="curve" smooth="yes"/>
      <point x="27" y="20" type="line"/>
    </contour>
  </outline>
</glyph>
<glyph name="uni03DE" format="2">
  <advance width="263"/>
  <unicode hex="03DE"/>
  <anchor x="132" y="0" name="bottom"/>
  <anchor x="132" y="714" name="top"/>
  <outline>
    <contour>
      <point x="186" y="-10" type="curve" smooth="yes"/>
      <point x="220" y="-10"/>
      <point x="224" y="15"/>
      <point x="224" y="35" type="curve" smooth="yes"/>
      <point x="224" y="54"/>
      <point x="216" y="66"/>
      <point x="207" y="72" type="curve"/>
      <point x="212" y="30"/>
      <point x="200" y="15"/>
      <point x="190" y="15" type="curve" smooth="yes"/>
      <point x="173" y="15"/>
      <point x="166" y="30"/>
      <point x="166" y="95" type="curve" smooth="yes"/>
      <point x="166" y="120"/>
      <point x="153" y="177"/>
      <point x="215" y="373" type="curve"/>
      <point x="215" y="393" type="line"/>
      <point x="80" y="393" type="line"/>
      <point x="108" y="490"/>
      <point x="114" y="549"/>
      <point x="114" y="628" type="curve" smooth="yes"/>
      <point x="114" y="690"/>
      <point x="95" y="722"/>
      <point x="64" y="722" type="curve" smooth="yes"/>
      <point x="30" y="722"/>
      <point x="26" y="696"/>
      <point x="26" y="677" type="curve" smooth="yes"/>
      <point x="26" y="658"/>
      <point x="34" y="645"/>
      <point x="44" y="639" type="curve"/>
      <point x="38" y="681"/>
      <point x="51" y="697"/>
      <point x="60" y="697" type="curve" smooth="yes"/>
      <point x="75" y="697"/>
      <point x="86" y="682"/>
      <point x="86" y="616" type="curve" smooth="yes"/>
      <point x="86" y="567"/>
      <point x="85" y="507"/>
      <point x="51" y="388" type="curve"/>
      <point x="51" y="368" type="line"/>
      <point x="189" y="368" type="line"/>
      <point x="143" y="224"/>
      <point x="138" y="155"/>
      <point x="138" y="83" type="curve" smooth="yes"/>
      <point x="138" y="21"/>
      <point x="157" y="-10"/>
    </contour>
  </outline>
</glyph>
<glyph name="uni03DF" format="2">
  <advance width="290"/>
  <unicode hex="03DF"/>
  <anchor x="146" y="-248" name="bottom"/>
  <anchor x="146" y="760" name="top"/>
  <outline>
    <contour>
      <point x="197" y="-248" type="curve" smooth="yes"/>
      <point x="224" y="-248"/>
      <point x="233" y="-228"/>
      <point x="232" y="-216" type="curve"/>
      <point x="184" y="-242"/>
      <point x="169" y="-198"/>
      <point x="169" y="-113" type="curve" smooth="yes"/>
      <point x="169" y="-102"/>
      <point x="141" y="46"/>
      <point x="263" y="323" type="curve"/>
      <point x="263" y="364" type="line"/>
      <point x="57" y="231" type="line"/>
      <point x="105" y="355"/>
      <point x="136" y="497"/>
      <point x="136" y="600" type="curve" smooth="yes"/>
      <point x="136" y="705"/>
      <point x="118" y="760"/>
      <point x="77" y="760" type="curve" smooth="yes"/>
      <point x="45" y="760"/>
      <point x="36" y="741"/>
      <point x="34" y="730" type="curve"/>
      <point x="109" y="767"/>
      <point x="109" y="673"/>
      <point x="109" y="586" type="curve" smooth="yes"/>
      <point x="109" y="512"/>
      <point x="90" y="383"/>
      <point x="27" y="224" type="curve"/>
      <point x="27" y="184" type="line"/>
      <point x="237" y="317" type="line"/>
      <point x="123" y="46"/>
      <point x="141" y="-73"/>
      <point x="141" y="-123" type="curve" smooth="yes"/>
      <point x="141" y="-205"/>
      <point x="158" y="-248"/>
    </contour>
  </outline>
</glyph>
<glyph name="uni03E1" format="2">
  <advance width="229"/>
  <unicode hex="03E1"/>
  <anchor x="114" y="-240" name="bottom"/>
  <anchor x="114" y="542" name="top"/>
  <outline>
    <contour>
      <point x="124" y="-240" type="line"/>
      <point x="181" y="-150"/>
      <point x="191" y="-34"/>
      <point x="191" y="65" type="curve" smooth="yes"/>
      <point x="191" y="345"/>
      <point x="107" y="535"/>
      <point x="10" y="542" type="curve"/>
      <point x="10" y="519" type="line"/>
      <point x="58" y="517"/>
      <point x="111" y="439"/>
      <point x="141" y="306" type="curve"/>
      <point x="29" y="249" type="line"/>
      <point x="41" y="227" type="line"/>
      <point x="145" y="281" type="line"/>
      <point x="152" y="247"/>
      <point x="156" y="208"/>
      <point x="160" y="167" type="curve"/>
      <point x="60" y="109" type="line"/>
      <point x="72" y="87" type="line"/>
      <point x="162" y="139" type="line"/>
      <point x="162" y="116"/>
      <point x="163" y="93"/>
      <point x="163" y="68" type="curve" smooth="yes"/>
      <point x="163" y="-31"/>
      <point x="157" y="-146"/>
      <point x="114" y="-214" type="curve"/>
    </contour>
  </outline>
</glyph>
<glyph name="uni03F0" format="2">
  <advance width="365"/>
  <unicode hex="03F0"/>
  <anchor x="183" y="0" name="bottom"/>
  <anchor x="183" y="536" name="top"/>
  <outline>
    <contour>
      <point x="323" y="-14" type="curve" smooth="yes"/>
      <point x="337" y="-14"/>
      <point x="345" y="-3"/>
      <point x="342" y="4" type="curve"/>
      <point x="280" y="6"/>
      <point x="274" y="62"/>
      <point x="274" y="198" type="curve" smooth="yes"/>
      <point x="274" y="302"/>
      <point x="292" y="450"/>
      <point x="306" y="536" type="curve"/>
      <point x="294" y="536" type="line"/>
      <point x="96" y="109" type="line"/>
      <point x="107" y="172"/>
      <point x="114" y="260"/>
      <point x="114" y="342" type="curve" smooth="yes"/>
      <point x="114" y="484"/>
      <point x="81" y="546"/>
      <point x="38" y="546" type="curve" smooth="yes"/>
      <point x="25" y="546"/>
      <point x="21" y="533"/>
      <point x="21" y="528" type="curve"/>
      <point x="74" y="526"/>
      <point x="86" y="482"/>
      <point x="86" y="314" type="curve" smooth="yes"/>
      <point x="86" y="189"/>
      <point x="54" y="33"/>
      <point x="49" y="0" type="curve"/>
      <point x="62" y="0" type="line"/>
      <point x="271" y="444" type="line"/>
      <point x="261" y="367"/>
      <point x="246" y="257"/>
      <point x="246" y="171" type="curve" smooth="yes"/>
      <point x="246" y="57"/>
      <point x="273" y="-14"/>
    </contour>
  </outline>
</glyph>
<glyph name="afii10059" format="2">
  <advance width="555"/>
  <unicode hex="040A"/>
  <anchor x="278" y="0" name="bottom"/>
  <anchor x="278" y="714" name="top"/>
  <outline>
    <contour>
      <point x="28" y="0" type="line"/>
      <point x="180" y="0" type="line"/>
      <point x="180" y="20" type="line"/>
      <point x="169" y="20" type="line" smooth="yes"/>
      <point x="118" y="20"/>
      <point x="112" y="31"/>
      <point x="112" y="108" type="curve" smooth="yes"/>
      <point x="112" y="361" type="line"/>
      <point x="320" y="361" type="line"/>
      <point x="320" y="108" type="line" smooth="yes"/>
      <point x="320" y="31"/>
      <point x="315" y="20"/>
      <point x="263" y="20" type="curve" smooth="yes"/>
      <point x="254" y="20" type="line"/>
      <point x="254" y="0" type="line"/>
      <point x="378" y="0" type="line" smooth="yes"/>
      <point x="489" y="0"/>
      <point x="528" y="66"/>
      <point x="528" y="194" type="curve" smooth="yes"/>
      <point x="528" y="333"/>
      <point x="480" y="386"/>
      <point x="347" y="386" type="curve" smooth="yes"/>
      <point x="348" y="386" type="line"/>
      <point x="348" y="607" type="line" smooth="yes"/>
      <point x="348" y="683"/>
      <point x="355" y="694"/>
      <point x="403" y="694" type="curve" smooth="yes"/>
      <point x="409" y="694" type="line"/>
      <point x="409" y="714" type="line"/>
      <point x="254" y="714" type="line"/>
      <point x="254" y="694" type="line"/>
      <point x="267" y="694" type="line" smooth="yes"/>
      <point x="313" y="694"/>
      <point x="320" y="683"/>
      <point x="320" y="607" type="curve" smooth="yes"/>
      <point x="320" y="386" type="line"/>
      <point x="112" y="386" type="line"/>
      <point x="112" y="607" type="line" smooth="yes"/>
      <point x="112" y="683"/>
      <point x="117" y="694"/>
      <point x="169" y="694" type="curve" smooth="yes"/>
      <point x="180" y="694" type="line"/>
      <point x="180" y="714" type="line"/>
      <point x="28" y="714" type="line"/>
      <point x="28" y="694" type="line"/>
      <point x="28" y="694" type="line" smooth="yes"/>
      <point x="77" y="694"/>
      <point x="84" y="683"/>
      <point x="84" y="607" type="curve" smooth="yes"/>
      <point x="84" y="108" type="line" smooth="yes"/>
      <point x="84" y="31"/>
      <point x="79" y="20"/>
      <point x="27" y="20" type="curve" smooth="yes"/>
      <point x="28" y="20" type="line"/>
    </contour>
    <contour>
      <point x="348" y="25" type="line"/>
      <point x="348" y="361" type="line"/>
      <point x="350" y="361" type="line" smooth="yes"/>
      <point x="466" y="361"/>
      <point x="500" y="319"/>
      <point x="500" y="194" type="curve" smooth="yes"/>
      <point x="500" y="100"/>
      <point x="481" y="25"/>
      <point x="382" y="25" type="curve" smooth="yes"/>
    </contour>
  </outline>
</glyph>
<glyph name="afii10021" format="2">
  <advance width="397"/>
  <unicode hex="0414"/>
  <anchor x="198" y="0" name="bottom"/>
  <anchor x="198" y="714" name="top"/>
  <outline>
    <contour>
      <point x="12" y="-210" type="line"/>
      <point x="32" y="-210" type="line"/>
      <point x="32" y="11"/>
      <point x="41" y="0"/>
      <point x="206" y="0" type="curve" smooth="yes"/>
      <point x="178" y="0" type="line" smooth="yes"/>
      <point x="342" y="0"/>
      <point x="356" y="16"/>
      <point x="356" y="-210" type="curve"/>
      <point x="376" y="-210" type="line"/>
      <point x="376" y="17" type="line"/>
      <point x="352" y="17" type="line" smooth="yes"/>
      <point x="315" y="17"/>
      <point x="313" y="28"/>
      <point x="313" y="111" type="curve" smooth="yes"/>
      <point x="313" y="618" type="line" smooth="yes"/>
      <point x="313" y="683"/>
      <point x="323" y="694"/>
      <point x="361" y="694" type="curve" smooth="yes"/>
      <point x="355" y="694" type="line"/>
      <point x="355" y="714" type="line"/>
      <point x="103" y="714" type="line"/>
      <point x="103" y="694" type="line"/>
      <point x="98" y="694" type="line" smooth="yes"/>
      <point x="137" y="694"/>
      <point x="163" y="691"/>
      <point x="163" y="661" type="curve" smooth="yes"/>
      <point x="163" y="480"/>
      <point x="139" y="272"/>
      <point x="60" y="25" type="curve"/>
      <point x="12" y="25" type="line"/>
    </contour>
    <contour>
      <point x="82" y="25" type="line"/>
      <point x="147" y="223"/>
      <point x="187" y="471"/>
      <point x="184" y="689" type="curve"/>
      <point x="285" y="689" type="line"/>
      <point x="285" y="25" type="line"/>
    </contour>
  </outline>
</glyph>
<glyph name="afii10025" format="2">
  <advance width="353"/>
  <unicode hex="0417"/>
  <anchor x="177" y="0" name="bottom"/>
  <anchor x="177" y="714" name="top"/>
  <outline>
    <contour>
      <point x="151" y="-11" type="curve" smooth="yes"/>
      <point x="240" y="-11"/>
      <point x="300" y="37"/>
      <point x="300" y="190" type="curve" smooth="yes"/>
      <point x="300" y="320"/>
      <point x="243" y="354"/>
      <point x="189" y="373" type="curve"/>
      <point x="256" y="394"/>
      <point x="300" y="456"/>
      <point x="300" y="562" type="curve" smooth="yes"/>
      <point x="300" y="684"/>
      <point x="241" y="724"/>
      <point x="167" y="724" type="curve" smooth="yes"/>
      <point x="32" y="724"/>
      <point x="36" y="616"/>
      <point x="36" y="593" type="curve" smooth="yes"/>
      <point x="36" y="559"/>
      <point x="47" y="549"/>
      <point x="53" y="549" type="curve"/>
      <point x="53" y="615"/>
      <point x="59" y="699"/>
      <point x="167" y="699" type="curve" smooth="yes"/>
      <point x="243" y="699"/>
      <point x="272" y="654"/>
      <point x="272" y="555" type="curve" smooth="yes"/>
      <point x="272" y="456"/>
      <point x="222" y="384"/>
      <point x="160" y="384" type="curve" smooth="yes"/>
      <point x="113" y="384" type="line"/>
      <point x="113" y="359" type="line"/>
      <point x="156" y="359" type="line" smooth="yes"/>
      <point x="223" y="359"/>
      <point x="272" y="302"/>
      <point x="272" y="188" type="curve" smooth="yes"/>
      <point x="272" y="40"/>
      <point x="223" y="14"/>
      <point x="152" y="14" type="curve" smooth="yes"/>
      <point x="62" y="14"/>
      <point x="47" y="78"/>
      <point x="50" y="138" type="curve"/>
      <point x="40" y="138"/>
      <point x="33" y="119"/>
      <point x="33" y="83" type="curve" smooth="yes"/>
      <point x="33" y="64"/>
      <point x="44" y="-11"/>
    </contour>
  </outline>
</glyph>
<glyph name="afii10026" format="2">
  <advance width="471"/>
  <unicode hex="0418"/>
  <anchor x="235" y="0" name="bottom"/>
  <anchor x="235" y="714" name="top"/>
  <outline>
    <contour>
      <point x="28" y="0" type="line"/>
      <point x="180" y="0" type="line"/>
      <point x="180" y="20" type="line"/>
      <point x="168" y="20" type="line" smooth="yes"/>
      <point x="118" y="20"/>
      <point x="112" y="31"/>
      <point x="112" y="108" type="curve" smooth="yes"/>
      <point x="112" y="118" type="line"/>
      <point x="356" y="518" type="line"/>
      <point x="356" y="108" type="line" smooth="yes"/>
      <point x="356" y="31"/>
      <point x="351" y="20"/>
      <point x="299" y="20" type="curve" smooth="yes"/>
      <point x="290" y="20" type="line"/>
      <point x="290" y="0" type="line"/>
      <point x="444" y="0" type="line"/>
      <point x="444" y="20" type="line"/>
      <point x="442" y="20" type="line" smooth="yes"/>
      <point x="389" y="20"/>
      <point x="384" y="31"/>
      <point x="384" y="108" type="curve" smooth="yes"/>
      <point x="384" y="599" type="line" smooth="yes"/>
      <point x="384" y="683"/>
      <point x="387" y="694"/>
      <point x="443" y="694" type="curve" smooth="yes"/>
      <point x="444" y="694" type="line"/>
      <point x="444" y="714" type="line"/>
      <point x="290" y="714" type="line"/>
      <point x="290" y="694" type="line"/>
      <point x="296" y="694" type="line" smooth="yes"/>
      <point x="354" y="694"/>
      <point x="356" y="683"/>
      <point x="356" y="599" type="curve" smooth="yes"/>
      <point x="356" y="563" type="line"/>
      <point x="112" y="165" type="line"/>
      <point x="112" y="605" type="line" smooth="yes"/>
      <point x="112" y="683"/>
      <point x="117" y="694"/>
      <point x="169" y="694" type="curve" smooth="yes"/>
      <point x="180" y="694" type="line"/>
      <point x="180" y="714" type="line"/>
      <point x="28" y="714" type="line"/>
      <point x="28" y="694" type="line"/>
      <point x="27" y="694" type="line" smooth="yes"/>
      <point x="79" y="694"/>
      <point x="84" y="683"/>
      <point x="84" y="607" type="curve" smooth="yes"/>
      <point x="84" y="108" type="line" smooth="yes"/>
      <point x="84" y="31"/>
      <point x="79" y="20"/>
      <point x="26" y="20" type="curve" smooth="yes"/>
      <point x="28" y="20" type="line"/>
    </contour>
  </outline>
</glyph>
<glyph name="afii10040" format="2">
  <advance width="435"/>
  <unicode hex="0426"/>
  <anchor x="218" y="0" name="bottom"/>
  <anchor x="218" y="714" name="top"/>
  <outline>
    <contour>
      <point x="393" y="-210" type="curve"/>
      <point x="413" y="-210" type="line"/>
      <point x="413" y="17" type="line"/>
      <point x="413" y="17" type="line" smooth="yes"/>
      <point x="354" y="17"/>
      <point x="349" y="31"/>
      <point x="349" y="105" type="curve" smooth="yes"/>
      <point x="349" y="607" type="line" smooth="yes"/>
      <point x="349" y="683"/>
      <point x="357" y="694"/>
      <point x="403" y="694" type="curve" smooth="yes"/>
      <point x="407" y="694" type="line"/>
      <point x="407" y="714" type="line"/>
      <point x="252" y="714" type="line"/>
      <point x="252" y="694" type="line"/>
      <point x="265" y="694" type="line" smooth="yes"/>
      <point x="316" y="694"/>
      <point x="321" y="683"/>
      <point x="321" y="607" type="curve" smooth="yes"/>
      <point x="321" y="25" type="line"/>
      <point x="110" y="25" type="line"/>
      <point x="110" y="607" type="line" smooth="yes"/>
      <point x="110" y="683"/>
      <point x="118" y="694"/>
      <point x="165" y="694" type="curve" smooth="yes"/>
      <point x="181" y="694" type="line"/>
      <point x="181" y="714" type="line"/>
      <point x="23" y="714" type="line"/>
      <point x="23" y="694" type="line"/>
      <point x="25" y="694" type="line" smooth="yes"/>
      <point x="77" y="694"/>
      <point x="82" y="683"/>
      <point x="82" y="607" type="curve" smooth="yes"/>
      <point x="82" y="108" type="line" smooth="yes"/>
      <point x="82" y="31"/>
      <point x="77" y="20"/>
      <point x="25" y="20" type="curve" smooth="yes"/>
      <point x="23" y="20" type="line"/>
      <point x="23" y="0" type="line"/>
      <point x="210" y="0" type="line" smooth="yes"/>
      <point x="380" y="0"/>
      <point x="393" y="16"/>
    </contour>
  </outline>
</glyph>
<glyph name="afii10047" format="2">
  <advance width="342"/>
  <unicode hex="042D"/>
  <anchor x="171" y="0" name="bottom"/>
  <anchor x="171" y="714" name="top"/>
  <outline>
    <contour>
      <point x="146" y="-10" type="curve" smooth="yes"/>
      <point x="261" y="-10"/>
      <point x="308" y="158"/>
      <point x="308" y="358" type="curve" smooth="yes"/>
      <point x="308" y="591"/>
      <point x="233" y="723"/>
      <point x="129" y="723" type="curve" smooth="yes"/>
      <point x="52" y="723"/>
      <point x="19" y="675"/>
      <point x="19" y="627" type="curve" smooth="yes"/>
      <point x="19" y="593"/>
      <point x="23" y="576"/>
      <point x="39" y="576" type="curve"/>
      <point x="39" y="654"/>
      <point x="61" y="698"/>
      <point x="130" y="698" type="curve" smooth="yes"/>
      <point x="233" y="698"/>
      <point x="278" y="546"/>
      <point x="280" y="378" type="curve"/>
      <point x="82" y="378" type="line"/>
      <point x="82" y="353" type="line"/>
      <point x="280" y="353" type="line"/>
      <point x="278" y="189"/>
      <point x="250" y="15"/>
      <point x="146" y="15" type="curve" smooth="yes"/>
      <point x="102" y="15"/>
      <point x="74" y="40"/>
      <point x="37" y="79" type="curve"/>
      <point x="33" y="74"/>
      <point x="30" y="68"/>
      <point x="30" y="57" type="curve" smooth="yes"/>
      <point x="30" y="26"/>
      <point x="106" y="-10"/>
    </contour>
  </outline>
</glyph>
<glyph name="afii10079" format="2">
  <advance width="405"/>
  <unicode hex="043D"/>
  <anchor x="202" y="0" name="bottom"/>
  <anchor x="202" y="536" name="top"/>
  <outline>
    <contour>
      <point x="14" y="0" type="line"/>
      <point x="168" y="0" type="line"/>
      <point x="168" y="20" type="line"/>
      <point x="177" y="20" type="line" smooth="yes"/>
      <point x="112" y="20"/>
      <point x="108" y="26"/>
      <point x="108" y="97" type="curve" smooth="yes"/>
      <point x="108" y="262" type="line"/>
      <point x="299" y="262" type="line"/>
      <point x="299" y="97" type="line" smooth="yes"/>
      <point x="299" y="27"/>
      <point x="292" y="20"/>
      <point x="238" y="20" type="curve" smooth="yes"/>
      <point x="237" y="20" type="line"/>
      <point x="237" y="0" type="line"/>
      <point x="390" y="0" type="line"/>
      <point x="390" y="20" type="line"/>
      <point x="395" y="20" type="line" smooth="yes"/>
      <point x="332" y="20"/>
      <point x="327" y="27"/>
      <point x="327" y="97" type="curve" smooth="yes"/>
      <point x="327" y="439" type="line" smooth="yes"/>
      <point x="327" y="509"/>
      <point x="334" y="516"/>
      <point x="388" y="516" type="curve" smooth="yes"/>
      <point x="390" y="516" type="line"/>
      <point x="390" y="536" type="line"/>
      <point x="237" y="536" type="line"/>
      <point x="237" y="516" type="line"/>
      <point x="235" y="516" type="line" smooth="yes"/>
      <point x="293" y="516"/>
      <point x="299" y="509"/>
      <point x="299" y="439" type="curve" smooth="yes"/>
      <point x="299" y="287" type="line"/>
      <point x="108" y="287" type="line"/>
      <point x="108" y="439" type="line" smooth="yes"/>
      <point x="108" y="509"/>
      <point x="114" y="516"/>
      <point x="169" y="516" type="curve" smooth="yes"/>
      <point x="168" y="516" type="line"/>
      <point x="168" y="536" type="line"/>
      <point x="14" y="536" type="line"/>
      <point x="14" y="516" type="line"/>
      <point x="13" y="516" type="line" smooth="yes"/>
      <point x="74" y="516"/>
      <point x="80" y="509"/>
      <point x="80" y="439" type="curve" smooth="yes"/>
      <point x="80" y="97" type="line" smooth="yes"/>
      <point x="80" y="26"/>
      <point x="72" y="20"/>
      <point x="19" y="20" type="curve" smooth="yes"/>
      <point x="14" y="20" type="line"/>
    </contour>
  </outline>
</glyph>
<glyph name="afii10084" format="2">
  <advance width="318"/>
  <unicode hex="0442"/>
  <anchor x="159" y="0" name="bottom"/>
  <anchor x="159" y="536" name="top"/>
  <outline>
    <contour>
      <point x="82" y="0" type="line"/>
      <point x="243" y="0" type="line"/>
      <point x="243" y="20" type="line"/>
      <point x="232" y="20" type="line" smooth="yes"/>
      <point x="180" y="20"/>
      <point x="173" y="27"/>
      <point x="173" y="97" type="curve" smooth="yes"/>
      <point x="173" y="511" type="line"/>
      <point x="217" y="511" type="line" smooth="yes"/>
      <point x="281" y="511"/>
      <point x="278" y="508"/>
      <point x="283" y="408" type="curve" smooth="yes"/>
      <point x="283" y="398" type="line"/>
      <point x="303" y="398" type="line"/>
      <point x="298" y="536" type="line"/>
      <point x="18" y="536" type="line"/>
      <point x="15" y="398" type="line"/>
      <point x="35" y="398" type="line"/>
      <point x="33" y="407" type="line" smooth="yes"/>
      <point x="35" y="511"/>
      <point x="34" y="511"/>
      <point x="97" y="511" type="curve" smooth="yes"/>
      <point x="145" y="511" type="line"/>
      <point x="145" y="97" type="line" smooth="yes"/>
      <point x="145" y="27"/>
      <point x="138" y="20"/>
      <point x="84" y="20" type="curve" smooth="yes"/>
      <point x="82" y="20" type="line"/>
    </contour>
  </outline>
</glyph>
<glyph name="afii10086" format="2">
  <advance width="385"/>
  <unicode hex="0444"/>
  <anchor x="192" y="-240" name="bottom"/>
  <anchor x="192" y="760" name="top"/>
  <outline>
    <contour>
      <point x="118" y="-240" type="line"/>
      <point x="268" y="-240" type="line"/>
      <point x="268" y="-220" type="line"/>
      <point x="278" y="-220" type="line" smooth="yes"/>
      <point x="211" y="-220"/>
      <point x="206" y="-213"/>
      <point x="206" y="-145" type="curve" smooth="yes"/>
      <point x="206" y="-9" type="line"/>
      <point x="329" y="15"/>
      <point x="348" y="98"/>
      <point x="348" y="270" type="curve" smooth="yes"/>
      <point x="348" y="438"/>
      <point x="327" y="515"/>
      <point x="206" y="541" type="curve"/>
      <point x="206" y="760" type="line"/>
      <point x="118" y="760" type="line"/>
      <point x="118" y="740" type="line"/>
      <point x="113" y="740" type="line" smooth="yes"/>
      <point x="172" y="740"/>
      <point x="178" y="733"/>
      <point x="178" y="665" type="curve" smooth="yes"/>
      <point x="178" y="541" type="line"/>
      <point x="70" y="519"/>
      <point x="37" y="447"/>
      <point x="37" y="270" type="curve" smooth="yes"/>
      <point x="37" y="94"/>
      <point x="57" y="14"/>
      <point x="178" y="-9" type="curve"/>
      <point x="178" y="-145" type="line" smooth="yes"/>
      <point x="178" y="-213"/>
      <point x="173" y="-220"/>
      <point x="104" y="-220" type="curve" smooth="yes"/>
      <point x="118" y="-220" type="line"/>
    </contour>
    <contour>
      <point x="178" y="16" type="line"/>
      <point x="74" y="39"/>
      <point x="64" y="118"/>
      <point x="65" y="270" type="curve" smooth="yes"/>
      <point x="65" y="412"/>
      <point x="81" y="490"/>
      <point x="178" y="516" type="curve"/>
    </contour>
    <contour>
      <point x="206" y="16" type="curve"/>
      <point x="206" y="516" type="line"/>
      <point x="311" y="491"/>
      <point x="320" y="412"/>
      <point x="320" y="270" type="curve" smooth="yes"/>
      <point x="320" y="111"/>
      <point x="304" y="41"/>
    </contour>
  </outline>
</glyph>
<glyph name="afii10094" format="2">
  <advance width="350"/>
  <unicode hex="044C"/>
  <anchor x="175" y="0" name="bottom"/>
  <anchor x="175" y="536" name="top"/>
  <outline>
    <contour>
      <point x="14" y="0" type="line"/>
      <point x="176" y="0" type="line" smooth="yes"/>
      <point x="250" y="0"/>
      <point x="306" y="40"/>
      <point x="306" y="150" type="curve" smooth="yes"/>
      <point x="306" y="264"/>
      <point x="244" y="285"/>
      <point x="156" y="285" type="curve" smooth="yes"/>
      <point x="108" y="285" type="line"/>
      <point x="108" y="439" type="line" smooth="yes"/>
      <point x="108" y="511"/>
      <point x="114" y="516"/>
      <point x="169" y="516" type="curve" smooth="yes"/>
      <point x="169" y="516" type="line"/>
      <point x="169" y="536" type="line"/>
      <point x="14" y="536" type="line"/>
      <point x="14" y="516" type="line"/>
      <point x="16" y="516" type="line" smooth="yes"/>
      <point x="72" y="516"/>
      <point x="80" y="511"/>
      <point x="80" y="439" type="curve" smooth="yes"/>
      <point x="80" y="97" type="line" smooth="yes"/>
      <point x="80" y="27"/>
      <point x="73" y="20"/>
      <point x="17" y="20" type="curve" smooth="yes"/>
      <point x="14" y="20" type="line"/>
    </contour>
    <contour>
      <point x="108" y="25" type="line"/>
      <point x="108" y="260" type="line"/>
      <point x="175" y="260" type="line" smooth="yes"/>
      <point x="250" y="260"/>
      <point x="278" y="234"/>
      <point x="278" y="150" type="curve" smooth="yes"/>
      <point x="278" y="62"/>
      <point x="245" y="25"/>
      <point x="196" y="25" type="curve" smooth="yes"/>
    </contour>
  </outline>
</glyph>
